<?xml version="1.0" encoding="utf-8"?>
<!-- Generator: Adobe Illustrator 19.0.0, SVG Export Plug-In . SVG Version: 6.00 Build 0)  -->
<svg version="1.1" id="Capa_1" xmlns="http://www.w3.org/2000/svg" xmlns:xlink="http://www.w3.org/1999/xlink" x="0px" y="0px"
	 viewBox="380 -119.1 822 1137" style="enable-background:new 380 -119.1 822 1137;" xml:space="preserve">
<style type="text/css">
	.st0{fill:#839800;stroke:#FFFFFF;stroke-width:2;stroke-linecap:round;stroke-linejoin:round;}
</style>
<path id="COL99" class="st0" d="M212.5,463l0.2,0.9l-0.6,0.5h-0.4l-0.8,0.7l-0.4,0.1l-0.3-0.3l0.5-0.8l0.5-0.3v-0.6l0.4-0.2
	L212.5,463L212.5,463z"/>
<path id="COL1283" class="st0" d="M1029.9,815.1l0.2,3l-1.1,6.2v3.1l-1.2,4.6v1.3l-1,3.4l-6.6,36.7l-4,21.7l-3.9,21.7l-4,21.7
	l-2,10.8l-7.8,43.5l-4,21.7l-1.2,2.4l-1.8-3.8l-1.2-1.7l-1.4-1.6l-2-1.6l-6.8-3.5l-1.8-1.8l-0.7-2.2l-0.4-2.4l-0.8-2.4l-1.6-2.3
	l-2.2-2.3l-2.5-1.9l-2.6-0.9l-1.9,0.2l-1.5,0.9l-2.6,2.4l-1.7,0.8H958l-3.6-0.9l-0.7-0.5l-9.2-4.8l-2.9-0.3l18.1-28.3l10.5-16.5
	l5.3-8.2l10.6-16.5l1.5-2.4l-1.2-0.8l-0.5-0.8l-0.5-1l-0.8-3l-0.7-0.5l-1.4,0.9l-0.4,0.7l-0.3,0.7l-0.4,0.5l-0.5,0.2l-0.7-0.4
	l-0.1-0.6v-0.6l-0.2-0.7l-1.3-1.1l-1.1,0.4l-1.2,0.5l-1.2-0.5l-0.8-1.2l-0.9-2.8l-0.8-1.3l-1.5-0.7l-1.3,0.4l-1.4,0.8l-1.6,0.5
	l-0.8-0.7l-0.3-0.6v-0.6l0.3-0.3l1.1-0.5l0.4-0.2l0.3-1.4l-0.9-0.7l-1.4-0.1h-1.4l-0.8,0.2l-1.6,0.6l-0.7,0.1l-0.7-0.4l-0.4-0.6
	l-0.3-0.7l-0.4-0.7l-0.8-0.7l-1.2-0.6l-1.2-0.4l-1.2-0.1l-1-0.5l-0.8-1l-0.9-0.6l-1.2,0.8l-0.2,0.6v1.4l-0.5,0.3h-2.8l-0.4-0.4
	l-0.1-0.8v-0.9l-0.1-0.7l-0.4-0.8l-2.2-1.7l-0.2-0.1v-2l-0.2-0.5l-0.3-0.4l-1.8-0.2l-1.2-0.3l-2.5-0.9l-2.3-1.5l-3.5-3.7l-2-1.3
	l-1.4,0.7l-1.7-0.4l-2.9-1.2h-1.9l-0.7,0.9l0.2,1.6l0.6,1.7l-0.6,0.3l-0.8,0.1l-0.9-0.2l-1.7-1h-0.8l-1.9,0.3l-1.5,0.7l-1.3,3.2
	l-1.9,1l-1.3,1l-0.7,0.1l-0.7-0.2l-0.8-0.6l-0.8-0.2l-1,0.4l-1.4,0.8l-1.2,0.3l-0.5-1l-4.9,2.4l-2.2,0.5l-0.8-1.5l0.3-0.5l0.9-0.8
	l0.2-0.6l-0.3-0.7l-1.5-2l-1.2-2.1l-0.7-0.2l-0.9,0.9l-0.7,2.6l-0.5,0.7l-1.1-0.5l-0.5-1v-2.8l-0.4-1.3l-0.7-0.6l-3.9-0.8l-1.4-0.7
	l-1.2-1l-1.4-0.8l-1.5-0.2l-2.3,1.1l-1.3,0.2l-0.6-1.1l0.1-2.4l-0.5-0.4l-1.5,0.7l-3.9,2.5h-0.6l-0.4,0.7l-2.4,3.8l-3.2,2.4
	l-0.5,0.5l-0.3,1.5l-0.8,0.9l-1.2,0.3l-4.2-0.6h-2.2l-1.9,0.7l-1.8,1.6l-3,3.5l-1,0.3l-4.3-1h-0.7l-1.8,0.4l-0.3,0.3l0.1,1.3
	l-0.2,0.5l-0.6,0.2l-1.6,0.1l-2.7,0.8l-1.5,0.1l-1.2-0.3l-1.2-0.6l-0.9-0.8l-0.3-0.9l-0.6-0.5l-6.9-1.1l-1.3-0.4l-3-2.4l-1.2-0.7
	l-1.3-0.2l-0.8,1.1l-1.8,3.7l-0.8,0.8l-1.1,0.4l-0.4-0.2l-0.3-1.8l-0.2-0.6l-0.6-1.1l-0.8,0.4l-0.5,0.5l-0.4,0.6l-0.1,0.8l-1.8-1.2
	l-1.1-0.4l-1.7,0.8l-1.9,0.7l-0.8,0.8l-1,0.3l-2.8,0.6h-0.6l-0.6-0.5l-0.6-1.1l-1.1-3.1l-1-0.8l-0.2-0.4l-4.7-2.6l-0.1,0.7l-0.8,1.6
	l-0.9,0.8l-0.4-1.5l-0.6-0.6l-2.9-0.7l-1.1-0.7l-0.2-0.5l-0.3-2.1l-0.3-0.3l-0.9-0.7l-0.3-0.8l-0.7-1l-0.1-0.6l0.1-0.7l0.2-0.5
	l0.6-0.7l2.5-2.2l0.6-1.5l2-3.2l-0.9-0.9l-0.6-1.4l-0.3-1.5l-0.5-1.3l-1.2-1.7l-0.4-0.9l-0.3-1.1l0.1-0.9l0.7-1.7l0.2-0.6l-0.4-1.1
	l-1.6-1.9l-0.4-0.9l0.5-2.5l-0.4-0.8l-1.2-0.6l-0.7-0.5l-1.8-2H772l-0.2,1.8l-0.5,0.2l-2.2-0.6l-1,0.2l-1.1,1l-0.5,0.8l-0.7-0.1
	l-1.6-1.5l-0.9-0.5l-0.8-0.2l-0.7,0.1l-1-0.1h-1l-0.5-1.4L755,846l-1.4-1.7l0.2-2.6l0.8-2.2l0.5-1.1l1.7-0.9v-1.3l-0.7-2.8l-0.1-1.6
	l-0.1-0.7l-0.5-0.7l-1.4-1l-0.8-1.2l-2.5-1.2l-0.6-1l1.1-1.3l0.3-0.7l-1.1-0.5l-0.7-1l-0.1-0.4l-0.1-1.5l-0.3-1l-0.3-0.1l-0.8,0.1
	h-0.3l-0.2-1.1l-0.5-1l-0.2-0.8l-0.4-0.6l-1.5-0.4l-1.3-1l-0.8-0.2l-1.5-0.3l-1.3-0.7l-0.9-1l-0.6-1.2l-1,0.4l-1.1,1.7l-1.1,0.6
	h-0.8l-1.1-0.2l-1.8-0.7l-0.9-0.6l-0.7-0.7l-1.2-1.9l-1-2.7l-0.4-0.6l-1.1-0.4l-2.1,0.5l-0.9-0.5l-0.1-0.6l0.6-1.1l-0.1-0.6
	l-0.5-0.5l-0.4,0.2l-0.4,0.7l-0.8,0.4l-0.3,0.3l-0.4,0.1l-0.8-0.3l-0.6-0.5l-0.3-0.6l-1.6-4.6l-0.7-0.8l-1.1,2l-1.8,0.1l-4.1-1.6
	l-4-0.7l-1.8-1l-1.5-2l-1-3l-0.6-0.9l-1.7-1.1l-0.4-0.7l0.4-0.7l0.9-0.2l1.1,0.2h0.9l0.4-0.8l-0.4-0.8l-0.7-0.7l-0.4-0.8l0.6-1.1
	l-0.6-0.2h-1.1l-0.7-0.2l-0.4-0.3l-2.3-2.6l-0.5-0.9l0.1-1.3l0.3-0.6l0.8-0.7l0.2-0.5l-3.2-7l-0.2-0.6l37.1-11.5l5.1,1h1.2l0.9-0.4
	l1.9-1h1l1.2,0.5l1.9,1.2l0.4,0.2l0.8,0.1l0.4,0.4l0.1,0.4l-0.3,1.3l0.1,0.5l0.5,0.4l0.5,0.1l1.6-0.1l0.7,0.1l0.6,0.5l0.8,2l0.5,0.9
	l0.9,0.5l5,0.8l3-0.2l3.1,0.1l1.5-0.2l1.1-0.7l0.6-0.5l0.6-0.2l1.2,0.4l2.2,1.7l2.5,2.5l2.6,2l2.7,0.2l2.3-0.5h1.8l1.6-0.5l1.5-1.6
	l4.1-2.9l7.6,5.1l4.6-0.9l2.5-1.6l1.9-0.4l2,0.8l7.1,5.8l1.7,1.1l1.7,0.8l1-0.1l0.7-0.9l0.9-1.5l3.2-3.6l2.1-1.9l1.7-0.7l2.1,1.3
	l2.1,2.1l2.3,1.5l3-0.5l1.8-1.5l0.8-0.8l0.3-1.7l-0.1-1.9v-2.4l0.4-2.1l1.2-1.8l1.5-1.5l1.2-1.6l2.1-3.5l1-1.1l3.6-1.9l2.6-2.5
	l1.6-0.8l2.1-0.3l9.2,0.1l2.6-0.5l2.1-0.9l1.4-1.4l1-2.1l0.8-2.9l2.5-2.9l4.3-2.9l12.4-5.5l3.5-1.9l4.5-4.5l1.5,1.5l1,0.5l1.1,0.4
	l1.1,0.1h1.1l2.8-1.3h1.4l1,1.4l0.6,2.8l0.6,1.1l1.5,0.6l1.3,0.4l2.6,1.3l1.2,0.4l0.8-0.1l1.4-0.7h0.9l0.8,0.5l0.9,1l2,2.9l0.5,1
	l0.3,1v1.2l-0.3,1.2l-0.4,0.8l0.1,0.8l2.5,3.2l1.6,4.5l1.6,3.5l0.4,0.6l0.6,0.2l2.4,0.1l1.1-0.2l0.8-0.6l0.3-1.1l0.7-1.1l1.3-0.1
	l1.5,0.5l1.2,0.6l1.9,1.6l0.7,0.3l0.8,0.1l1.5-0.3h0.8l0.9,0.5l1.4,1.7l0.9,0.4l3.4-0.3l1.1,0.3l1.1,0.7l1,1.2l0.8,1.3l0.5,1.2v1.1
	l-0.2,1l0.3,0.6l2.9-0.1l3.5,0.7l1.3-0.2l0.5-0.7l-0.2-1.8l0.7-0.9l1.4-0.7l1.2-0.4h1.3l1.5,0.4l1.5,0.9l0.3,0.8l-0.6,0.8l-4.2,3.9
	l-1.4,1.9l0.1,1.5l0.7,0.1l1-0.4l1.2-0.1l1,0.9l0.3,1.2v1.3l-0.4,2.6v1.2l0.2,1.1l0.7,2.1l-0.1,1l-0.9,0.7l-1,0.6l-0.7,0.9l0.6,2.4
	l2.1,2.2l1.4,2.1l-1.5,2.3l-2,1.3l-0.8,0.8l-0.2,1.1l0.4,1.3l0.9,1.4l1.2,1l1.2-0.3l1.7-1.5l0.9-0.4l0.4,0.9l-0.2,0.9l-0.8,1.8
	l-0.1,0.9l0.6,0.7l3.3,2.6l1.3,0.3l1.3-0.2l1.2-0.7l0.6-1.3l-0.8-1.8l-1.7-1.3l-1-1.6l1.7-2.1l1.1-0.6h0.8l1.3,0.7l0.6,0.2h0.6
	l0.9-0.5l0.6-0.8l0.7-0.5l2,1l1-0.2l1-0.6l1.1-0.4l1.5-0.1l0.4,0.6l-0.3,0.8l-0.5,0.9l-1.2,1l-0.4,0.5l-0.1,0.3v1.4l-0.9,2.1v0.9
	l1.1,0.9l1.3,0.1l1.1-0.6l1-0.9l1.1-0.6h1.6l3,1.2h1.4l0.8-0.6l0.5-1.8l0.6-0.7l1-0.4l1,0.2l1,0.6l2.7,2.4l0.9,1.1l0.3,1.1l-0.3,1.2
	l-0.5,1.1l-0.3,1.1l0.2,1.3l0.5,1.3l0.5,0.4l0.8-0.1l3.4-2l1,0.1l4.8,2.4l0.9,0.1l1,0.4l0.4,0.4l0.3,0.9L1029.9,815.1L1029.9,815.1z
	"/>
<path id="COL1314" class="st0" d="M666,179.1l15.8,12.9l1.2,2.1l1.3,1.8l0.7,0.8l0.7,1.9l0.7,6.8l0.6,2l0.8,1.3l0.9,0.5l0.8,0.5
	l0.3,0.9l-0.2,1.2l-1,1.9l-1.2,1.2l-1.5,0.9l-1.5,1.1l-0.8,1.7l-0.9,5.6v2.1l0.3,1.8l1.3,2.9l2.3,2.8l1.4,1.3l1.3,0.4l1.3-0.3
	l1.5-1.3l0.9-1.1l1.2-2.9l0.7-1.2l2.7-2.1l1.2,3.8l-0.4,1.6l-0.4,1.1l-0.6,0.9l-1.4,1.5l-0.5,0.9l-0.3,1.5l0.3,1.6v2.7l-0.7,2.3
	l0.1,1.7l0.5,2.1l1.1,2.7l0.6,2.1l0.7,1.9l0.2,1.5l0.3,1.5l0.7,1l1.6,0.7l1.3,0.2l2-0.2l1.2,0.3l21.7-20.7l-0.5,3.2l0.7,8.7l0.3,1.4
	l0.7,1l0.8,1l0.5,1l0.4,2.8l-0.9,1.8l-1.6,1.2l-5.5,2.7l-0.7,0.5l-0.4,1l-2.8,3l-2.1,4.1l-0.9,1.2l-12.4,9.2l-2.5,1.2l-2.7,0.4
	l-1.1,0.3l-0.4,1l-0.1,0.5l-0.8,2l-0.2,0.5l0.2,6.2l0.2,0.9l1.1,1.2l0.4,0.7l0.1,0.8l-0.3,0.8l-0.5,0.6l-0.7,0.2l-0.8-0.3l-3.1,4.7
	l-1.7,1.9l-2.3,1.6l-1.9,1.3l-1.3,1.5l-0.8,1.7l-0.6,2.9l-0.9,1.6l-0.2,0.9v1l0.4,0.7l0.9,1.1l0.5,1.1l0.1,1l-0.1,2.8l0.2,1.4
	l-0.2,0.6l-0.4,0.2l-1.1,0.5l-0.3,0.3l-0.1,1.2l1,2.8l-0.3,0.6l-0.8,0.3l-0.9,0.9l-0.8,1.1l-0.5,1l-0.6,4.2l-0.9,1.8l-0.6,0.4
	l-0.8-0.7l-0.4-0.2l-0.6,0.2l-0.9,0.1l-0.4,0.4l-0.1,0.5l-0.5,1.2l-0.3,1.4l-0.9,1.6l-2.2,0.7l-0.7-0.3l-2.8-1.9l-1.2-1.1l-1.3-0.4
	l-4.1,0.8l-4.3,1.3l-0.9,1.4l-0.7,0.8l-1.3,0.7l-1.3,0.5l-2.5,0.2l-0.2,1.8l0.1,2.5l-0.5,1l-2.3,2.6v0.5l-0.6,0.4l-1.7,0.1l-0.8,0.3
	l-1,0.5l-1.4,0.9l-1.1,0.9l-0.6,1.3l-0.8,1l-0.8,1.3l-0.7,0.2l-1.1-2.7l-1.8,0.7l0.3-2.5l-0.1-1.2l-1.6-4.6l-0.5-0.8l-0.9-0.4
	l-0.5-0.3l-0.7-0.8l-0.1-0.6l0.1-0.7l0.1-1.3l-0.2-0.7l-0.3-0.4l-1.5-0.5l-0.6-0.5l-0.7-0.3l-3,1.6h-1.1l-0.4-0.2l-2.6-1l-0.6-0.6
	l-0.3-1l-0.8-0.6l-0.8-0.2l-2.2-0.8h-0.8v0.2v2.1l0.4,0.9l1,0.3l-0.4,2.1v1l1.1,3.7l0.1,1.4l-0.1,1.3l-0.3,1.6l-1.7-0.5l-1.6,0.1
	l-1.4-0.2l-1.5,0.1l-0.6-0.2l-0.7-0.7l-1.8-1.3l-1,0.1l-4.4,3.1l-3.5,1.5l-1.5,0.2l-3.1-0.5l-2.3-0.9l-1.5-0.9l-1.3-1.2l-0.8-1.6
	l-2-1l-2.6-2.7l-0.4-0.5l-0.7-1.3l0.1-1.1l0.8-2.9l-0.2-1.7l-0.5-0.9l-1.9-3.2l-0.5-1.5l-0.3-1.8l0.2-1.6l1.8-4.7l-0.4-3l-1.7-0.9
	h-1.8l-1.7-0.7l-1.9-2.4l-1.6-4.2l-0.5-4.2l-0.7-1.1l-1.2-0.9l-2.4-0.3h-2.5l-2.6,0.3l-2.2,0.5l-3.2,0.3l-3.8,0.3l-3,0.7l-5.3,0.2
	l-1.7-0.2l-1.8-0.5l-0.9-0.7l-0.6-0.8l-0.2-1.4l-0.7-1.2l-1.9-2l-0.1-0.4l-0.3-1.5l-0.3-0.2l-1.1-0.3l-0.4-0.4l-0.3-1.1l0.2-1.3
	l0.4-1.2l0.6-0.6l-0.9-0.4l0.7-1.1l-0.1-0.8l-0.6-0.7l-0.5-1.1l0.9-0.3l0.5-0.7l-1.1-0.3l-0.2-0.6l0.4-0.9l0.7-0.8l-0.1-0.5l-1.6-2
	l-0.9,0.3l-0.6-0.6l-0.5-0.9l-0.7-0.6v-1.2l-0.3-1l-0.6-0.7l-1-0.4l-0.8,0.4l-0.4-0.8l0.2-1.4l0.6-1h0.4l0.4,0.3h0.4l0.2-1l-0.3-0.3
	l-1.5-0.2l-0.6-0.2l-0.4-0.7V282l0.4-1.1l-0.3-0.4l-0.6,0.4l-0.5,0.7l0.1,0.4l-0.8-0.1l-0.4-0.3l-0.2-0.5v-0.7l-0.2-0.5l-0.5-0.1
	l-1.2-0.1l1.2-1.4l0.2-0.4l-0.2-0.7l-1-0.7l-0.2-0.8v-2.5l-0.2-0.6l3-1l0.9-0.1l2.1-1.3l3.2,0.3l0.6-0.3l0.3-0.4l0.8-0.8l0.6-0.8
	l0.3-1l-0.3-2.5l-0.3-1.1l-0.4-0.8l-0.8-0.5l-0.2-0.2l-0.6-1.4l0.3-1l1-0.6l1.3-0.5l2-0.3l4.3-0.4h1.4l5.5,1.4l1.2,0.4l0.9,0.5
	l1.6,0.1l2.2-3.7l0.3-0.6l0.2-1.3l-0.2-7.6l-1.4-4.2l-0.9-1.3l-2.9-2.5l-0.8-0.6l-0.9-0.3l-2.3-0.3l-1.8-1.1l-1.3-1.1l-5.4-6.7
	l-7-7.6l-7-5l-8.6-7.9l-0.7-0.8l-0.5-1l0.5-0.4l0.4-0.1l-0.2-0.7l-0.3-0.1v-2.8l1.8,0.3l1.5-1l1.4-1.4l1-0.7l0.9-1l1.3-6.9l0.4-1
	l0.5-0.7l1.3-0.8l0.2-1.3l0.5-0.7l0.4-1.4l-0.5-5.6l-0.3-1.3l-0.5-1.1l-0.8-3.3v-0.2l0.6,0.1l0.4-0.9l0.5,0.1l0.4,0.6v1.2H523
	l-0.5-0.5v1.7l0.5,1.2l0.8,0.5l1-0.6v1.4l0.9-1l0.3,0.7l-0.6,1.1l-0.1,1.1l-1.4-0.5l0.4,2.4l1.7,1l1.5-0.2l0.1-1.3h4.2l-0.8,1.3
	l-0.2,0.7v0.8h0.5l0.9-0.5v0.5l-2.3,0.9v0.4l1,0.3l0.5,0.6l-0.1,0.6l-0.7-0.6l-1.1,0.1l0.5,0.6l1.3,0.9l0.5,0.8l-1.7-0.8l-1.8-0.5
	l-1.6,0.2l-1,1.1v0.3l0.5,0.1l-1.3,3.9l1.8,2.4l3.6,1.1l4.2,0.1l0.8-0.1l0.8-0.3l0.7-0.4l0.5-0.6l0.2-0.6l-0.2-1.5l0.1-0.5l0.6-0.7
	l0.2-0.6l0.4-4.2l-0.1-1.9l-0.8-1.6l-0.3,0.9l0.3,0.9h-0.4l-0.4-1.1l-0.2-1.5v-1.6l0.7-2.3l-0.2-1.4l-0.9-2.3l-0.4-2.2v-9.5
	l-0.3-1.2l-0.9-0.6l-0.9-0.4l-0.4-0.9l-0.3-1.2l-0.4-1.2l-1.4-1.4l-2.1-1.5l-2.4-1.1l-2-0.3v0.6l-0.8-0.8l1.1-1.7l1.7-2l0.8-1.4
	l6.7-2.1l1.6-0.1l6.6-1.9l0.8-0.5l0.4-0.5l0.1-1.6l0.3-0.6l0.6-0.4v-0.4h-0.5v-0.5l1.3-0.2l4.5-1.7l0.9-0.7l3-3l3.5-2.4l0.4-0.4
	l0.4,0.3l1.8,1.8l0.5,1.4l1.1,5.4l1.6,2.3l1.2,2.1l1,1l3.6,1.3l1.1,1l2.2,3.3l0.9,5.6l0.1,2.9l-0.2,2.9l-3.6,4.2l-3.2,4.6l-3.5,7
	l-2,3.1l-1.3,2.3l0.2,6.3l-0.2,1.8l-0.9,3.2l-2.4,3.9l-2.5,9.1v6.5l0.6,3l4.2,9.2l1.8,5.7l25.3,0.7l4.4,0.1l6.6,0.3l0.7-0.2l0.8-0.5
	l0.1-0.7l0.3-1l4.7-6.7l1.9-1.4l2.4-0.8l4-0.8l2.5-1l1.3-0.8l1.6-2.5l1.3-5.6l0.8-1.2l1.2-1.1l1.8-1.1l2.1-4.7l1.1-1.1l3.5-2.4
	l1.9-1.6l2.5-3.2l4.1-4.4l2.3-3.5l1-0.4l1.7-0.5l5-0.5l1.5,0.1l1.2,0.3l0.9,0.2l0.9-0.3l1-0.6l1-0.2l1.4-0.1l3.7,0.2l2-2.7l1.8-2.8
	l1.1-1.2l1.1-0.8L666,179.1L666,179.1z"/>
<path id="COL1315" class="st0" d="M857,258.8l2,0.5l-0.6,1.9l-0.7,1.4l-2.5,6.5l-1.4,2.5l-0.8,2.9l-1.3,1.7l-1.5,0.7l-0.5,1.2
	l-1.6,12.8l-0.7,2.4l-0.6,1l-0.8,1l-1.2,0.5l-0.9,0.1l-0.8,0.2l-0.6,0.5l-0.6,0.9l-0.7,0.7l-0.5,0.4l-0.6-0.1l-0.7-0.6l-0.6-0.1
	l-0.6,0.4l-0.6,0.6l-0.4,0.7v0.9l-0.5,1.6l-1.8,1.6l-2.2,1.2l-2.8,4.5l-1.3,4.3l-0.1,0.7l0.2,0.5l1,0.5l0.4,0.5l0.4,1.6l0.4,0.9
	l0.3,0.9l0.4,0.8l2,2.1l-0.2,1.3l-0.9,1.8l-0.6,3.4l-1.5,5l-0.3,0.5l-1.5,0.3l-1.1,0.4l-0.6,0.6l-0.4,0.5v1.4l6.4,3.4l2.7,2l0.5,1.6
	l1.4,1l1.5,2.2l1.6,1.3l-1,0.9l-0.5,0.2l-0.5,0.5l-0.3,0.7l-0.3,1.2l-0.5,1.7l-0.9,0.8l-0.6,1.3l-0.9,4.7l-0.5,0.4l-0.6-0.1
	l-0.8-0.6l-1.5-1.1l-0.5-0.5l-0.6-1.1l-0.4-0.6l-0.4-0.3h-0.7l-0.8,0.4l-1.6,1.8l-7.4,8l-1.5,2.5l-0.9,1.5l-2.8,1.6l-3.9,3.5
	l-1.3-0.1l-1.9-2.5l-1.3-1l-1.6-2.4l-0.5-0.6l-1.4-0.6l-1.5,1.3l-0.8,0.4l-1,0.9l-1.1,1.3l-3.8,5.2l-0.5,0.6l0.2,2.4l-0.5,0.6
	l-0.4,0.9l-0.3,1.5v1l0.3,0.9l0.7,1.2l1.6,1.3l0.5,0.9l-1,1.9l-0.4,1.5l-0.4,0.8l-1.1,1l-1.6,1.8l-2.5-1.1l-1,0.1l-0.3,0.6l-1.1,4.4
	l-0.2,3.1l-1.1,2.9l-0.2,1.3l1.3,4l-0.2,1.2h-1l-0.5,0.7v0.8l-1,1.7l-0.2,0.6l-0.5,0.5l-0.9,0.5l-2.8,0.2l-2.7-1.1l-1.5-0.1
	l-0.5-1.2l-0.2-1.9l-0.6-0.4l-0.7-0.2l-1.3-0.1l-1.2,0.4l-0.8-0.1l-0.5-0.5l-0.4-0.8l-1.3-2.3l-2.6-1l-0.1-0.4l0.2-1.1l-0.4-0.7
	l-1-1.1l-1-1.6l-0.6-0.5l-2-0.6l-5.5-0.1l-1.5-2.1v-0.9l2.1-3.9l-0.3-2.2l2.7-2l0.1-0.9l-1-1.9l-0.2-1.4l0.3-1l-0.2-0.8l-1.7-2.8
	l-0.5-1.9l0.3-1.7l-1.1-1.8l-0.3-0.5l-1.1-0.9l-1.8-1.4l-0.3-0.8l-0.3-0.9V372l0.4-1l0.4-0.8l-0.5-0.7v-0.6l-0.7-0.5l-2.8-2.5
	l-0.7-1.4l-0.1-0.7l-0.4-0.1l-0.6,0.2h-0.8l-1-0.4l-1.5-1.5l-1.5,0.4l-3.5-1.7v-3.5l-0.4-0.3l-1,0.1l-0.6,0.3l-1.5,1.3l-3.7,3.8v1.3
	l-0.5,1.4l-1.9,0.6l-4.4,4l-3.1-1.8l-1.1-0.1l-1-0.6l-0.7-0.6l-0.7-1v-1.4l-3.3,0.2l-0.7-0.3l-1.3-0.6l-2.1-1.2l-1.5-0.1l-0.9,0.1
	l-0.4-0.5l-0.1-0.5l0.2-1.7l-0.5-1.4l-2.9-2.8l-1-1.9l-0.1-0.7l0.2-0.8l0.8-1.5l0.6-0.7l0.2-0.9l-0.1-0.6l-0.5-0.7l-0.3-1v-1.2
	l-0.1-1.4l-0.5-0.7l-0.2-0.6l0.1-1.1l-0.2-0.4l-0.7-0.5l-0.4-1.1l-0.5-0.4l-0.5-0.1l-1,0.7l-2,1.7l-1,0.7l-0.6,0.5l-1.7,0.4
	l-3.1-0.6l-1-0.3l-1-0.4l-1.2-0.2l-0.4,0.1l-0.8,0.6l-1.6,0.7l-3.6,0.7l-1.1,0.4l-0.8-0.8l-0.3-0.5l0.9-1.8l0.6-4.2l0.5-1l0.8-1.1
	l0.9-0.9l0.8-0.3l0.3-0.6l-1-2.8l0.1-1.2l0.3-0.3l1.1-0.5l0.4-0.2l0.2-0.6l-0.2-1.4l0.1-2.8l-0.1-1l-0.5-1.1l-0.9-1.1l-0.4-0.7v-1
	l0.2-0.9l0.9-1.6l0.6-2.9l0.8-1.7l1.3-1.5l1.9-1.3l0.4,2.1l0.6,2.1l0.7,1.3l1,3.1l2.6,4l1.4,1.5l0.9,0.8l1.5,0.9l1.2,0.5l0.6,0.2
	l1-0.3l1.7-1.3l0.9-0.5l0.9-0.1l0.8,0.5l0.6,0.9l0.8,2l0.7,1.3l0.5,1.3v1.2l-1.6,3.1l-0.4,1.4l-0.1,1l0.9,2.4l1.1,0.2l0.5-0.1
	l0.8-0.5l1-0.8l0.9-1.5l1.3-0.9l1.4,1.3l2.9,0.8l0.9,1l0.6,2.1h1.2l0.7,0.2l0.7,0.5l1.2,2.2l1.6,2l2.3,1.3l0.8-0.1l0.8-0.3l0.5-0.1
	l1.4-0.5l1.1-0.1l0.7,0.1l0.7,0.3l0.5,0.4l-0.1,1.7l3-1.9l4.4-1.1l2.1-0.3l1.5,0.1l1.4,0.5l1.2,0.7l1.3,1.1l0.5,0.6l0.7-0.4l0.4-1.4
	v-1.5l0.6-3.4l0.7-2v-1.6V335l-0.3-1.2l0.3-1.1l1.3-2.1l0.3-2.4l0.8-1.3l2.9-2.3l0.2-0.8l2.2-3.6l1,1l3.1,1.5l2.7,2.5l0.8,1.3
	l0.3,0.8v1.2l-0.3,1.4l-1,2.8l-1,1.6l-1.5,0.7l-0.3,1.4l-2,1.3l0.3,2.3l2.6,3.4l0.9,0.6l0.8-0.1l0.9-2.4l1.4-1.3l0.7-1.7l0.3-1.5
	l0.2-0.3l0.4-0.1l2.3,0.7l1.7-0.1l3.3-5.2l1.2-3.4l1.2-0.6h0.4l0.8,0.2l1.6,1.1l2.2,1.1l6.2,1h1.2l0.7-0.7l0.9-3.3l5.1-6l0.7-1.2
	l0.9-1.1l1.8-0.7l2.1-0.5l1.2-0.9l1.2-3.3l1.2-0.7l0.8-0.3l1-0.8l0.5-0.8l0.2-0.7l-0.1-1.3l0.2-1.2l-0.8-2.1l1.3-3.8l-0.3-2.9
	l0.5-2.6l-0.3-0.9l-0.5-1.1l-0.6-0.7l-0.7-0.4l-2-2.1l-0.5-1.2l0.6-1.1l1.4-0.4h0.6l1.3,1.2l2.3,1.8l1.1,1.5l0.7,1.4l1.4,3.5
	l1.2,0.3l1.8-0.5l2.4-2.5l1.3-0.6l0.7-0.5l0.6-0.8v-4l0.5-1.1l2.5-4.6l1.1-5.1l0.3-2.6l-0.7-2.3v-1.1l0.1-0.9l0.5-1.4l-1.8-4.8
	l1.7,0.3l3.8,2.1l1.5,0.3l1.2-0.2l1.2-0.7l1.8-1.7l0.8-1l0.7-1l0.7-1.9l1.2-2.4l1.5,0.4l0.5,1.3l0.4,0.3l0.7-0.2l0.6-0.4l0.6-0.6
	l0.5-0.6l0.2-1l0.3-0.6l0.4-0.4l1.4-0.5l5.5,0.1l1.9,0.5l1.3,0.5l1.3,0.7L857,258.8L857,258.8z"/>
<path id="COL1316" class="st0" d="M608,95.5l-0.1,4.2l1.8,0.7l0.6,0.4l2,0.5l3.6,1.7l0.9,1.3l1.2,1.3l2.5,0.6l0.3,0.6l0.3,0.1
	l1.4,0.1l1.1,0.7l0.5,2.9l1.9,2.9l11.7,5.4l2.9,2.1l-0.6,1.3l0.2,0.5l1.2,1.8l0.2,0.4l-0.5,0.8l-0.3,3.3l-0.7,0.5l-3.4,0.9l-1,0.1
	l-0.7,0.3l-1,0.7l-1.3,1.4l-1.3,1l-0.5,0.6l-0.2,2.7l1.3,4.2l-0.4,1.8v1l0.2,1.4l1.3,4.4v2.9l0.4,3.4l0.4,1.2l0.5,0.9l0.7,0.7
	l2.8,1.3l2.2,1.5l2.5,2.6l7.1-3.5l2.9-0.9l3.7-1.3l1.5-0.1h0.9l1.4,1.2l2.5,1.9l1.9,3.1l1.5,1.5l0.9,0.6l0.8,0.9l0.4,1.1l-0.1,3.8
	l0.3,1.1l0.1,0.4l-0.1,0.5l-1,1.1l-0.8,1.1v0.9l-0.5,1.1l-1.2,0.3l-1.1,0.8l-1.1,1.2l-1.8,2.8l-2,2.7l-3.7-0.2l-1.4,0.1l-1,0.2
	l-1,0.6l-0.9,0.3l-0.9-0.2l-1.2-0.3l-1.5-0.1l-5,0.5l-1.7,0.5l-1,0.4l-2.3,3.5l-4.1,4.4l-2.5,3.2l-1.9,1.6l-3.5,2.4l-1.1,1.1
	l-2.1,4.7l-1.8,1.1l-1.2,1.1l-0.8,1.2l-1.3,5.6l-1.6,2.5l-1.3,0.8l-2.5,1l-4,0.8l-2.4,0.8l-1.9,1.4l-4.7,6.7l-0.3,1l-0.1,0.7
	l-0.8,0.5l-0.7,0.2l-6.6-0.3l-4.4-0.1l-25.3-0.7l-1.8-5.7l-4.2-9.2l-0.6-3v-6.5l2.5-9.1l2.4-3.9l0.9-3.2l0.2-1.8l-0.2-6.3l1.3-2.3
	l2-3.1l3.5-7l3.2-4.6l3.6-4.2l0.2-2.9l-0.1-2.9l-0.9-5.6l-2.2-3.3l-1.1-1l-3.6-1.3l-1-1l-1.2-2.1l-1.6-2.3l-1.1-5.4l-0.5-1.4
	l-1.8-1.8l-0.4-0.3l1.1-1v-0.4l-0.5-0.8l0.6-0.5l4.1-1.1l1.6-0.9l1.2-0.1l0.6-0.5l0.3-0.6l0.7-0.9l2.4-1.8l0.6-0.7l-0.6-2.4l0.7-2
	l1.3-1.5l2.2-2l0.7-0.8l0.4-1l0.7-5.7l0.5-1h0.4l1.9-0.8l1.1-0.4l0.3-0.8v-1.2l0.1-1.2l0.3-0.6l0.7-0.8l0.7-0.5l0.6-0.3l2.7-0.8
	l2.1-0.7l1.9-1.1l1.6-1.3l0.2-1.7l0.5-1L593,94l0.7,0.7l2.2-0.1l2.4-0.5l1.6-0.6l1,0.5l0.4,0.5v0.9l-1-0.4l-1-0.2l-0.9,0.3l-0.8,0.7
	l0.9,0.5l0.4-0.1l0.6-0.4l0.8,0.8v0.6l2.1-1.4l1.3-0.7l1.5-0.2l1.5,0.2L608,95.5L608,95.5z"/>
<path id="COL1317" class="st0" d="M747.3,209.9l1,1.2l1.2,1l1.6,0.8l1.6,1.4l1.7,1.9l0.2,0.4v0.6l0.8,1.3l0.5,0.5l1,0.6l1,0.4
	l1.3,0.3l3.7,0.5l1.2,0.7l0.3,0.7l0.7,0.2l1.3,0.2l2.2-0.1l3.2,0.3l0.2-0.5l0.7-3.1l1-1.6l0.6-0.5l0.5-0.1l0.8,0.1l1,0.4l1.3-0.1
	l2.1,0.3h1.5l0.7,0.1l0.7,0.3l1.6,0.1l1,0.3l0.7-0.5l1.3-0.4l2.4,0.5l-0.2,0.7l-0.1,0.7l0.5,2.2l0.3,0.9l0.6,1l4.8,3.8l0.2,1
	l-0.2,0.9l0.4,1.3l2,3.1l0.7,0.8l0.1,0.6l0.9,0.4l-0.1,3.8l-2.5,3l1.2,1.7l0.7,1l0.4,0.3l0.7,0.3l0.2,0.9l-0.1,1l0.4,1.2l-0.5,0.9
	l-0.8,1.2l-2.5,3.9l0.4,1l0.3,0.2l1.8,0.8l1.5,0.2l1.7,0.4l0.5,0.3l0.7,0.8l0.8,0.5l1.8,1.5l1.6-0.8l0.4-0.1h0.8l0.9-0.1l0.5,0.2
	l0.3,0.7l0.3,1l0.2,0.2l0.5-0.5l0.5-0.9l0.3-0.1l1.5,0.3l1.9-0.4l0.7-0.3l0.9-0.1l1.1,0.2l0.3,0.6l0.3,0.7l0.2,1.6l0.1,1.1l-0.3,2
	l0.3,1.8l1.3-0.1l0.4-0.3l0.6-0.7l0.5-0.9l1.8,4.8l-0.5,1.4l-0.1,0.9v1.1l0.7,2.3l-0.3,2.6l-1.1,5.1l-2.5,4.6l-0.5,1.1v4l-0.6,0.8
	l-0.7,0.5l-1.3,0.6l-2.4,2.5l-1.8,0.5l-1.2-0.3l-1.4-3.5l-0.7-1.4l-1.1-1.5l-2.3-1.8l-1.3-1.2h-0.6l-1.4,0.4l-0.6,1.1l0.5,1.2l2,2.1
	l0.7,0.4l0.6,0.7l0.5,1.1l0.3,0.9l-0.5,2.6l0.3,2.9l-1.3,3.8l0.8,2.1l-0.2,1.2l0.1,1.3l-0.2,0.7l-0.5,0.8l-1,0.8L804,313l-1.2,0.7
	l-1.2,3.3l-1.2,0.9l-2.1,0.5l-1.8,0.7l-0.9,1.1l-0.7,1.2l-5.1,6l-0.9,3.3l-0.7,0.7H787l-6.2-1l-2.2-1.1l-1.6-1.1l-0.8-0.2h-0.4
	l-1.2,0.6l-1.2,3.4l-3.3,5.2l-1.7,0.1l-2.3-0.7l-0.4,0.1l-0.2,0.3l-0.3,1.5l-0.7,1.7l-1.4,1.3l-0.9,2.4l-0.8,0.1l-0.9-0.6l-2.6-3.4
	l-0.3-2.3l2-1.3l0.3-1.4l1.5-0.7l1-1.6l1-2.8l0.3-1.4v-1.2l-0.3-0.8l-0.8-1.3l-2.7-2.5l-3.1-1.5l-1-1l-2.2,3.6l-0.2,0.8l-2.9,2.3
	l-0.8,1.3l-0.3,2.4l-1.3,2.1l-0.3,1.1l0.3,1.2v1.3v1.6l-0.7,2l-0.6,3.4v1.5l-0.4,1.4l-0.7,0.4l-0.5-0.6l-1.3-1.1l-1.2-0.7l-1.4-0.5
	l-1.5-0.1l-2.1,0.3l-4.4,1.1l-3,1.9l0.1-1.7l-0.5-0.4l-0.7-0.3l-0.7-0.1l-1.1,0.1L726,345l-0.5,0.1l-0.8,0.3l-0.8,0.1l-2.3-1.3
	l-1.6-2l-1.2-2.2l-0.7-0.5l-0.7-0.2h-1.2l-0.6-2.1l-0.9-1l-2.9-0.8l-1.4-1.3l-1.3,0.9l-0.9,1.5l-1,0.8l-0.8,0.5l-0.5,0.1l-1.1-0.2
	l-0.9-2.4l0.1-1l0.4-1.4l1.6-3.1v-1.2l-0.5-1.3l-0.7-1.3l-0.8-2l-0.6-0.9l-0.8-0.5l-0.9,0.1l-0.9,0.5l-1.7,1.3l-1,0.3l-0.6-0.2
	l-1.2-0.5l-1.5-0.9l-0.9-0.8l-1.4-1.5l-2.6-4l-1-3.1l-0.7-1.3l-0.6-2.1l-0.4-2.1l2.3-1.6l1.7-1.9l3.1-4.7l0.8,0.3l0.7-0.2l0.5-0.6
	l0.3-0.8l-0.1-0.8l-0.4-0.7l-1.1-1.2l-0.2-0.9l-0.2-6.2l0.2-0.5l0.8-2l0.1-0.5l0.4-1l1.1-0.3l2.7-0.4l2.5-1.2l12.4-9.2l0.9-1.2
	l2.1-4.1l2.8-3l0.4-1l0.7-0.5l5.5-2.7l1.6-1.2l0.9-1.8l-0.4-2.8l-0.5-1l-0.8-1l-0.7-1l-0.3-1.4l-0.7-8.7l0.5-3.2l0.4-2.8l0.8-2.8
	l0.8-1.9l0.1-0.6l-0.2-0.8l-0.6-0.9l-0.1-0.7v-2.6l0.3-1.1l3.8-4.7l0.2-0.6l0.9-0.5l0.3-1V216l0.4-1.2l0.1-0.7l-0.3-0.6l-0.6-0.9
	l0.2-0.6l0.4-0.5l0.2-0.8l0.6-3.9l-0.1-1.4l-0.8-4.1l-0.3-0.6l-0.7-0.6l-0.9-4.1l0.2-0.8l-1.2-3.8l-0.1-1.3l0.1-1.3l0.5-2.1l0.7-1.8
	l-0.1-0.2l1.4-0.6l0.3-0.1l0.5-0.8l0.5-0.7l0.6-0.6l0.7-0.2l0.7-0.8l0.4,3.4l0.1,0.9l0.5,1.4l2.8,4.9l0.1,1.2l0.6,0.7l0.8,0.2
	l0.4,0.2l0.5,0.6l0.8,0.5l0.4,0.6l0.4,1.2v1.2l-0.5,1.2l-1.9,1.6l-1.1,0.8l-1.2,1.2l-0.3,0.7l-0.1,0.6l0.2,1l0.2,1.3l-0.7,1.2
	l-0.1,2L747.3,209.9L747.3,209.9z"/>
<path id="COL1318" class="st0" d="M795,26.4l-1.6,0.3l-2.6,1.1l-1.1,0.3l-1.2,0.2l-1.2-0.1l-1-0.2l-1.2-0.5l-1-0.2l-1.3,0.2
	l-1.2,0.5l-1,0.3L780,28l-0.4-1.2l-0.4-1l-0.8-0.9l-1.3-0.4l0.4-0.8l0.4-0.7l0.8-0.4l1.3-2.5l0.9-0.5l0.8-2.4l0.9-1.1l0.6-1.6
	l0.3-0.8l0.8-1.1l-0.7-1.1L781,9.3l-2.7-1.6l-2-0.5l-1.8-1.1l-2-0.6l-0.5-1l0.1-0.7l0.3-0.9l0.1-0.8l-0.3-1.8l-0.3-1.2L771.1-2
	l-0.9-0.6L769-2.5L766.6-3l-1.8-0.1l-1.5-0.3l-4.4-0.2l-10.3,1.4l-1.4-5l-0.4-2.8l-0.3-0.9l-0.8-1.3l-0.1-0.5v-0.7l0.4-1.7l0.4-1
	l0.2-3.6l0.1-0.8v-0.8l-0.2-1l0.4-0.7l1-0.3l0.3-0.3l0.9-1.2l0.8-0.5l0.3-0.6l1.3-3.9l-0.2-1.9h11l7.4-1.2l0.6-0.4l0.5-0.6l2-1.5
	l1.7-1l0.9-0.9l0.8-1.6l0.3-0.2l0.8-0.3l0.6-0.5l0.9-1.4l0.8-0.6l2.2-1l3.8-3.7l8.2-4.3l11.7-9.7l1.2-0.7l2.5-0.9l4.1-0.8l1-0.5
	l2.1-1.5l1.3,0.4l1.5-0.7l1.4-1.1l1.6-0.5l4-0.1l1.2-0.4l1.1-0.6l1.7-1.4l2.2-0.6l2.9-2.1l3.6-1.4l0.8-1.1l1.2-1.3l0.3-0.7l0.1-0.6
	l0.9-2.4l2.4-3.8l0.7-2.3l1.5-2l0.4-0.9l0.1-1.3l-0.2-3.9l-0.3-1.4l-0.4-0.5l-0.6-0.6l-0.6-0.3h-0.3l0.2-0.9l0.6-0.6l1.5-0.9
	l2.1,0.8l6.9-1.3l2.4,0.6l-0.3,1.3l-2.8,2.9l1,0.5l1.1,1.8l1.1,0.5l2-0.9l0.4-0.2l0.2-0.9l0.4-0.8l0.6-0.6l0.6-0.4h0.9l0.9,0.1
	l0.7-0.1l0.3-0.7l-0.3-0.7l-0.4-0.6l-0.3-0.6l0.5-0.7l-0.7-0.5l-0.7-1l-0.9-0.3l-0.9-0.1l-0.8,0.1l-0.7,0.4l-0.4,0.5h-0.4l-0.5-0.9
	l3.1-2.2l2.5-2.1l0.4-1.2l0.3-0.2l1.2,0.1l0.3-0.1l1-0.8l0.6-0.1l0.8,0.4l-1.2,0.6l-0.9,0.8l-0.2,1l0.9,1l0.8,0.3l1-0.3v-0.9
	l0.2-0.1h1.2l1.3-0.7l0.8-0.6l0.4-0.8l0.3-1.2l-0.8-0.4l0.3-0.6l0.4-0.4l0.6-0.3l1.3-0.2l-0.4,1.2l0.4,0.6l0.6,0.5l0.3,1h0.4
	l0.5-0.7l0.1-0.5l-0.8-0.4l0.4-0.3l1.6-0.9l0.9-0.3l0.9-0.4l0.7-0.8l-0.9,0.1l-1.7,0.9l-0.7-0.3l0.1-0.5l0.6-0.6l0.7-0.5h-0.8
	l-0.7,0.2l-0.5,0.3l-0.4,0.4l0.3-1.5l-0.6,0.2l-1.8,1.6l-0.6,0.7l-0.4-0.5l0.7-1.2l1-1.1l1.2-0.7l1.4-0.3l1.4,0.2l2,1l1.5,0.3h4.8
	l1.4,0.2l1.4,0.7l2.1,1.4l0.9,0.9l0.4,0.3l0.9,0.2h2.4l0.6,0.2l1.4,1.1l1.3,0.5l3.1,0.6l2.3,1.1l1.3,1l1.3,2.1l0.2,1.3l4.1,7
	l0.5,1.8l2.5,3.8l0.4,1.4l-0.4,1.5l-0.8,1.5l-0.8,1l-1.8,1.4l-4.7,2.6l-1.3,1.5l-1,0.5l-1.1,0.4l-0.9,0.2l-0.3,0.6l-1.4,3.7
	l-0.3,0.5h-2l-1.2,0.7l-2.3,1.9l-2.7,1.2l-9.6,2.5l-25.4,6.7l-1.3,0.8l-1.2,1.7l-12.7,23.8l-4,7.6l-0.7,0.8l-1.2,0.4l-2.5-0.7
	l-1.3-0.1l-1.3,0.2l-3.8,1.4l-2.9,0.2l-1.4,0.2L823-21l-0.3,0.6l-0.1,1.3l-0.2,0.7l-0.5,0.7l-1.2,1.4l-0.6,0.7l-2.3,5.8l-1.2,1.7
	l-1.3,1.2l-2.9,2l-1.8,2.1l-1.5,3l-3.3,9.3l-1.8,3l-4.1,4.8l-1.3,3.6l-0.9,1.3l-1.1,1.1l-1.1,1.4l-0.4,1.4L795,26.4L795,26.4z"/>
<path id="COL1342" class="st0" d="M204.3-116.1l-0.9,0.1l-0.4-0.6l0.8-0.8l-0.5-1.4l0.2-1.3l0.7-1.2l1-0.8l0.3,0.8L204.3-116.1z
	 M227.1-172.6l-1.2,0.3l-0.2-1.6l0.5-1.4l0.9-0.8l0.9,0.5l0.4,1.2l-0.4,1.1C228-173.3,227.1-172.6,227.1-172.6z"/>
<path id="COL1397" class="st0" d="M677.6,342.8l0.3,0.5l0.8,0.8v2.3l0.5,0.9l0.5,0.2l-0.8,1.6l-0.5,0.7l-0.1,0.6l0.6,0.2l0.4,0.9
	l-0.4,1.8l-1.2,2.9l1.1,0.3l0.3,0.5l-0.5,0.4l-1.1,0.2l-0.9,0.3l-0.2,0.6l0.5,0.7l0.8,0.3l-0.4,1l-0.1,1.2l0.2,1.3l0.3,1l-0.9,0.2
	l-0.3,0.4l0.4,1.5l-0.3,0.4l-0.9,0.8l-0.5,1.8l-1.3,2.2l-0.3,1.4l-0.2,0.3l-1.7,1.6l0.1,0.7l-0.7,0.2l-2.6-1.1l-2.4-0.7l-0.6,0.1
	l-1.4,0.2l-1.3,0.6l-2.5-0.5h-1.4l-2.5,0.8l-1.4,0.2h-0.9l-1.2,0.5l-0.6,0.5l-1.6,0.7l-0.4,1.2l-2.8,4.2l-0.6,1.5l-0.4,0.2l-0.6,0.2
	l-1-0.2l-1.5-0.7l-1.9,0.9l-0.6,0.7l-1,0.6l-1.2,0.4h-1l-0.8-0.3l-0.8,0.1l-1,0.5l-1.4,1.3l-1.6,1.8l-0.6,1.7l1.2,0.6l0.9,1.6
	l-2.1,4.1l-0.3,1l-0.1,0.9l1.1,2l0.6,1l-0.1,1.1l-0.5,1l-1.2,1.7l-1.5,2.6l-1.7-1.7l-2-1.6l-1.2-1.2l-0.9-1.1l-1.3-2l-0.6-0.5
	l-0.7-0.2l-1.4-0.1l-1.8-0.5h-0.8l-1.5,0.1l-1.7-0.2l-0.3-0.5l-0.1-0.7l-0.7-1.1l-0.8-0.4l-0.2,0.3l-1.4,1.2l-0.8,0.4l-0.9,0.1
	l-0.7-0.1l-0.8-0.5l-0.3-0.7l-2.3-5.6l-0.4,0.1l-1.9,3l-0.2,0.5l-0.1,2.3l-0.2,0.7l-0.4,0.6l-1,1l-0.5,0.3l-1.5-0.3l-1.2-0.6
	L597,399l-1.6-1.2l-0.7-1l-0.4-1l-0.2-0.9l-0.1-1.1l-0.5-1l-0.9-0.8l1.5-3.8l0.9-1.4l0.3-0.2l0.5-0.1l1.2,0.1l0.4,0.1l1.2,0.8
	l0.5-2.6l1.5-2.9l0.3-1.1l-0.1-1.3l-0.1-0.4l-0.8-0.6l-0.2-1.3l0.3-0.7l1.3-1.1l0.8,0.1l1.2,0.5l1.1-0.3l0.9,1l0.9,0.4l2.2,0.4
	l1.6-0.6l1.3-1.9l0.3-0.7l-0.7-0.8l-0.4-0.6l-0.2-0.8v-0.5l-0.4-0.5l-1.9-2.1l-0.8-0.6l-0.6-0.3l-0.7,0.1l-1,0.7h-0.8l-2.6,1.2
	l-0.5,0.1l-2.5,0.3l-1.1-0.9l-0.1-0.9V368v-6.1l3.5-1.5l4.4-3.1l1-0.1l1.8,1.3l0.7,0.7l0.6,0.2l1.5-0.1l1.4,0.2l1.6-0.1l1.7,0.5
	l0.3-1.6l0.1-1.3l-0.1-1.4l-1.1-3.7v-1l0.4-2.1l-1-0.3l-0.4-0.9v-2.1v-0.2h0.8l2.2,0.8l0.8,0.2l0.8,0.6l0.3,1l0.6,0.6l2.6,1l0.4,0.2
	h1.1l3-1.6l0.7,0.3l0.6,0.5l1.5,0.5l0.3,0.4l0.2,0.7l-0.1,1.3l-0.1,0.7l0.1,0.6l0.7,0.8l0.5,0.3l0.9,0.4l0.5,0.8l1.6,4.6l0.1,1.2
	l-0.3,2.5l1.8-0.7l1.1,2.7l0.7-0.2l0.8-1.3l0.8-1l0.6-1.3l1.1-0.9l1.4-0.9l1-0.5l0.8-0.3l1.7-0.1l0.6-0.4v-0.5l2.3-2.6l0.5-1
	l-0.1-2.5l0.2-1.8l2.5-0.2l1.3-0.5l1.3-0.7l0.7-0.8l0.9-1.4l4.3-1.3l4.1-0.8l1.3,0.4l1.2,1.1l2.8,1.9l0.7,0.3l2.2-0.7l0.9-1.6
	l0.3-1.4l0.5-1.2l0.1-0.5l0.4-0.4l0.9-0.1l0.6-0.2l0.4,0.2l0.8,0.7L677.6,342.8L677.6,342.8z"/>
<path id="COL1398" class="st0" d="M785.8,412.9l-0.7,1.2l-2.3,16l-2.2,14.6l-0.2,1.6l-0.3,0.6l-0.5,0.3l-1-0.5l-1.8-1.2l-0.8-0.4
	l-0.3-0.3l-0.4-0.8l-0.8-0.6l-1.5-0.6l-8.2-2.1l-4.3,0.5l-1.7,1.3l-1.1,0.5l-1.1,0.2l-0.9-0.2l-0.8-0.4l-1-0.4l-0.8-0.4l-0.6-0.5
	l-0.3-0.5l-0.1-0.8l-1.4-3.2l-0.4-1.9V434l-0.3-0.6l-0.9-1.3l-0.8-0.9l-0.8-1.4l-0.6-0.3l-0.6-0.1h-1l-0.7-0.6l-0.7-0.9l-0.7-0.4
	l-0.7-0.2l-0.9,0.2l-0.6,0.6l-1,1.6l-0.4,0.8l-1.5,0.9l-1.6,0.7l-0.5,0.4l-0.7,0.9l-0.5,0.7l-0.1,1.4l0.9,0.9l0.8,3.6l-0.2,1.3
	l0.2,1.4l1.1,1l0.5,1.1v1l0.1,0.8l0.7,2.2l-1.9,0.1l-0.8-0.2h-1.5l-0.7,0.5l-0.6,0.6l-4.5,2l-1.2,0.2l-1.5,0.8l-0.7,1.3l-0.6,0.8
	l-1.1,0.3l-1,0.1l-1,0.2l-1.1,0.6l-1.1,1.2l-2.4,1.6l-3.3,3.2l-2.1-0.1l1.3-3.4l0.2-2.1l0.2-0.6l1.2-0.8l0.5-0.6l0.6-1l0.1-0.6
	l-0.6-1.4l-0.8-1.3l-1.6-1.9l-1-2.6l0.1-1l0.2-0.9l2.8-4.4l0.3-2.1l-0.3-0.5l-0.6-1.6v-1.8l0.2-0.9l0.5-0.6l1.2-1l0.8-1.4l0.8-1.1
	l2-3.3l0.4-0.4l1-0.5l1.3-4.4l-1.3,0.1l-1-0.8l-0.2-0.5l0.1-0.5l0.3-0.4l0.6-0.5l0.2-0.7l-0.2-0.7l-0.1-5.4l0.1-1.3l0.4-1.7
	l-1.9-0.8l-1.2-0.1h-0.7l-0.9-0.4l-0.3,0.1l0.2,0.6v0.8l-0.6,1l-0.9,0.4l-0.4,0.5l-1.4,3.3l-0.2,0.3l-1.1,0.3l-0.4,1.1l-1.2,0.8
	l0.1,0.5l-0.1,0.6h0.7l0.2,0.5l-0.3,0.5l-0.4,0.4l-1.8,0.8L707,420l0.9,1.5l0.3,0.4l0.8,0.6l0.4,0.7l0.8,2.8l-0.1,2.7l-2.5,6.8
	l1.4-0.1l0.3,0.5l-0.1,1.1l-0.7,2.5l-0.6,3.5v1.1l-0.2,1.1l-0.4,1l-0.7,1.4l-1.3,1.6v2.9l-0.8,3l-0.3,0.5l-0.4,0.2l-1.7-0.5
	l-0.7-0.3l-1.3-1.1l-0.6,0.5l-0.4,0.5l-2,5.3l0.1,1.4v0.7l0.1,1l0.4,1.3l0.1,1.5l-0.2,1.1l-0.4,1.4l-1.7,3.9l-1.7,3.1l-4.9,6.8
	l-2.4-1.8l-2.3-2.8l0.9-4.9l1.8-3.3l0.6-1.7l0.3-1.2l-0.1-0.9l-1.3-2.3l0.8-2.6l-0.5-1.1l0.2-0.9l0.2-0.8l0.5-0.8l1.2-1.3l0.9-1
	l0.1-1.6l-0.4-1.6l-0.1-0.8l-0.4-1l-0.5-0.7l-1.5-3.2l-1.2-0.9l-0.9-0.9l-0.7-0.4l-1.1,0.2l-1.8,0.7l-0.5,0.3l-0.4,0.4l-0.4,1
	l-1.1,1.5l-0.7,0.3l-0.8-0.3l-0.7,0.2l-0.7-0.2l-0.8-0.3l-2.2-2l-1.1,0.4l-0.4-1l-1.9-1l-0.1-0.8l-1.6,0.3l-1.5,0.1l-1.9,0.5
	l-1.5,0.1l-0.7-0.7l0.3-2l4.8-10.6l0.7-2.6v-2.7l-0.9-2.9l1-0.3l-0.2-0.4l-0.8-0.7l0.5-0.8l1.1-1.4l0.3-0.8l-0.2-0.5l-0.9-0.3
	l-0.3-0.4l-0.1-0.4l0.1-0.9l-1-1.4l-0.1-0.8l0.4-0.8l0.8-0.5l0.8-0.2l0.7-0.4l0.5-1.5l0.9-0.9l0.3-0.9l-0.6-3.3v-1l0.2-0.8l0.4-0.7
	l0.8-0.2l-0.3-0.6l0.3-1v-0.7l-0.8-2.3v-0.5l0.4-0.4l1.5-0.7l0.3-0.3l-0.1-0.5l-1-1.5l-0.3-0.8l0.1-1.4l0.9-4.1l-0.5-10.9l-0.4-1.5
	l-0.1-0.7l1.7-1.6l0.2-0.3l0.3-1.4l1.3-2.2l0.5-1.8l0.9-0.8l0.3-0.4l-0.4-1.5l0.3-0.4l0.9-0.2l-0.3-1l-0.2-1.3l0.1-1.2l0.4-1
	l-0.8-0.3l-0.5-0.7l0.2-0.6l0.9-0.3l1.1-0.2l0.5-0.4l-0.3-0.5l-1.1-0.3l1.2-2.9l0.4-1.8l-0.4-0.9l-0.6-0.2l0.1-0.6l0.5-0.7l0.8-1.6
	l-0.5-0.2l-0.5-0.9v-2.3l1.1-0.4l3.6-0.7l1.6-0.7l0.8-0.6l0.4-0.1l1.2,0.2l1,0.4l1,0.3l3.1,0.6l1.7-0.4l0.6-0.5l1-0.7l2-1.7l1-0.7
	l0.5,0.1l0.5,0.4l0.4,1.1l0.7,0.5l0.2,0.4l-0.1,1.1l0.2,0.6l0.5,0.7l0.1,1.4v1.2l0.3,1l0.5,0.7l0.1,0.6l-0.2,0.9l-0.6,0.7l-0.8,1.5
	l-0.2,0.8l0.1,0.7l1,1.9l2.9,2.8l0.5,1.4l-0.2,1.7l0.1,0.5l0.4,0.5l0.9-0.1l1.5,0.1l2.1,1.2l1.3,0.6l0.7,0.3l3.3-0.2v1.4l0.7,1
	l0.7,0.6l1,0.6l1.1,0.1l3.1,1.8l4.4-4l1.9-0.6l0.5-1.4v-1.3l3.7-3.8l1.5-1.3l0.6-0.3l1-0.1l0.4,0.3v3.5l3.5,1.7l1.5-0.4l1.5,1.5
	l1,0.4h0.8l0.6-0.2l0.4,0.1l0.1,0.7l0.7,1.4l2.8,2.5l0.7,0.5v0.6l0.5,0.7l-0.4,0.8l-0.4,1v0.7l0.3,0.9l0.3,0.8l1.8,1.4l1.1,0.9
	l0.3,0.5l1.1,1.8l-0.3,1.7l0.5,1.9l1.7,2.8l0.2,0.8l-0.3,1l0.2,1.4l1,1.9l-0.1,0.9l-2.7,2l0.3,2.2l-2.1,3.9v0.9l1.5,2.1l5.5,0.1
	l2,0.6l0.6,0.5l1,1.6l1,1.1l0.4,0.7l-0.2,1.1l0.1,0.4l2.6,1l1.3,2.3l0.4,0.8l0.5,0.5l0.8,0.1l1.2-0.4l1.3,0.1l0.7,0.2l0.6,0.4
	l0.2,1.9l0.5,1.2l1.5,0.1l2.7,1.1l2.8-0.2l0.9-0.5l0.5-0.5l0.2-0.6l1-1.7v-0.8l0.5-0.7L785.8,412.9L785.8,412.9z"/>
<path id="COL1399" class="st0" d="M711.7,462l-3.6-0.9l-1,0.7l-1.3,2.7l-0.9,1.5l-1.7,2l-1.3,1.3l-0.6,0.8l0.1,1.4l-0.6,1.5
	l-1.3,2.2l-4.4,5.4l-0.9,2l-0.4,0.5l-0.4,0.9l-0.6,0.3l-1.9-0.1l-2-1.8l4.9-6.8l1.7-3.1l1.7-3.9l0.4-1.4l0.2-1.1l-0.1-1.5l-0.4-1.3
	l-0.1-1v-0.7l-0.1-1.4l2-5.3l0.4-0.5l0.6-0.5l1.3,1.1l0.7,0.3l1.7,0.5l0.4-0.2l0.3-0.5l0.8-3v-2.9l1.3-1.6l0.7-1.4l0.4-1l0.2-1.1
	V443l0.6-3.5l0.7-2.5l0.1-1.1l-0.3-0.5l-1.4,0.1l2.5-6.8l0.1-2.7l-0.8-2.8l-0.4-0.7l-0.8-0.6l-0.3-0.4L707,420l1.8-1.4l1.8-0.8
	l0.4-0.4l0.3-0.5l-0.2-0.5h-0.7l0.1-0.6l-0.1-0.5l1.2-0.8l0.4-1.1l1.1-0.3l0.2-0.3l1.4-3.3l0.4-0.5l0.9-0.4l0.6-1v-0.8l-0.2-0.6
	l0.3-0.1l0.9,0.4h0.7l1.2,0.1l1.9,0.8l-0.4,1.7l-0.1,1.3l0.1,5.4l0.2,0.7l-0.2,0.7l-0.6,0.5l-0.3,0.4l-0.1,0.5l0.2,0.5l1,0.8
	l1.3-0.1l-1.3,4.4l-1,0.5l-0.4,0.4l-2,3.3l-0.8,1.1l-0.8,1.4l-1.2,1l-0.5,0.6l-0.2,0.9v1.8l0.6,1.6l0.3,0.5l-0.3,2.1l-2.8,4.4
	l-0.2,0.9l-0.1,1l1,2.6l1.6,1.9l0.8,1.3l0.6,1.4l-0.1,0.6l-0.6,1l-0.5,0.6l-1.2,0.8l-0.2,0.6l-0.2,2.1L711.7,462L711.7,462z"/>
<path id="COL1400" class="st0" d="M628.7,414.1v0.5l-1.8,3.3l-0.4,1.6l-0.8,1.2l-3.2,1.7L621,424l-0.5,0.7l-1.2,3.2l-2,2.5l-1.5,3.2
	l-0.5,4.6l-0.8,4.3l-0.8,1.2l-1.6,2.4l-1.5,1.1l-0.4,1.2l-1.4,1.9l-0.5,1l-1.1,1.9l-3.5,4l-1.3-0.6l-1.2-0.8l-2.1-0.7l-0.3-0.4
	l-0.2-0.5l-0.1-1l0.1-1.2l0.4-0.8l0.2-1.1l-0.1-1.2l0.2-0.6l0.6-1.5l0.8-1.3l1.1-2.5l0.1-0.4l-0.1-0.9V439l0.2-0.2l-1.5-3.2l-3-1.2
	h-1.2l-1.2-0.5l0.4-1.4l0.4-0.5l0.7-0.5l-0.5-1.2l-0.1-5.1l0.5-1.7v-0.6l0.6-0.9l-0.1-0.9l2.5-3.5l4.6,0.7l0.7-0.3h2l0.5-0.6
	l-0.1-1.1l-0.3-1.9l0.8-0.5h0.5l1.8,1l0.6,0.1h6l2.5,0.3l2.4,1.8l0.8,0.1l0.9-0.5l1.1-0.1l0.9-0.4l0.4-0.3l0.9-0.3l0.7-0.6
	L628.7,414.1L628.7,414.1z"/>
<path id="COL1401" class="st0" d="M597.3,361.9v6.1v0.8l0.1,0.9l1.1,0.9l2.5-0.3l0.5-0.1l2.6-1.2h0.8l1-0.7l0.7-0.1l0.6,0.3l0.8,0.6
	l1.9,2.1l0.4,0.5v0.5l0.2,0.8l0.4,0.6l0.7,0.8l-0.3,0.7L610,377l-1.6,0.6l-2.2-0.4l-0.9-0.4l-0.9-1l-1.1,0.3l-1.2-0.5l-0.8-0.1
	l-1.3,1.1l-0.3,0.7l0.2,1.3l0.8,0.6l0.1,0.4l0.1,1.3l-0.3,1.1l-1.5,2.9l-0.5,2.6l-1.2-0.8l-0.4-0.1l-1.2-0.1l-0.5,0.1l-0.3,0.2
	l-0.9,1.4l-1.5,3.8l0.9,0.8l0.5,1l0.1,1.1l0.2,0.9l0.4,1l0.7,1l1.6,1.2l0.2,0.5l1.2,0.6l1.5,0.3l0.5-0.3l1-1l0.4-0.6l0.2-0.7
	l0.1-2.3l0.2-0.5l1.9-3l0.4-0.1l2.3,5.6l0.3,0.7l0.8,0.5l0.7,0.1l0.9-0.1l0.8-0.4l1.4-1.2l0.2-0.3l0.8,0.4l0.7,1.1l0.1,0.7l0.3,0.5
	l1.7,0.2l1.5-0.1h0.8l1.8,0.5l1.4,0.1l0.7,0.2l0.6,0.5l1.3,2l0.9,1.1l1.2,1.2l2,1.6l1.7,1.7l-0.8,5.6l-1.5,0.9l-0.7,0.6l-0.9,0.3
	l-0.4,0.3l-0.9,0.4l-1.1,0.1l-0.9,0.5l-0.8-0.1l-2.4-1.8l-2.5-0.3h-6l-0.6-0.1l-1.8-1h-0.5l-0.8,0.5l-4.6-0.7l-2.6-0.8l-0.7-0.1
	l-1.5,0.3l0.6-1.4v-0.6l-0.2-0.8l-0.6-0.3l-0.9,0.2l-1,0.9h-0.6l-1-0.1l-0.7-0.5l-0.4-0.6l0.1-1l-1.1-1.9l0.7-0.5l0.4-0.9l0.2-1.5
	l-0.3-0.5l-0.9,0.5h-1.7l-0.6-0.2l-0.5-0.3l-0.4-0.7V401l-2.4-2.1l-0.8-1.3l-0.4-0.8l-1.9-3.7l-0.5-0.5l0.1-3.3l-1-1.7l0.1-2
	l-0.7-2.4l-5.5-9.1l-0.2-2.9l1.2-3.8l1.3-1.1l3.5-2.1l0.8-3.7l0.1-1.8l2.5-2.7l2,1l0.8,1.6l1.3,1.2l1.5,0.9l2.3,0.9l3.1,0.5
	L597.3,361.9L597.3,361.9z"/>
<path id="COL1402" class="st0" d="M671.8,375.3l0.4,1.5l0.5,10.9l-0.9,4.1l-0.1,1.4l0.3,0.8l1,1.5l0.1,0.5l-0.3,0.3l-1.5,0.7
	l-0.4,0.4v0.5l0.8,2.3v0.7l-0.3,1l0.3,0.6l-0.8,0.2l-0.4,0.7l-0.2,0.8v1l0.6,3.3l-0.3,0.9l-0.9,0.9l-0.5,1.5l-0.7,0.4l-0.8,0.2
	l-0.8,0.5l-0.4,0.8l0.1,0.8l1,1.4l-0.1,0.9l0.1,0.4l0.3,0.4l0.9,0.3l0.2,0.5l-0.3,0.8l-1.1,1.4l-0.5,0.8l0.8,0.7l0.2,0.4l-1,0.3
	l0.9,2.9v2.7l-0.7,2.6l-4.8,10.6l-0.3,2l0.7,0.7l1.5-0.1l1.9-0.5l1.5-0.1l1.6-0.3l0.1,0.8l1.9,1l0.4,1l1.1-0.4l2.2,2l0.8,0.3
	l0.7,0.2l0.7-0.2l0.8,0.3l0.7-0.3l1.1-1.5l0.4-1l0.4-0.4l0.5-0.3l1.8-0.7l1.1-0.2l0.7,0.4l0.9,0.9l1.2,0.9l1.5,3.2l0.5,0.7l0.4,1
	l0.1,0.8l0.4,1.6l-0.1,1.6l-0.9,1l-1.2,1.3l-0.5,0.8l-0.2,0.8l-0.2,0.9l0.5,1.1l-0.8,2.6l1.3,2.3l0.1,0.9l-0.3,1.2l-0.6,1.7
	l-1.8,3.3l-0.9,4.9l-0.3,1l-4.2,3.8l-2.7,1.8l-0.8,0.9l-0.6,0.8l-0.7,1.5l-0.5,0.6l-0.9,0.3l-0.3,0.3l-0.4,0.7l-0.3,0.6l0.1,0.8
	l0.2,0.5v0.7l-0.3,0.5l-0.8,0.9l-0.6,0.4l-0.6,0.5l-0.4,0.8l-0.3,1.5l0.1,1l0.3,0.9l0.1,0.7l-0.4,0.8l-1.4,1.2l-1.3,1.7l-2.6,3.7
	l-3.6,3.6l-3.8,0.7l-3.2-0.2l-3.1-0.8l-0.5-0.5l-0.3-0.6l0.4-1.6l0.2-0.8l0.1-1.2l0.1-0.4l0.6-0.8l0.2-0.6v-0.7l0.5-1.5l0.3-0.7
	h-6.6l-1.1,0.3l-0.4,0.5l-0.8,0.4l-0.6,0.7l-0.1,1.1l-1.3-0.5l-0.4-0.8l-0.6-0.1l-0.8,0.2l-0.9,0.9l-0.5,0.7l-0.8,0.7l-1-0.8
	l-0.9-0.5l-1.4-0.9l-0.6-0.4L633,502l-2,0.3l-0.7,0.5l-0.9,1.2l-0.5,0.3l-1.3,0.4l-0.6,0.2l-0.7,0.6l-0.8,0.2h-0.6l-1.3-0.3
	l-0.8,0.1l-1,0.9l-1.3,2.1l-2,2.6l-1.9,3l-1.5,3.1l-0.2,2.6l-1.7,1.7l-0.5,2.2l-1.2,1.5l-6.6,5.4l-2.5,2.7l-1.5,3l-0.6,0.8l-1,0.2
	l-1.8-0.1l-5.4-1.9l-1.3-0.7l-1.4-1.3l-1-0.1h-0.8l-2,1.4l0.1-4.5l-1-2.7l-1.4-1.2l-0.9-1.3l-1-0.4l-1.3-1.1l0.1-1.5l0.2-0.6
	l0.7-0.6l0.4-1.9l-0.2-1.2l0.2-1.5l1.1-0.6l0.7-1l0.1-3.7l0.2-0.8l0.4-0.5l0.5-0.4l0.3-0.4l-0.2-0.7l-0.5-0.6l-0.8-1.7l0.9-1.8
	l0.1-1.7l0.1-2.2l0.4-1.3l0.7-1.7l0.3-1l0.4-1l0.8-1l0.4-1l0.5-0.8l0.1-0.9l-0.1-1.3l0.6-3.7l0.6-1.3l0.5-0.8l0.7-2.4l0.3-0.2
	l1.2-1.5l0.2-0.4l0.8-1.7l4.5-6.8l1.5-3.7l1-2l0.7-1l0.9-2.6l0.5-0.8l0.8-0.5l2.1-1v-0.7l-1.1-1.7l3.5-4l1.1-1.9l0.5-1l1.4-1.9
	l0.4-1.2l1.5-1.1l1.6-2.4l0.8-1.2l0.8-4.3l0.5-4.6l1.5-3.2l2-2.5l1.2-3.2l0.5-0.7l1.5-1.6l3.2-1.7l0.8-1.2l0.4-1.6l1.8-3.3v-0.5
	l0.8-5.6l1.5-2.6l1.2-1.7l0.5-1l0.1-1.1l-0.6-1l-1.1-2l0.1-0.9l0.3-1l2.1-4.1l-0.9-1.6l-1.2-0.6l0.6-1.7l1.6-1.8l1.4-1.3l1-0.5
	l0.8-0.1l0.8,0.3h1l1.2-0.4l1-0.6l0.6-0.7l1.9-0.9l1.5,0.7l1,0.2l0.6-0.2l0.4-0.2l0.6-1.5l2.8-4.2l0.4-1.2l1.6-0.7l0.6-0.5l1.2-0.5
	h0.9l1.4-0.2l2.5-0.8h1.4l2.5,0.5l1.3-0.6l1.4-0.2l0.6-0.1l2.4,0.7l2.6,1.1L671.8,375.3L671.8,375.3z"/>
<path id="COL1403" style="fill: #e4ae00" class="st0" d="M744,622.4l0.5,1.8l0.1,0.9l6.8,10l1.1,1.1l3.4,2.6l1,1.1l1,1.9l1,1.2l0.6,1.1l0.8,2.2l0.1,0.9
	l0.1,1.5l0.2,1.6l3.4,3.9l6.8,6l1.8,2.3l2.5,0.8l0.8,0.5l0.4,0.8l0.4,1l0.7,1l1.3,0.9l1.4,0.9l3.6,1.1h1.3l1-0.1l1-0.4l1.5-1l1-1.6
	l1.5-1.2l1.4-1.5l1-0.9l2.1-0.9l0.9-0.6l0.4-0.8l0.3-0.9v-0.8l-0.3-1.3l0.2-0.7l0.5-1.2l0.2-1.1l0.2-0.7l0.9-1.1l0.5-0.2l1.2-0.3
	l0.3-0.3l0.2-0.6l0.5-0.2l0.8,0.3l1.1,0.7l0.9,1.2l1,0.8l1.5-2.3v-0.6l2.4-0.5l2.2,0.9l1,0.6l1.9,1.7l5.5,3.6l1.7,0.5l2.2,0.3
	l0.9,0.4l3.1,2.9l0.7,1.1l0.3,1.2l0.1,2.1l0.2,1.1l0.4,0.9l0.7,0.5l1.1,0.1l0.9,0.3l0.5,1.3l0.2,2.1l0.3,0.4l0.7,0.3l0.7-0.2
	l0.5-0.5h0.5l0.5,1.4l-0.1,1l-0.3,1.2l-0.1,1.1l0.7,0.7l1.9,0.6l0.6,0.6l1.2,2.7l0.5,0.6l4.6,0.3l1.2,0.3l3.1,1.1l0.5,0.4l0.4,0.6
	l0.4,1.4l0.6,0.4l2.8,0.3l1.1,0.6l0.8,1.5l0.4,2.7l0.5,1.1l1,0.8l0.5-0.2l0.3-0.6l0.5-0.2l1.1,0.7l0.8,1l0.4,1l-0.1,1.1l-0.6,0.9
	v1.6l2.2,1.7l2.6,1.6l1.5,1.3l-0.1,1l-0.3,1.2l-0.2,1.1l0.3,0.9h1l2.1-1.4l1,0.2l0.7,1.2l0.5,1.2l0.8,0.9l1.5,0.5l0.8,0.6l1.4,2.4
	l0.8,0.9l6.8,3.2l3.4,2.2h0.8l0.7-0.4l1.1-0.4l0.6,0.1l1.2,0.4l0.6,0.1l0.7-0.1l2.1-0.6l0.8,0.2l1.5,1l2.3,0.8l2.1,1.9l-4.5,4.5
	l-3.5,1.9l-12.4,5.5l-4.3,2.9l-2.5,2.9l-0.8,2.9l-1,2.1l-1.4,1.4l-2.1,0.9l-2.6,0.5l-9.2-0.1l-2.1,0.3l-1.6,0.8l-2.6,2.5l-3.6,1.9
	l-1,1.1l-2.1,3.5l-1.2,1.6l-1.5,1.5l-1.2,1.8l-0.4,2.1v2.4l0.1,1.9l-0.3,1.7l-0.8,0.8l-1.8,1.5l-3,0.5l-2.3-1.5l-2.1-2.1l-2.1-1.3
	l-1.7,0.7l-2.1,1.9l-3.2,3.6l-0.9,1.5l-0.7,0.9l-1,0.1l-1.7-0.8l-1.7-1.1l-7.1-5.8l-2-0.8l-1.9,0.4l-2.5,1.6l-4.6,0.9l-7.6-5.1
	l-4.1,2.9l-1.5,1.6l-1.6,0.5h-1.8l-2.3,0.5l-2.7-0.2l-2.6-2l-2.5-2.5l-2.2-1.7l-1.2-0.4l-0.6,0.2l-0.6,0.5l-1.1,0.7l-1.5,0.2
	l-3.1-0.1l-3,0.2l-5-0.8l-0.9-0.5l-0.5-0.9l-0.8-2l-0.6-0.5l-0.7-0.1l-1.6,0.1l-0.5-0.1l-0.5-0.4l-0.1-0.5l0.3-1.3l-0.1-0.4
	l-0.4-0.4l-0.8-0.1l-0.4-0.2l-1.9-1.2l-1.2-0.5h-1l-1.9,1l-0.9,0.4h-1.2l-5.1-1l-5.3-1.5l-3.2-1.4l-1.4-1l-2.2-2.6l-3.7-2.7
	l-1.2-0.6l-1.2,0.3l-1.1,0.5h-1.2l-0.4-0.5l-0.3-1.3l-0.3-0.5l-0.6-0.3l-1.5,0.1l-0.7,0.1l-0.5,0.2L706,747l-0.8-0.4l-0.5-0.6
	l-0.3-0.6l-0.6-2l-0.2-1l-0.4-0.7l-0.7-0.5l-2.4-1.2l-1.4-0.3l-2.3,0.9h-1.1l-0.6-0.8l-0.1-1l-0.2-1l-1.2-0.5l-1,0.4l-0.7,2l-1,0.5
	l-1.1-0.3l-0.6-0.4l-0.6-0.2l-1.2,0.3l-1.1,0.1l-1.3-0.2l-1.4-0.4l-0.9-0.5l-0.4-0.6l-0.4-1.5l-0.4-0.5l-0.5-0.3h-1l-1.1-0.2
	l-0.6,0.1l-0.4-0.3l-0.3-0.9l-0.3-1.7l-0.8-1.4l0.1-0.5l0.4-0.5l0.9-1.7l0.4-0.5l-0.3-0.4l-1.3-0.4l-0.9-0.6l0.2-0.8l0.6-0.8
	l0.4-0.8l-0.4-2.8l-1.6-2l-2.4-1.3l-7.6-1.4l-4.3-2.4l-2.9-0.9l-0.5-0.7l-0.3-2.3l-1-3.1l-0.1-0.9l0.4-4.6l-0.7-1.8l-2.6-0.5
	l-1.3,0.4h-0.6l-0.7-0.1l-0.2-0.4l-0.2-1.1l-0.2-0.4l-0.9-0.4h-0.7l-1.7,0.7l-2.3,0.5l-1.4-0.5l-1.1-1.4l-0.9-2.3l-0.2-1.2l0.4-2.2
	V690l-0.4-1.1l-1.6-1.9l-0.6-1l-0.1-0.7l0.2-1.3l-0.3-0.7l-0.6-0.6l-0.7-0.5l-1.6-0.7l-1.3-0.3l-3.8,0.5l-5.7-0.4l-2.7-1l-4.1-4.3
	l-2.7-1.3l-3.1-0.4l-4.6,0.4h-1.2l-1.2-0.4l-1.2-0.8l-1.3-0.7l-2.7-0.3l-1.2-0.6l-3.7-4.4l-0.8-1.5l-0.1-1.1V664l-0.3-0.9l-1-0.7
	l-1.1-0.3l-2.6,0.2h-1.2l-1.8-0.8l-1-0.2l-0.9,0.2l-6.6-6l-0.7-0.2l-2.6,0.5l-3.1-0.6l-1.2-0.7l-0.8-0.9l-0.8-1.6l-0.1-0.8l0.8-8.8
	l0.2-0.8l1.3-1.7l0.5-1.1l0.4-2.3l1.5-3.3l4.2-6.6l1.3-0.9l4.3,0.7l3.4,0.1l1.7,0.3l1.7-0.3l1.4-0.6l1.2-1.2l1.1-1.4l1.2-1.2
	l3.5-2.5l1-1l0.9-1.6l1.3-1.5l4.4-4.8l3.3-4.5l4.5-6.7l5.1-4.6l5.1-8.1l2.1-3.5l1.5-2.8l1.4-1.2l3.1-2.2l0.7-0.4l2.5-2.8l1-1.4
	l0.9-2l2.2-7.6l1-1.5l0.8-0.8l0.7-0.2l0.8,0.1l2,1.1l0.8,0.3l2.2-0.7l5.7-4.4l2.3-2.6l0.5-1.2l-0.5-2l-1.5-1.6l-1.6-1l-0.6-1.7
	l0.4-1.3l0.8-2.1l1.3-2.4l3-3.8l3.6-3.3l0.6-0.3l1.1-0.4l6.7,2.2l3.2,0.4l1.3,0.4l1.2,0.7l0.9,0.8l0.6,1l1.9,5l1,1.5l1.3,1.2l1.3,1
	l0.8,1.3l0.1,2.4l-3.8,14.9l-0.4,3.4l-0.1,2.1l0.3,2.4l0.6,1.9l1.1,1.7l4.1,4.6l1,1.5l0.7,1.4v1.4l-0.4,1.2l-1,1.4l-1.5,1.6
	l-1.3,1.7l-0.7,2.1v2.3l0.6,3.1l1.5,3.2l2.3,2.9l2.7,1.9l39.8,14l1.9,0.3h2.5l6.4-0.5L744,622.4L744,622.4z"/>
<path id="COL1404" class="st0" d="M466.2,558.2l-2.2,0.1l-2-0.5l-1.2-0.6l0.5-0.4l-0.5-0.5l1.4-1.4v-0.8l-0.9-0.5l-1.2-0.1l-1-0.7
	l-0.5-1.4l0.3-1.2l0.9,0.1l1,0.6l2.5,3.3l1,0.8l2.3,1.3l1.1,0.9L466.2,558.2L466.2,558.2z M461.9,549.1l0.8,0.3l0.2-0.5l0.7-0.5
	l1.8,1.9l0.3,0.5l0.3,1.3l0.3,0.5l2.6,2l0.9,1l-0.3,1l-1.2,0.1l-1.7-0.9l-3-2.3l-1.9-2.4l-0.4-0.8l-0.2-0.8l-0.1-0.8l0.2-0.3
	L461.9,549.1L461.9,549.1z M440.3,534.3l-1,0.3l-0.8-0.3v-0.7l1-0.1l0.4-1l0.3-1.3l0.5-0.7l1-0.8h0.5l-0.1,1l-0.1,1.8l-1,1.2
	L440.3,534.3L440.3,534.3z M585.6,534.6l0.5,1.2l8.8,7.7l1.8,2.1l0.9,0.8l1.1,0.4l1.2,0.9l0.8,1l0.8,1.8l0.9,1.6l-1.4,4.7l-1.3,2.7
	l-0.1,2l1.9,3.7l-1.7,0.9l-0.8,0.8l-0.8,1.4l-2.3,0.1l-1.3-0.6l-2.2-2l-2.4-1.7l-0.9,0.3l-1.6,1.9l-1.6,1.4l-1.6,1.1l-4.8,2.4
	l-2.2,0.9l-5.3,1.4l-1.7-0.1l-1.3-0.2l-3.7-2.9l-1-1l-2.1-0.4l-0.9,3.6l2.4,5.3v1.1l-0.5,0.7l-0.3,0.7l-0.9,2.6l-1,1.7l-0.7,0.4
	l-0.9,1.1l0.1,1.2l0.2,1l-0.2,0.4L559,589l-0.9,0.3l-1,0.3l-1.3-0.3h-1.2l-1-0.1l-0.8-0.5l-1.2-0.2l-0.9,0.5l-1.1,1.4l0.1,3.1l0.2,2
	l-0.2,0.7l-1.8,1.7l-0.5,1.2l-0.1,0.8l0.2,2.9l1.4,2.5l4.9,3.8l3.5,4.5l2.9,4.7l1.8,1.8l2.4,1.4l5,1.5l1.1,0.6l2.4,0.9l2.6,0.1
	l2.4,1.1l-1.3,0.9l-4.2,6.6l-1.5,3.3l-0.4,2.3l-0.5,1.1l-1.3,1.7l-0.2,0.8l-0.8,8.8l0.1,0.8l0.8,1.6l0.8,0.9l1.2,0.7l3.1,0.6
	l2.6-0.5l0.7,0.2l6.6,6l-0.8,0.7l-0.3,0.8l-0.6,0.7l-1.2,0.2l-2.1-0.1l-0.9,0.2l-1,0.5l-0.8,0.5l-0.6,0.6l-0.7,0.4l-1,0.3l-9.5-0.3
	l-2-0.4l-2.7-1.3l-4.8-1.5l-1.3-1l-1.7-2.4l-0.6-2.9l0.2-5.9l0.4-1.2l1.1-2.3l0.3-1.1v-0.9l-0.3-0.9l-0.8-2l-1.2-1l-0.1-0.7l-1.3-2
	l-1.1-1.5l-2.3-0.9l-1.1-0.7l-1.1-0.4l-1.1,0.3l-3.5,5.3l-1.5,1.7l-1.8,1l-1.8,0.4l-5.4-0.3h-2.2l-0.1-2.6l-0.7-3.3l-0.3-5.7
	l0.3-1.2l3.2-2l0.7-0.8l0.8-0.9l0.3-0.7l0.3-1.4l0.1-0.7l-0.1-0.5l-0.6-0.9l-0.7-0.5l-1.9-2.9l-2.1-3.3l-1.1-0.5l-2.2,0.6l-2.7,0.4
	l-2.1,0.6l-0.4,0.2l-1.4,1.2l-0.7,0.6l-0.5,0.3l-0.7,0.1h-0.7l-1.2-0.4l-1.1-0.9h-0.5l-1,0.4h-1.1l-3.4,1.2l-0.7-0.3l-0.6-0.4
	l-0.9,0.2l-4-1.2l1.7-4l0.2-1l0.1-1l-0.3-1.1v-0.9l0.2-0.6l0.9-2.6l2.4-2.1l0.6-1.1l0.2-1l0.4-0.3l1.1-0.3l0.2-0.4l0.8-1.9l-1-1.7
	l-1.2-0.7l-0.8-0.3l-0.9-0.5l-4-3l-0.6-0.6l-0.3-0.6l0.7-2.1l1-1.6l0.2-2l-0.8-1.1l-5.9-2.8l-1.3-0.4l-0.7-0.1h-1h-0.8l-1.2,0.2
	l-0.7,0.3l-0.8,0.8l-1.2,0.4l-1.9,0.2l-1.8,0.4l-0.5,0.2l-1.1,0.9l-2,0.8l-2.1-0.1l-3.1,1.2H472l-1.5-0.2l-2.4-0.8l-2.1-0.5l-2-0.9
	l-0.6-0.6l-0.3-0.6l-0.2-2.2l-0.2-0.6l-4.8-7l-1.2-2.8l-0.1-0.6l0.2-1.2l0.8-2.3l0.2-0.9l0.1-0.7l-0.1-0.7l-0.9-2.4l-0.3-1.5
	l-0.1-1.3l-2.1-2.2l-6.1-4l0.7-0.5h1.6h1.3h1.1l2.3-1.5l1.3,0.1l1,0.9l0.7,1.3l0.5,0.7l0.7,0.2l1.3-0.4l-0.6,1.1l-0.6,1.4l0.1,1.2
	l1.3,0.5l0.8,0.1l1.4,0.3l0.9,0.1l1.7-0.4l0.8-0.1l1.6-0.3l1.2-1l0.6-1.2v-1.2l-0.4-0.8l-0.8-1.2l-1-0.9l-1-0.3v-0.4h1.4v-0.6
	l-0.9-0.1l-0.4-0.5v-0.6l0.3-0.6l-0.7-0.2l-0.2-0.4l0.1-0.6l0.4-0.6l-0.9-0.3v-1.1l1.2,0.5l0.9-0.4l0.8-0.7l1-0.4l1-0.2l0.4-0.3
	l-0.3-0.3l-0.5-0.1l-1.1,0.5h-0.6l-1-0.7l0.2-0.4l0.8-0.5l0.4-0.5l1.5,0.4l1.3,0.1l0.9-0.2l0.7,1l0.2,0.4h0.5l-0.7-1.5l-2.4-0.6
	l0.8-1.2l1-0.6l1-0.1l0.9-0.2l0.8-0.9l1.2,0.5l0.3,0.4l0.3,0.5l0.3-1.6l-1.4-0.5l-2.1,0.3l-1.4,0.8l-0.4-1v-1.5l0.4-1.4l0.9-0.7
	l0.9,0.1l0.6,0.6l0.6,0.6l0.7,0.6l0.7,0.2l0.7-1.2l0.9-0.8v-1l-0.2-0.4l-1-0.2l-0.2-0.3v-0.4l0.3-0.2l0.4-0.9l0.5-0.2l-0.3-0.7
	l-0.4-0.2l-1.1-0.1l-0.3-0.6l-0.2,0.7l0.2,0.2l-0.7,0.5L475,531l-0.6-0.2l-0.2-0.8l-1.7,1.5l-0.6,0.4l0.1-0.9l2.4-2.9l1.6-2.2l1-1
	l5.1-4.4l2.1-3.9l1-0.3l1.1,0.4l0.2-0.6l0.3-1.3l1,0.1l0.4-0.4l-0.3-0.7l-1.1-0.5l-1,0.4l-1.5,0.2l-0.2-0.6l0.8-1.1l1.6-1.4l1.1-0.7
	l1.6-0.6l2.8,2.7l0.3,0.2l1,1.7l0.7,0.8l0.2,0.7l0.2,0.9l0.2,0.5l0.9,1.4l0.5,0.3l1-0.1l1.2-0.5l0.8-0.1l1.7,0.8l0.1,0.3l-0.3,0.4
	l0.1,0.3l0.5,0.4h0.8l1,1.3l0.2-0.4l0.4,0.4l0.5,0.1l0.7-0.2l1.9-1.7l0.6-0.6l0.8-0.7l0.4-0.1l1,0.1l1.1-0.8l1.4-0.5l1.2-0.2
	l3.1,0.6l3.3,1l0.5,0.3l1.1,1l0.4,0.6l0.7,0.3l3.9,2.1l2,0.6l1.2,0.2l1-0.2l1.2-0.3l0.5-0.4l1.2-1.3l2.2-4l0.8,0.9l3.6,2.4l1.4,1.3
	l1.3,0.6l0.9,0.1l0.5-0.3l0.9-0.9l0.4-0.1l0.5,1l0.6,0.6l0.8,0.2l0.4-0.6l0.6-0.8l0.8-0.3l0.5,0.1l1.1,0.8l1.1-1l0.4-0.6l0.6-1.5
	l0.5-0.5l0.8-0.3l1.7-0.4l0.7-0.3l0.7-0.7l0.6-1l0.3-1.1l0.1-2.3l-0.3-0.6l-0.9-0.9l-0.2-0.6l0.3-0.5l1.4-1.7l2.6,1.3l3,0.6l6.6,0.5
	l1.8,0.6l2.5,1.8l1,0.4l4.3,0.9l2.5,1l-1.1,0.6l-0.2,1.5l0.2,1.2l-0.4,1.9l-0.7,0.6l-0.2,0.6l-0.1,1.5l1.3,1.1l1,0.4l0.9,1.3
	l1.4,1.2l1,2.7L585.6,534.6L585.6,534.6z"/>
<path id="COL1405" class="st0" d="M688.9,482.4l-0.3,1.9l-1.5,3.7l-1.4,2.5l-5,6.7l-0.8,2.3l-0.3,2.8l-0.3,5.6l-0.3,2.2l-0.7,2.2
	l-2,3.4l-1.2,1l-3.2,2.1l-1.7,1.8l-2,0.9l-1.5,1.1l-0.7,0.9l-2.3,4l-1.8,5.2l-0.1,0.4l-1.1,0.4l-0.6,0.3l-3.6,3.3l-3,3.8l-1.3,2.4
	l-0.8,2.1l-0.4,1.3l0.6,1.7l1.6,1l1.5,1.6l0.5,2l-0.5,1.2l-2.3,2.6l-5.7,4.4l-2.2,0.7l-0.8-0.3l-2-1.1l-0.8-0.1l-0.7,0.2l-0.8,0.8
	l-1,1.5l-2.2,7.6l-0.9,2l-1,1.4l-2.5,2.8l-0.7,0.4l-3.1,2.2l-1.4,1.2l-1.5,2.8l-2.1,3.5l-5.1,8.1l-5.1,4.6l-4.5,6.7l-3.3,4.5
	l-4.4,4.8l-1.3,1.5l-0.9,1.6l-1,1l-3.5,2.5l-1.2,1.2l-1.1,1.4l-1.2,1.2l-1.4,0.6l-1.7,0.3l-1.7-0.3l-3.4-0.1l-4.3-0.7l-2.4-1.1
	l-2.6-0.1l-2.4-0.9l-1.1-0.6l-5-1.5l-2.4-1.4l-1.8-1.8l-2.9-4.7l-3.5-4.5l-4.9-3.8l-1.4-2.5l-0.2-2.9l0.1-0.8l0.5-1.2l1.8-1.7
	l0.2-0.7l-0.2-2l-0.1-3.1l1.1-1.4l0.9-0.5l1.2,0.2l0.8,0.5l1,0.1h1.2l1.3,0.3l1-0.3l0.9-0.3l0.5-0.3l0.2-0.4l-0.2-1l-0.1-1.2
	l0.9-1.1l0.7-0.4l1-1.7l0.9-2.6l0.3-0.7l0.5-0.7v-1.1l-2.4-5.3l0.9-3.6l2.1,0.4l1,1l3.7,2.9l1.3,0.2l1.7,0.1l5.3-1.4l2.2-0.9
	l4.8-2.4l1.6-1.1l1.6-1.4l1.6-1.9l0.9-0.3l2.4,1.7l2.2,2l1.3,0.6l2.3-0.1l0.8-1.4l0.8-0.8l1.7-0.9l-1.9-3.7l0.1-2l1.3-2.7l1.4-4.7
	l-0.9-1.6l-0.8-1.8l-0.8-1l-1.2-0.9l-1.1-0.4l-0.9-0.8l-1.8-2.1l-8.8-7.7l-0.5-1.2l2-1.4h0.8l1,0.1l1.4,1.3l1.3,0.7l5.4,1.9l1.8,0.1
	l1-0.2l0.6-0.8l1.5-3l2.5-2.7l6.6-5.4l1.2-1.5l0.5-2.2l1.7-1.7l0.2-2.6l1.5-3.1l1.9-3l2-2.6l1.3-2.1l1-0.9l0.8-0.1l1.3,0.3h0.6
	l0.8-0.2l0.7-0.6l0.6-0.2l1.3-0.4l0.5-0.3l0.9-1.2l0.7-0.5l2-0.3l0.7,0.1l0.6,0.4l1.4,0.9l0.9,0.5l1,0.8l0.8-0.7l0.5-0.7l0.9-0.9
	l0.8-0.2l0.6,0.1l0.4,0.8l1.3,0.5l0.1-1.1l0.6-0.7l0.8-0.4l0.4-0.5l1.1-0.3h6.6l-0.3,0.7l-0.5,1.5v0.7l-0.2,0.6l-0.6,0.8l-0.1,0.4
	l-0.1,1.2l-0.2,0.8l-0.4,1.6l0.3,0.6l0.5,0.5l3.1,0.8l3.2,0.2l3.8-0.7l3.6-3.6l2.6-3.7l1.3-1.7l1.4-1.2l0.4-0.8l-0.1-0.7l-0.3-0.9
	l-0.1-1l0.3-1.5l0.4-0.8l0.6-0.5l0.6-0.4l0.8-0.9l0.3-0.5v-0.7l-0.2-0.5l-0.1-0.8l0.3-0.6l0.4-0.7l0.3-0.3l0.9-0.3l0.5-0.6l0.7-1.5
	l0.6-0.8l0.8-0.9l2.7-1.8l4.2-3.8l0.3-1l2.3,2.8L688.9,482.4L688.9,482.4z"/>
<path id="COL1406" class="st0" d="M448.3,553.6l6.1,4l2.1,2.2l0.1,1.3l0.3,1.5l0.9,2.4l0.1,0.7l-0.1,0.7l-0.2,0.9l-0.8,2.3l-0.2,1.2
	l0.1,0.6l1.2,2.8l4.8,7l0.2,0.6l0.2,2.2l0.3,0.6l0.6,0.6l2,0.9l2.1,0.5l2.4,0.8l1.5,0.2h1.3l3.1-1.2l2.1,0.1l2-0.8l1.1-0.9l0.5-0.2
	l1.8-0.4l1.9-0.2l1.2-0.4l0.8-0.8l0.7-0.3l1.2-0.2h0.8h1l0.7,0.1l1.3,0.4l5.9,2.8l0.8,1.1l-0.2,2l-1,1.6l-0.7,2.1l0.3,0.6l0.6,0.6
	l4,3l0.9,0.5l0.8,0.3l1.2,0.7l1,1.7l-0.8,1.9l-0.2,0.4l-1.1,0.3l-0.4,0.3l-0.2,1l-0.6,1.1l-2.4,2.1l-0.9,2.6l-0.2,0.6v0.9l0.3,1.1
	l-0.1,1l-0.2,1l-1.7,4l4,1.2l0.9-0.2l0.6,0.4l0.7,0.3l3.4-1.2h1.1l1-0.4h0.5l1.1,0.9l1.2,0.4h0.7l0.7-0.1l0.5-0.3l0.7-0.6l1.4-1.2
	l0.4-0.2l2.1-0.6l2.7-0.4l2.2-0.6l1.1,0.5l2.1,3.3l1.9,2.9l0.7,0.5l0.6,0.9l0.1,0.5l-0.1,0.7l-0.3,1.4l-0.3,0.7l-0.8,0.9l-0.7,0.8
	l-3.2,2l-0.3,1.2l0.3,5.7l0.7,3.3l0.1,2.6l-2,1.7l-1.2,0.1l-0.5-0.6l-0.4,0.2l-0.1,0.8l0.2,1.4l-0.1,0.8l-0.3,0.6l-0.9,0.9l-0.7,0.5
	l-4.8,1.8l-1.1,0.3l-0.1,1l-0.1,2.9l0.4,3.7l0.1,0.4h0.6l0.4,0.2l1.4,1l0.8,0.3l0.3,0.3l0.2,0.6v0.6l-0.6,1.8l-3.5,7.5l-1.9,3.3
	l-1.3,0.9l-1.2,1.7l-4.2,5.2l-1.3,1.5l2.6,2.7l3.1,2.5l1.3,0.8l1,0.5l0.4,0.4l0.3,0.7l-0.1,1.1l-0.2,0.4l-0.5,0.4l-0.3,0.4v0.7
	l0.1,0.7l1.4,3.2l0.2,0.9l0.2,2.1l0.6,1.4l0.2,1.3l-0.3,0.9l-0.7,0.5l-0.3,1.5l-0.9-0.2l-1.2,0.2l-3.4,1.2l-1.4,0.1l-1.1-0.3l-1-0.5
	l-1.2-0.5l-7.2-1.4l-2.3-0.9l-1.8-1.4l-0.7-1.7l-0.3-2l-0.6-2.2l-0.5-7.1l-0.9-3.3l-2.7-0.7l-2.3,0.3l-2.5-0.9l-4.4-3.1l-1.4-2.1
	l-0.5-4.8l-2-1.6h-1.6l-5.4,2l-1.3,0.3h-1.4l-1.4-0.4l-1.6-0.6l-0.7-0.6l-0.2-0.7l0.1-0.7l-0.3-0.7l-0.6-0.7l-0.7,0.1h-0.7l-4.6-1.7
	l-4.8-0.2l-2.8-1.4l-8.7-6.6l-1.4-0.7l-4-1.1l-1.3-0.6l-1.6-1.2l-6.3-7.1l-1.2-0.9l-3.8-0.9l-1,0.1l-0.9,0.6l-0.4-1.1l-1.4-1.5
	l-0.3-0.7l-0.1-1.3l-0.6-0.2l-1,0.3l-1,0.2l-1.6-0.5l-1.3-1l-1-1.4l-0.7-1.5l-0.7-1.1l-2-1.6l-1.4-2l-3.9-2.7l1-0.5l-0.4-1.2
	l-0.8-0.7l-0.9-0.6l-0.7-0.7v-1.1l0.1-1.2v-1.3l-0.5-1l-0.4-0.2l-2.2,1l-0.5-0.6l-0.7-0.6l-0.9-0.2l-0.7-0.5l-2-1.1l-1.8-1.2l-1-1
	l-0.6-1l0.3-1.1l0.6-0.7l1-0.4l1.3-0.3l1.2-1.1l1.1-2.1l0.9-1.2l1.7-1.7l1.4-1.6l0.9-1l1.4-1.1l3.1-0.7l1.6,0.2l1.1-0.1l1.5,0.3
	l1.3,0.6l1.4,0.3l2.3,0.2l1.5,0.3l1.9,0.2l0.3,0.2l0.5,0.6l0.7,0.4l0.6,0.2l0.7-0.1l-0.1-0.9l0.4-1.6l0.9-1l0.5-1.7l-0.6-1.1l0.1-1
	l0.5-1v-0.6l-0.4-0.1l-0.5,0.8l-0.8,0.5h-1.4l-0.4-0.9V602l0.3-1.4l0.1-1l0.3-1.7l0.1-0.8l-0.3-0.6l-0.5-0.6l-0.7-0.6l-0.7-0.3
	l-0.7,0.4l-0.6,0.9l-0.6,2.2l-0.8,0.3l-0.5-0.5l-0.1-1.4l-0.2-1.8l-0.8-2.3l-0.6-3.2l-0.6-2.3l-0.2-2.9l1.6-3.5l0.5-1.7l1.8-0.8
	l0.6-1.9l2-3.6l1.4-2.9l0.8-2l1-1.1l-0.4,1.1l-0.1,1.2l0.2,1.1l0.3,1.2l1-3.1l0.5-3.2l0.8-1.4l1.2,0.3l1.7-2.1l1.7-2l1.6-2.4
	l1.5-0.5l2.6-2.5l1.7-1.1l0.8,0.1l1.4,3.4l1.1,1.7l1.3,1.9l1.6,0.1l-0.8-2.3l-0.3-1.9v-2.1l0.6-1l1-0.9l0.7,1.2l0.5,2l-0.4,1.5
	l0.7,1.1l1.1,2.7l1,1.1l0.6,0.4l2.4,1.2l1.1,0.3l0.6-0.1l1.1-0.7l1.4-0.4l0.1-0.9l-0.1-0.5l0.3-0.7v-2.4l-0.6-2.1l-0.6-1.1l-0.4-1.2
	l0.6-0.6L448.3,553.6L448.3,553.6z M439.5,550.9l1.2,0.6l1.4-0.5l1.4,0.8l0.4,1.2l0.5,0.7l0.2,0.8l-0.2,0.4l0.1,0.4l1.6,1.9l0.6,1.4
	l0.1,2.2l-0.7,1.9l-1.9,0.5l-1.5-0.9l-1.8-1.9l-1.5-2l-0.7-1.4l0.2-1l1-0.7l0.3-0.7l-0.5-0.7l-1-1.9l0.1-0.7L439.5,550.9
	L439.5,550.9z"/>
<path id="COL1407" class="st0" d="M583.6,661.5l0.9-0.2l1,0.2l1.8,0.8h1.2l2.6-0.2l1.1,0.3l1,0.7l0.3,0.9v0.9l0.1,1.1l0.8,1.5
	l3.7,4.4l1.2,0.6l2.7,0.3l1.3,0.7l1.2,0.8l1.2,0.4h1.2l4.6-0.4l3.1,0.4l2.7,1.3l4.1,4.3l2.7,1l5.7,0.4l3.8-0.5l1.3,0.3l1.6,0.7
	l0.7,0.5l0.6,0.6l0.3,0.7l-0.2,1.3l0.1,0.7l0.6,1l1.6,1.9l0.4,1.1v1.2l-0.4,2.2l0.2,1.2l0.9,2.3l1.1,1.4l1.4,0.5l2.3-0.5l1.7-0.7
	h0.7l0.9,0.4l0.2,0.4l0.2,1.1l0.2,0.4l0.7,0.1h0.6l1.3-0.4l2.6,0.5l0.7,1.8l-0.4,4.6l0.1,0.9l1,3.1l0.3,2.3l0.5,0.7l2.9,0.9l4.3,2.4
	l7.6,1.4l2.4,1.3l1.6,2l0.4,2.8l-0.4,0.8l-0.6,0.8l-0.2,0.8l0.9,0.6l1.3,0.4l0.3,0.4l-0.4,0.5l-0.9,1.7l-0.4,0.5l-0.1,0.5l0.8,1.4
	l0.3,1.7l0.3,0.9l0.4,0.3l0.6-0.1l1.1,0.2h1l0.5,0.3l0.4,0.5l0.4,1.5l0.4,0.6l0.9,0.5l1.4,0.4l1.3,0.2l1.1-0.1l1.2-0.3l0.6,0.2
	l0.6,0.4l1.1,0.3l1-0.5l0.7-2l1-0.4l1.2,0.5l0.2,1l0.1,1l0.6,0.8h1.1l2.3-0.9l1.4,0.3l2.4,1.2l0.7,0.5l0.4,0.7l0.2,1l0.6,2l0.3,0.6
	l0.5,0.6l0.8,0.4l0.5-0.1l0.5-0.2l0.7-0.1l1.5-0.1l0.6,0.3l0.3,0.5l0.3,1.3l0.4,0.5h1.2l1.1-0.5l1.2-0.3l1.2,0.6l3.7,2.7l2.2,2.6
	l1.4,1l3.2,1.4l5.3,1.5l-37.1,11.5l-0.2-1.4l-0.3-0.3h-0.9l-0.4-0.2l-0.6-0.9l-0.8-1l-0.8-0.7l-4.1-2.5l-1.8-1.3l-2.8-3l-1.9-3.2
	l-0.6-0.5l-0.8,0.1l-1.3,0.8H676l-1.7-1.6l-0.4-0.2l-1.7-0.1l-1.3-0.4l-0.7-0.1l-1.2-0.4l0.5-0.9l1.9-1.4l-2.3-4.6l-1-1.4l-1.4-1.2
	l-0.8,0.2l-1.7,2.6l-0.7,0.6l-0.7,0.1l-1.1-0.4l-2.3-0.5l-1.5-0.6l-0.9-0.7l-2.7-3l-0.4-0.4l-0.6-0.1l-1.2-0.1l-0.6-0.2l-0.8-0.7
	l-2.6-3.7l-1.3-1l-1.4-0.7l-3-0.8l-1.4-0.1l-1,0.2l-0.7,0.7l-0.2,1.3l-0.3,0.8l-0.9,1l-1,0.8l-1,0.4l-1.3-0.7l-4.3-1.6l-3.7-0.7
	l-1.3-1l-1.6-0.5l-3.9-2.4l-3.2-2.9l-1.2-0.4l-0.7-0.4l-0.9-0.9l-1-1l-1.4-0.4l-1.2,0.1l-2.9,0.7l-1.6,0.1l-1.5-0.1l-1.3-0.3
	l-1.1-0.5l-1.9-1l-2.7-2l-0.5-1l-4.1-2.5l-1.7-1.5l-0.7-1.1l-0.3-1.3l-0.4-0.8l-4.5-5.7l-0.2-0.8l-0.7-1.1l-1.5,0.2l-1.7,0.6h-1.2
	l-0.4-0.5l-0.4-1.8l-0.4-0.7l-0.5-0.2l-0.8-0.1l-1.4,0.1l-1.7-0.1l-1.4-0.4l-1.4-0.5l-1.3-0.9l-1.8-2l-0.7-0.3l-0.7,0.3l-2,1.4
	l-1.7,2l-1.3,0.4l-1.5,0.1l-0.6-0.1v0.4l-0.1,5l0.7,4.5l-1.2,0.8l-6.7,0.7l-1.7,0.9l-1,0.2l-1.3-0.5l-1.8-1.6l-1-0.8l-1-0.3
	l-3.3-0.3L539,713l-0.8,0.3l0.1,2.7h-1l-2.4-1l-0.8-0.1l-4.7,0.7l-1-0.1l-1-0.3l-1.1-0.8l-1.5-1.5l-0.7-0.5L523,712l-0.8-0.1
	l-2.7-0.1l-2-0.7l-2.6-2.9l-1.4-0.3l0.3-1.5l0.7-0.5l0.3-0.9l-0.2-1.3l-0.6-1.4l-0.2-2.1l-0.2-0.9l-1.4-3.2l-0.1-0.7v-0.7l0.3-0.4
	l0.5-0.4l0.2-0.4l0.1-1.1l-0.3-0.7l-0.4-0.4l-1-0.5l-1.3-0.8l-3.1-2.5l-2.6-2.7l1.3-1.5l4.2-5.2l1.2-1.7l1.3-0.9l1.9-3.3l3.5-7.5
	l0.6-1.8v-0.6l-0.2-0.6l-0.3-0.3l-0.8-0.3l-1.4-1l-0.4-0.2h-0.6l-0.1-0.4l-0.4-3.7l0.1-2.9l0.1-1l1.1-0.3l4.8-1.8l0.7-0.5l0.9-0.9
	l0.3-0.6l0.1-0.8l-0.2-1.4l0.1-0.8l0.4-0.2l0.5,0.6l1.2-0.1l2-1.7h2.2l5.4,0.3l1.8-0.4l1.8-1l1.5-1.7l3.5-5.3l1.1-0.3l1.1,0.4
	l1.1,0.7l2.3,0.9l1.1,1.5l1.3,2l0.1,0.7l1.2,1l0.8,2l0.3,0.9v0.9l-0.3,1.1l-1.1,2.3l-0.4,1.2l-0.2,5.9l0.6,2.9l1.7,2.4l1.3,1
	l4.8,1.5l2.7,1.3l2,0.4l9.5,0.3l1-0.3l0.7-0.4l0.6-0.6l0.8-0.5l1-0.5l0.9-0.2l2.1,0.1l1.2-0.2l0.6-0.7l0.3-0.8L583.6,661.5
	L583.6,661.5z"/>
<path id="COL1408" class="st0" d="M606.9,414.4l0.3,1.9l0.1,1.1l-0.5,0.6h-2l-0.7,0.3l-4.6-0.7l-2.5,3.5l0.1,0.9l-0.6,0.9v0.6
	l-0.5,1.7l0.1,5.1l0.5,1.2l-0.7,0.5l-0.4,0.5l-0.4,1.4l1.2,0.5h1.2l3,1.2l1.5,3.2l-0.2,0.2v2.7l0.1,0.9l-0.1,0.4l-1.1,2.5l-0.8,1.3
	l-0.6,1.5l-0.2,0.6l0.1,1.2l-0.2,1.1l-0.4,0.8l-0.1,1.2l0.1,1l0.2,0.5l0.3,0.4l2.1,0.7l1.2,0.8l1.3,0.6l1.1,1.7v0.7l-2.1,1l-0.8,0.5
	l-0.5,0.8l-0.9,2.6l-0.7,1l-1,2l-1.5,3.7l-4.5,6.8l-0.8,1.7l-0.2,0.4l-1.2,1.5l-0.3,0.2l-0.7,2.4l-0.5,0.8l-0.6,1.3l-0.6,3.7
	l0.1,1.3l-0.1,0.9l-0.5,0.8l-0.4,1l-0.8,1l-0.4,1l-0.3,1l-0.7,1.7l-0.4,1.3l-0.1,2.2l-0.1,1.7l-0.9,1.8l0.8,1.7l0.5,0.6l0.2,0.7
	l-0.3,0.4l-0.5,0.4l-0.4,0.5l-0.2,0.8l-0.1,3.7l-0.7,1l-2.5-1l-4.3-0.9l-1-0.4l-2.5-1.8l-1.8-0.6l-6.6-0.5l-3-0.6l-2.6-1.3l-1.4,1.7
	l-0.3,0.5l0.2,0.6l0.9,0.9l0.3,0.6l-0.1,2.3l-0.3,1.1l-0.6,1l-0.7,0.7l-0.7,0.3l-1.7,0.4l-0.8,0.3l-0.5,0.5l-0.6,1.5l-0.4,0.6
	l-1.1,1l-1.1-0.8l-0.5-0.1l-0.8,0.3l-0.6,0.8l-0.4,0.6l-0.8-0.2l-0.6-0.6l-0.5-1l-0.4,0.1l-0.9,0.9l-0.5,0.3l-0.9-0.1l-1.3-0.6
	l-1.4-1.3l-3.6-2.4l-0.8-0.9l-2.2,4l-1.2,1.3l-0.5,0.4l-1.2,0.3l-1,0.2l-1.2-0.2l-2-0.6l-3.9-2.1l-0.7-0.3l-0.4-0.6l-1.1-1l-0.5-0.3
	l-3.3-1l-3.1-0.6l-1.2,0.2l-1.4,0.5l-1.1,0.8l-1-0.1l-0.4,0.1l-0.8,0.7l-0.6,0.6l-1.9,1.7l-0.7,0.2l-0.5-0.1l-0.4-0.4l-0.2,0.4
	l-1-1.3h-0.8l-0.5-0.4l-0.1-0.3l0.3-0.4l-0.1-0.3L499,518l-0.8,0.1l-1.2,0.5l-1,0.1l-0.5-0.3l-0.9-1.4l-0.2-0.5l-0.2-0.9l-0.2-0.7
	l-0.7-0.8l-1-1.7l-0.3-0.2l-2.8-2.7l-0.8-0.8l0.1-1.3l0.5-0.8l0.7-0.8l0.8-0.4l0.7,0.1l1.1-0.3l1-0.1l0.3-0.2l1.3-1.2l1.5,2.8l1,1.1
	l1.7,0.7l-0.4-0.8l-2.2-2.7l-0.6-0.9l-0.1-1.2l0.3-1l0.7-0.8l0.2,0.5l0.5,0.7l0.4,0.3l0.2-0.3l-0.1-0.5l-0.8-1.1l0.4-1.4l0.6-1.2
	l0.4-1.1l-0.5-1.4h1.4l-0.4,0.6v1l0.1,0.5h0.5l0.6-0.4h1.2l0.9,0.8l0.2-0.4l-0.2-0.5l-0.5-0.4l-0.6-0.3l0.9-0.5l-1.2-0.4h-0.6
	l0.3-0.7l0.2-0.1l0.9,0.3l0.2-1l-0.9-0.3l-1.4,0.1l-1.1,0.3l0.3-1.1l0.7-0.1l1.1,0.2l0.8-0.1l-1.1-0.7l0.9-0.5l0.3-0.3l-0.3-0.7
	l1.4-0.3l1.4-0.1v0.4l-0.3,0.6h0.6l2-0.6l-1-0.2l-0.2-0.5l0.3-0.6l1.2-1.4l0.4-0.9l0.7-1.9l0.7,0.5l0.6,0.2l0.5-0.3l0.7-0.6l0.8-0.3
	l1-0.3l0.4-0.3l-1-0.3l-0.9,0.1l-0.9,0.4l-0.7-0.1l-0.3-1l1.6-0.4l1.1-0.4l0.6-0.9l-1.2,0.2l-2.8,0.7l-0.9-0.4l-0.3-1.1l0.2-1.2
	l0.4-1l1.8,1.4l1,0.3l1.5,0.1l0.2-0.4l-0.5-0.3l-0.6-0.1l-1.3-0.1l-0.4-0.3l-0.4-0.6l1.1,0.1l1-0.1l0.7-0.5l0.5-0.8l-1.1-0.7
	l-0.6-0.8l0.1-0.9l1.1-0.9l0.8,0.7l0.1,0.5v0.7l1-1l-0.4-1.4l-0.2-1.2l3.1-1l0.8-1.2l0.7-1.2l1-0.9v-0.4l-4.2,0.9v-0.5l1-0.4h-1.7
	l-0.8-0.1l-0.7-0.4l0.2,2.9l-3.9,2.3l-4.8,0.8l-2.6-1.4l0.1-0.6l1-0.5l0.2-0.5l-0.2-0.3l-1.2-0.6l-0.8-0.5l-0.5-0.2v-0.7v-0.6l0.5-1
	l0.3-1.8l0.4-0.6l0.6-0.4l1-0.1l0.7,0.2v0.5l-0.8,0.8l3.2-0.6l1-0.3v-0.5l-2.3,0.5l0.3-0.9l0.5-0.7l1.8-2.2l1.1-2.3h-1.1l-0.3-0.9
	l-1,0.3l-0.8-0.6l-0.8-0.9l-1.1-0.7l0.3,0.7l0.1,0.7l-0.1,0.8l-0.3,0.6l-0.6-0.3l-0.5-0.1l-0.6,0.1l-0.6,0.3v0.5l0.2,0.4l-0.2,0.6
	l-0.3-0.3l-1-0.2l0.2,1.2l-0.2,1.9l-0.5,1.7l-0.7,0.7l-0.2,0.4l-0.3,1.9l-0.2,0.5l-1.1,0.1l-0.8-0.6l-0.3-0.9l0.4-0.9l-3.5-2.8
	l-0.4-0.5l-0.3-1.1l0.4-1l1.4-0.1l-0.7-1l-0.3-0.5l-0.5-1.8l-0.3-2.1v-1.9l2.8-0.4l2.9-2.4l0.9-0.1l0.6,0.2l0.8,0.8l0.8,0.3l0.9-0.4
	l0.5-0.7l-0.1-1.2l0.3-0.2l1.1-1l0.7-0.9l0.5,1.1v1.7l0.2,0.7l0.9,1.1l0.6,0.4l0.5,0.1l1.1-0.7l1.5-0.5h0.7l0.6,0.1l1.3,0.9l0.8,0.2
	l2.9,3l0.8,1l0.3,0.2h1.1l1.4,0.2h0.7l0.6-0.2l0.5-0.3l0.6-0.8l0.3-0.2h0.5l0.9,0.1h0.7l0.7,0.3l0.8,0.8l2.8,4.3l1.7,0.8l2.1-0.2
	l0.9,0.2l0.4,0.7l0.7,0.4l0.9,0.3l2.1,0.9l1.2,0.1l0.9-0.3l2.2-2.1l1.2-0.9l1-1l0.7-0.3l0.8-0.1l3.3,0.9h0.8l0.5-0.3l0.1-0.9
	l0.3-0.7l1.5-2.1l1.7-1.8l1.6-0.8l1.6-0.5l1.8-1.7l0.4-1.3l-1-1l-2.8-1.5l-0.3-1.7l0.5-3.3l-0.1-0.5l-1.6-1.4l-0.6-0.9l-1.2-2.1
	l-0.1-0.5l0.4-0.2l0.8,0.2h0.5l1.2-0.3l1.9-0.6l1.4-1l0.9-3.1l-0.1-1.3l-0.5-1.1v-0.8l1-3.5l0.6-1.1l3.6-3.2l1.8-1.3l2-2.1l0.9-1.4
	l-0.2-1l-0.4-0.7v-0.8l0.4-0.9l0.5-0.9l0.5-0.6l5.5-4.7l2.7-3.2l1.9-5.4l0.6-0.9l1.1-1.1l0.7-0.5l2-1.9l0.5,0.5l1.9,3.7l0.4,0.8
	l0.8,1.3l2.4,2.1v1.9l0.4,0.7l0.5,0.3l0.6,0.2h1.7l0.9-0.5l0.3,0.5l-0.2,1.5l-0.4,0.9l-0.7,0.5l1.1,1.9l-0.1,1l0.4,0.6l0.7,0.5
	l1,0.1h0.6l1-0.9l0.9-0.2l0.6,0.3l0.2,0.8v0.6l-0.6,1.4l1.5-0.3l0.7,0.1l2.6,0.8L606.9,414.4L606.9,414.4z"/>
<path id="COL1412" class="st0" d="M660.5,37.4l-1.4-1.7l-3-3.5l-1.8-1.4l-1.5-0.4l-3-3l-3.8,0.8l-2-3.1l-1-0.6l0.6-0.9l-0.2-0.5
	l-1.1-0.4l-1.2-0.2l-2.6-0.2l-0.4-0.3l-0.3-0.6l-0.6-1.1l-0.2-0.9l0.8-2.6l0.1-1l0.6-0.5l0.7-0.4l0.4-0.7v-1.5l-0.2-1l-0.4-0.6
	l-1.4-1.1l-0.4-0.4l-0.1-0.8l0.2-0.9l0.4-0.7l0.4,0.1l0.4-0.5l1.5-1.4l-0.5-1V3.5l0.5-1.1l-0.2-1.7l-0.3-0.5l0.9-1.1l0.7-0.3h0.8
	l0.8-0.2l0.7-0.3l4.3-2.8l2.5-0.7l1.4-0.8l0.9-1l-0.1-1.1l0.3-0.7l0.3-1.6l0.3-0.6l0.7-0.4l0.9-0.4l1.2-0.1l1.3-0.5l0.9-1l1.6-1.3
	l0.1-1.2h1.9l2.3-0.2l1.1-0.9l-0.1-1.7l0.6,0.9l2.8,2.6l1.5,1.8l0.5,1l0.5,2.8l0.6,0.9l0.8,0.7l0.6,0.8l0.3,1.3l-0.3,1.2l-0.6,1.3
	l-0.3,1.6l0.1,0.8l1.1,3.1l0.2,0.6v1.4l-0.5,5.8l0.2,4.4l-0.2,1.5l-1.3,2.3l-3.9,2.7l-1.2,2.5l-0.4,3.1l-0.4,1.5l-0.8,1.2l-1.1,1.3
	L660.5,37.4L660.5,37.4z"/>
<path id="COL1413" class="st0" d="M618.9,31.7l-0.7,0.8l-1.4-0.3l-0.6,0.3l-0.2,0.9l-0.2,0.5h-0.6L615,33l-0.1-1.1l0.2-0.8l0.4-0.6
	l0.7-0.7l0.5,0.4l0.8,0.3l1.3,0.4L618.9,31.7L618.9,31.7z M660.5,37.4l-0.5,0.9l-0.5,2.4l-0.9,2.2l-0.2,1.5l0.3,1.9l0.8,0.8l1.1,0.4
	l1.3,0.9l0.5,0.2l2,0.4l0.8,0.7l0.6,0.8l0.9,2.1l0.2,0.2l0.9,0.5l0.3,0.6l-0.2,1.8l-0.4,1l-0.8,0.6l-2.4,1.2l-0.7,0.5l-0.4,0.9
	l-0.1,1.5v3.2l0.3,1.4l0.6,1.3l0.6,0.9l2.3,2.1l0.4,1.2l-0.3,1.4l-0.5,1.5l-0.3,1.3l0.2,1.4l0.6,1l1.8,1.6l0.8,1.1l0.2,1.1l-0.8,2.7
	l-1,6.1l0.4,2.6l2-0.3l0.5,0.6l1.3,1.8l0.9-0.5l0.9-0.3h0.9l0.8,0.5l0.3,0.5l0.3,1l0.3,0.4l0.4,0.1h0.9l0.3,0.1l1.1,0.6l0.5,0.5
	l0.2,0.5l0.1,0.9l0.4,0.6l0.4,0.6l0.6,0.5l2.1,1.4l1.1,1.2l0.6,2.2l0.4,0.6l0.6,0.5l0.7,0.2h0.7l0.4-0.4l0.7-1l1.1-0.6l1.1-0.1
	l2.2,0.2l0.3,0.4l0.5,1.8l0.3,0.6l0.9,0.4l0.6-0.2l0.6-0.4l0.7-0.2l1.3,0.1l1.5,0.5l1.3,0.7l0.5,0.7l0.1,1.9l0.5,0.6l2.6,0.1
	l1.2,0.8l1.8,2.8l1,1.3l2.8,1.6l0.9,0.8l-0.8,0.6l1.9,0.8l2.3,0.6l2.1-0.2l1.1-1.6l0.7,0.7l0.9,0.7l0.6,0.8l-0.4,1.1l2.2,1.2
	l5.6,0.3l1.9,0.8l-0.8,2l0.1,2l0.8,1.8l1.1,1.4l2.3,2.2l0.9,1.3l0.2,1.9l-0.3,1.4l-1.2,2.5l-0.3,1.5l0.1,4.4l0.3,1.4l0.5,0.7
	l1.2,1.5l0.2,0.8v2.3l0.3,1.6l1.5,2.7l0.5,1.6l0.5,4.8l-0.3,1l-0.5,1l0.1,0.7l0.5,0.5l0.2,0.8l-0.2,0.5l-0.5,0.8l-0.3,0.8v1.9
	l-0.1,0.7l-0.6,1.3l-0.2,0.8L736,177l-0.1,0.8l0.3,0.6l0.2,1.2l0.2,0.7l-0.1,0.6l-0.7,0.8l-0.7,0.2l-0.6,0.6l-0.5,0.7l-0.5,0.8
	l-0.3,0.1l-1.4,0.6l0.1,0.2l-0.7,1.8l-0.5,2.1l-0.1,1.3l0.1,1.3l1.2,3.8l-0.2,0.8l0.9,4.1l0.7,0.6l0.3,0.6l0.8,4.1l0.1,1.4l-0.6,3.9
	l-0.2,0.8l-0.4,0.5l-0.2,0.6l0.6,0.9l0.3,0.6l-0.1,0.7l-0.4,1.2v2.3l-0.3,1l-0.9,0.5l-0.2,0.6l-3.8,4.7l-0.3,1.1v2.6l0.1,0.7
	l0.6,0.9l0.2,0.8l-0.1,0.6l-0.8,1.9l-0.8,2.8l-0.4,2.8L705.1,260l-1.2-0.3l-2,0.2l-1.3-0.2L699,259l-0.7-1l-0.3-1.5l-0.2-1.5
	l-0.7-1.9l-0.6-2.1l-1.1-2.7l-0.5-2.1l-0.1-1.7l0.7-2.3v-2.7l-0.3-1.6l0.3-1.5l0.5-0.9l1.4-1.5l0.6-0.9l0.4-1.1l0.4-1.6l-1.2-3.8
	l-2.7,2.1l-0.7,1.2l-1.2,2.9l-0.9,1.1l-1.5,1.3l-1.3,0.3l-1.3-0.4l-1.4-1.3l-2.3-2.8l-1.3-2.9l-0.3-1.8v-2.1l0.9-5.6l0.8-1.7
	l1.5-1.1l1.5-0.9l1.2-1.2l1-1.9l0.2-1.2l-0.3-0.9l-0.8-0.5l-0.9-0.5l-0.8-1.3l-0.6-2l-0.7-6.8l-0.7-1.9l-0.7-0.8l-1.3-1.8l-1.2-2.1
	L666,179.1l0.5-1.1v-0.9l0.8-1.1l1-1.1l0.1-0.5l-0.1-0.4l-0.3-1.1l1.7-0.4l0.6-0.4l1.4-1.2l0.7-0.2l2.2,0.2l1.8-0.1l1.6-0.5l1.4-1
	l1-1.1l0.7-1.6l0.2-1.7l0.2-0.6h0.3l0.6,0.2l1.1,0.1l0.5-0.8l0.9-2.6l0.2-0.8l-0.1-1.2l-0.6-2.3l-0.2-2v-1.5l0.1-0.3l-0.8-0.8
	l-0.7-2l-1.2-7.9l0.6-1.4l1.7-1.5l0.9-1.6l0.9-0.9v-0.5l-0.4-0.7l-0.9-0.9l-3.4-5.2l-3.2-3.5l-6.4-4.9l-1.9-0.8l-2.9-1.8l-1.2-2.5
	l-1.3-2.5l-1.2-1l-0.6-0.3l-0.7-0.6l-0.3-0.6l-0.2-1v-0.9l-0.7-2.9l-0.9-1.9l-0.3-1.3v-0.8l0.3-1.3l-0.6-0.9l0.2-0.6l1.4-3.2
	l0.9-1.4l0.3-0.4l-0.3-0.5l-0.6-0.3l-1.4-1l-0.6-0.9h-0.5l-0.8,0.4l-1.6,0.4l-1.3-0.3l-1.1-0.4l-0.4-0.5l-0.2-0.6l1.4-3.2l-2-0.6
	h-1.9l-0.8-0.6l-2.9-2.5l-1.4-1.8l-2.7-2.2l-1-0.4l-0.8-0.1l-0.8,0.2l-0.9-0.1l-2-1.4l-1.2-0.4l-1-0.1l-0.9,0.4l-0.5,0.5l-1.1,1
	l-1.4-0.5l-1.3,1.1l0.7-3l0.5-0.8l0.1-1l0.1-1.2l0.3-1.3l0.7-2.1l0.2-1.1l-0.3-1.6l0.5-2.2l0.5-1.1l-0.1-1l-1.4-0.1l-0.9,0.5
	l-0.9-0.2l-5.4-1.8l-1.5-0.8l-0.5-0.7l0.2-0.6l1-1.4l0.2-0.6v-0.7l-0.6-1.2l-0.1-0.9l-0.1-2.3l-1.1,0.1l-1.2,0.4l-0.9-0.1l-0.7-0.3
	l-0.2-0.7l0.4-1l3.1-5.5l-6.5,3.5l-0.4-1.1l-0.1-1.4l0.6-0.7l1-0.4l0.3-0.4l0.7-1.5l0.7-1.1l0.2-0.8l0.1-0.7v-1.4l0.3-0.7l-2.1,1.2
	l-2.8,1.9l-2.7,2.8l-2.7,1.6l-1.3-0.2l1-2.3l1.9-1.1l1-0.6l1-1.4l0.4-0.9l0.6-0.8l0.2-0.7l-0.3-0.9l0.2-0.5h1.5l-0.4-0.6l-0.1-0.5
	l0.1-0.6l0.4-0.6l0.6,1.4l1.3-0.3l2.5-1.6l0.7-0.6v-1.6l-0.4-1.8l-0.1-1.6h-0.5l-0.5,0.4l-0.4-0.5l-0.4-1.8h-0.5l-0.4,1.1l-0.4,0.2
	l-0.6,0.1l0.3-0.5l0.3-1.3l0.3-0.5l0.4-0.4l0.8-0.4l0.5-0.4l1.9-2.2l0.6-0.4l-0.3,1.2l-0.7,1.4l-0.3,1.2l1.1,0.5l0.9-0.6l0.4-1.5
	v-1.7l-0.2-1.4l-0.2-0.3l-1.2-0.2l0.1-0.4l0.4-1L621,18l-0.2-0.6l-0.9-0.2l-0.2-0.3l0.3-0.6l0.6-0.7l0.7-0.3l0.8-0.1l0.9-0.3
	l0.7-0.4l0.6-0.6v-0.4l-0.5-0.7l0.1-0.3l1.5-0.7h0.5l0.5-0.1l0.2-0.8l0.2-0.1l0.6-0.6l0.4-0.7V9.2l0.4-0.1l1.6-0.8l4.5-1.1l0.6-0.6
	l0.7-1.1l0.5-0.6l0.4-0.1l1.1,0.5l0.1,0.4l-0.5,0.7l0.5,0.5v0.3l-0.4,0.7l-0.2,0.9l0.1,0.8l0.4,0.4l1.4,1.1l0.4,0.6l0.2,1v1.5
	l-0.4,0.7l-0.7,0.4l-0.6,0.5l-0.1,1l-0.8,2.6l0.2,0.9l0.6,1.1l0.3,0.6l0.4,0.3l2.6,0.2l1.2,0.2l1.1,0.4l0.2,0.5l-0.6,0.9l1,0.6
	l2,3.1l3.8-0.8l3,3l1.5,0.4l1.8,1.4l3,3.5L660.5,37.4L660.5,37.4z M639.5,3.5V3.1L638.4,4l-0.3,0.5l-1.3-0.7l-0.4-1.3l0.5-1.2
	l2.4-0.8l0.2-0.3l0.3,0.5l0.2,1.7L639.5,3.5L639.5,3.5z"/>
<path id="COL1414" class="st0" d="M795,26.4v1v1.3l-1.3,15l-3.5,12l-0.1,2.7l-0.5,2.6l-0.1,1.4l0.5,1.8l0.6,1.3l0.2,1.2l-0.5,1.8
	l-2.1,4.3l-3.7,5.8l-1.7,4.6l-0.7,1.3l-1.1,1.1l-2.7,1.7l-1,0.9l-1.2,3l-5.4,8l-2.3,5.8l-0.9,1.4l-1.2,1.2l-2.4,1.7l-0.8,1.3
	l-0.1,1.5l0.9,0.5h1l-3,0.7l-0.6,0.3l-1.3,2.3l0.3,2.6l-0.9,9.4l0.3,2.7v0.5l-0.5,1.9l0.9,3.4l0.5,1.6l0.1,0.7l-0.3,0.7l-1,0.9
	l-1.7,1.1l-0.4,0.4l-0.2,0.5l0.2,1.1l-0.2,0.5l-0.7,0.7l-2.4,1.9l-1,0.9l-0.9,1.4l-0.4,0.8l-0.2,0.9v1.4l0.7,1.7l1.9,2.7l1.3,3.1
	l0.4,0.2l0.5,0.9l-0.8,2.9l-1.6,1.8l-0.1,0.5l0.1,0.3l1.5,0.2l1,0.4l0.4,0.3l1,0.7l0.2,1.6l0.7,0.6l0.3-0.2l1-1.5l2-1.6l-0.4-2.6
	l-0.5-1.1l-0.3-1.1l0.3-0.8l0.6-0.1l0.9,0.1l1.6,0.2l0.7,0.5l0.5,0.4l0.2,3l-0.9,4.3l-1.1,2.4l-0.5,2l-0.8,1.3l-0.5,1.4l-0.2,1.5
	l0.3,5.3l0.9,0.6l1,2.3l0.1,1.1l-0.1,1.7l0.3,0.9l0.9,1l2.9,0.3l0.9,1.2l1.1,0.5l0.2,0.9l-0.1,0.9l-0.2,0.9l-0.9,1.2l-0.6,0.7
	l-0.8,0.6l-1.2,0.5l-0.5,0.4l-0.3,0.8l-0.3,1.2l0.2,2.4l-0.1,1.4l-0.2,0.7l-0.3,0.6l-1.5,2l-0.6,1l-0.8,0.8l-0.7,0.9l-1,0.9
	l-1.3,0.9l-2.1,1l-0.8,0.2l-0.6-0.1l-0.7-0.3l-1.3-1l-0.5-0.3l-1.3-0.3l-0.5-0.5l-0.8-0.9l-0.5-0.3l-0.7-0.3l-2.5-0.5l0.7,0.7
	l-8.5-0.4l0.1-2l0.7-1.2l-0.2-1.3l-0.2-1l0.1-0.6l0.3-0.7l1.2-1.2l1.1-0.8l1.9-1.6l0.5-1.2v-1.2l-0.4-1.2l-0.4-0.6l-0.8-0.5
	l-0.5-0.6l-0.4-0.2l-0.8-0.2l-0.6-0.7l-0.1-1.2l-2.8-4.9l-0.5-1.4l-0.1-0.9l-0.4-3.4l0.1-0.6l-0.2-0.7l-0.2-1.2l-0.3-0.6l0.1-0.8
	l0.7-0.7l0.2-0.8l0.6-1.3l0.1-0.7v-1.9l0.3-0.8l0.5-0.8l0.2-0.5l-0.2-0.8l-0.5-0.5l-0.1-0.7l0.5-1l0.3-1l-0.5-4.8l-0.5-1.6l-1.5-2.7
	l-0.3-1.6v-2.3l-0.2-0.8l-1.2-1.5l-0.5-0.7l-0.3-1.4l-0.1-4.4l0.3-1.5l1.2-2.5l0.3-1.4l-0.2-1.9l-0.9-1.3l-2.3-2.2l-1.1-1.4l1.8-5.6
	l0.7-1.2l0.7-2l1.6-2.6l-1.7-2.3l-2-2l-0.9-1.4l-0.3-1.4l-0.1-1.3l-0.3-0.4h-0.5l-1.1,0.1l-2.6-0.5l-0.9-0.4l-0.5-0.9v-1l0.7-1v-0.8
	l-0.1-0.6l-0.2-2.4l-0.3-0.5l-0.4-0.4l-1.2-1l-0.7-1.4l-0.4-3.8l-1.2-1.1l-1.4-0.8l-2.9-2.7l-3.7-2.2l2-1.4l3.2-3.8l1.2-0.7l1-0.4
	l1.5-0.2l1.1,0.2l0.7,0.2l1.1,0.1l0.5,0.1l0.9,0.7l0.6,0.3h2.5l1.3,0.1l0.5-0.3l2.8-1.6l0.5-0.1l0.4,0.2l0.8,1.2l1.1-1.4l-2.2-6.5
	l-1.7-3.2l0.4-1.1l-0.3-2.3l-2.9-2.7l-0.7-0.5l-3.9-5.3l-1.1-1l-1-0.7l-0.9-0.4l-0.7-0.9l-1.8-2.8l-2.1-3.7l-0.2-0.8v-1l0.2-0.7
	l0.6-2.2l0.4-3.2l1.2-1.6l0.7-1.5l0.7-0.7l1-1.5l2.1-2.2l0.6-1l0.7-1.8l0.5-1.2l1.3-1.3l0.9-0.8l0.9-0.3l2.4-0.5l0.9-0.3h0.6
	l1.1,0.3h0.7l2.6-0.8l2.4-1.7l0.9-0.2l1.1-0.5l0.9-1.1l0.7-0.3l0.8-0.1l0.9-0.1l0.5-0.4l0.7-1.7l0.5-0.2l1.9-0.6l1.6-0.7l0.5-0.7
	l-0.1-0.6l-0.5-0.6l-0.7-0.4l-0.3-0.3l-0.2-0.6l0.2-1V16l-0.4-2.5l-0.3-1l-0.6-1.3l1.8-3.4l0.7-0.7l1-1.4l-0.2-0.9L750.7,4l-1-0.5
	l-1.2-0.3l-1-0.1l-1,0.1l-0.6-0.3l0.4-1l2.2-3.3l0.1-0.8l10.3-1.4l4.4,0.2l1.5,0.3l1.8,0.1l2.4,0.5l1.2-0.1l0.9,0.6l0.8,1.1l0.3,1.2
	l0.3,1.8l-0.1,0.8l-0.3,0.9L772,4.5l0.5,1l2,0.6l1.8,1.1l2,0.5l2.7,1.6l2.6,2.2l0.7,1.1l-0.8,1.1l-0.3,0.8l-0.6,1.6l-0.9,1.1
	l-0.8,2.4l-0.9,0.5l-1.3,2.5l-0.8,0.4l-0.4,0.7l-0.4,0.8l1.3,0.4l0.8,0.9l0.4,1L780,28l0.6,0.3l1-0.3l1.2-0.5l1.3-0.2l1,0.2l1.2,0.5
	l1,0.2l1.2,0.1l1.2-0.2l1.1-0.3l2.6-1.1L795,26.4L795,26.4z"/>
<path id="COL1415" class="st0" d="M501.3,448.2l0.1,1.2l-0.5,0.7l-0.9,0.4l-0.8-0.3l-0.8-0.8l-0.6-0.2l-0.9,0.1l-2.9,2.4l-2.8,0.4
	l0.2-1.1l0.4-0.7l0.8-0.7l0.9-0.2l0.9,0.1l0.7-0.1l0.3-0.9l0.2-0.5l0.7-0.5l0.8-0.2l0.8,0.3l1.1,1.3l0.4,0.1l1-0.3L501.3,448.2
	L501.3,448.2z M496.8,444.6l1.3,0.6l1.4-0.1l1.4-0.3l1.3,0.2l-1.2,2l-0.9,0.8l-0.8-0.4l-1.2-1.5l-1.7,0.7l-1.6,0.2h-3.5l-1.3-0.3
	l-0.9-0.1l-1,0.2l-0.6,0.5l-0.9,1.1l-2.5,0.8l-0.3,0.2l-0.2-0.6v-0.9l0.3-0.9l0.6-0.4l0.9-0.3l1.5-1.3l0.8-0.2l0.9,0.1l1.7,0.3h0.9
	l-0.3-0.5l-1-0.7l-0.5-0.6h2.3l-1.6-0.4l0.2-0.7l1.1-0.7l1.2-0.6l-0.9-0.4h-0.5l0.5-1l1.8,1l1,0.8l0.8,1l0.5,1.1L496.8,444.6
	L496.8,444.6z M521.5,174.5v0.2l0.8,3.3l0.5,1.1l0.3,1.3l0.5,5.6l-0.4,1.4l-0.5,0.7l-0.2,1.3l-1.3,0.8l-0.5,0.7l-0.4,1l-1.3,6.9
	l-0.9,1l-1,0.7l-1.4,1.4l-1.5,1l-1.8-0.3v2.8l0.3,0.1l0.2,0.7l-0.4,0.1l-0.5,0.4l0.5,1l0.7,0.8l8.6,7.9l7,5l7,7.6l5.4,6.7l1.3,1.1
	l1.8,1.1l2.3,0.3l0.9,0.3l0.8,0.6l2.9,2.5l0.9,1.3l1.4,4.2l0.2,7.6l-0.2,1.3l-0.3,0.6l-2.2,3.7l-1.6-0.1l-0.9-0.5l-1.2-0.4l-5.5-1.4
	h-1.4l-4.3,0.4l-2,0.3l-1.3,0.5l-1,0.6l-0.3,1l0.6,1.4l0.2,0.2l0.8,0.5l0.4,0.8l0.3,1.1l0.3,2.5l-0.3,1l-0.6,0.8l-0.8,0.8l-0.3,0.4
	l-0.6,0.3l-3.2-0.3l-2.1,1.3l-0.9,0.1l-3,1l0.2,0.6v2.5l0.2,0.8l1,0.7l0.2,0.7l-0.2,0.4l-1.2,1.4l1.2,0.1l0.5,0.1l0.2,0.5v0.7
	l0.2,0.5l0.4,0.3l0.8,0.1l-0.1-0.4l0.5-0.7l0.6-0.4l0.3,0.4l-0.4,1.1v0.7l0.4,0.7l0.6,0.2l1.5,0.2l0.3,0.3l-0.2,1h-0.4l-0.4-0.3
	h-0.4l-0.6,1l-0.2,1.4l0.4,0.8l0.8-0.4l1,0.4l0.6,0.7l0.3,1v1.2l0.7,0.6l0.5,0.9l0.6,0.6l0.9-0.3l1.6,2l0.1,0.5l-0.7,0.8l-0.4,0.9
	l0.2,0.6l1.1,0.3l-0.5,0.7l-0.9,0.3l0.5,1.1l0.6,0.7l0.1,0.8l-0.7,1.1l0.9,0.4l-0.6,0.6l-0.4,1.2l-0.2,1.3l0.3,1.1l0.4,0.4l1.1,0.3
	l0.3,0.2l0.3,1.5l0.1,0.4l1.9,2l0.7,1.2l0.2,1.4l0.6,0.8l0.9,0.7l1.8,0.5l1.7,0.2l5.3-0.2l3-0.7l3.8-0.3l3.2-0.3l2.2-0.5l2.6-0.3
	h2.5l2.4,0.3l1.2,0.9l0.7,1.1l0.5,4.2l1.6,4.2l1.9,2.4l1.7,0.7h1.8l1.7,0.9l0.4,3l-1.8,4.7l-0.2,1.6l0.3,1.8l0.5,1.5l1.9,3.2
	l0.5,0.9l0.2,1.7l-0.8,2.9l-0.1,1.1l0.7,1.3l0.4,0.5l2.6,2.7l-2.5,2.7l-0.1,1.8l-0.8,3.7l-3.5,2.1l-1.3,1.1l-1.2,3.8l0.2,2.9
	l5.5,9.1l0.7,2.4l-0.1,2l1,1.7l-0.1,3.3l-2,1.9l-0.7,0.5l-1.1,1.1l-0.6,0.9l-1.9,5.4l-2.7,3.2l-5.5,4.7l-0.5,0.6l-0.5,0.9l-0.4,0.9
	v0.8l0.4,0.7l0.2,1l-0.9,1.4l-2,2.1l-1.8,1.3l-3.6,3.2l-0.6,1.1l-1,3.5v0.8l0.5,1.1l0.1,1.3l-0.9,3.1l-1.4,1l-1.9,0.6l-1.2,0.3h-0.5
	l-0.8-0.2l-0.4,0.2l0.1,0.5l1.2,2.1l0.6,0.9l1.6,1.4l0.1,0.5l-0.5,3.3l0.3,1.7l2.8,1.5l1,1l-0.4,1.3l-1.8,1.7l-1.6,0.5l-1.6,0.8
	L551,455l-1.5,2.1l-0.3,0.7l-0.1,0.9l-0.5,0.3h-0.8l-3.3-0.9l-0.8,0.1l-0.7,0.3l-1,1l-1.2,0.9l-2.2,2.1l-0.9,0.3l-1.2-0.1l-2.1-0.9
	l-0.9-0.3l-0.7-0.4l-0.4-0.7l-0.9-0.2l-2.1,0.2l-1.7-0.8l-2.8-4.3l-0.8-0.8l-0.7-0.3h-0.7l-0.9-0.1h-0.5l-0.3,0.2l-0.6,0.8l-0.5,0.3
	l-0.6,0.2h-0.7l-1.4-0.2h-1.1l-0.3-0.2l-0.8-1l-2.9-3l-0.8-0.2l-1.3-0.9l-0.6-0.1h-0.7l-1.5,0.5l-1.1,0.7l-0.5-0.1l-0.6-0.4
	l-0.9-1.1l-0.2-0.7v-1.7l-0.5-1.1l1.2-1.5l-5.7-0.1l-1-0.2l-1-1.1l-2.4-4.2l1.9-2.7l0.4-1l0.5-2.9l0.7-1l1.5-0.7v-0.5l-1.4,0.5
	l0.2-2l0.7-3.1l0.1-9.3l0.4,1.1l0.9,0.8l0.3-0.7l0.2-1.1l-0.2-1l-1.6-0.8l-0.3-0.9v-1.1l-0.2-0.9l1.5,0.2l1.2,0.8l0.8,1.1l0.6,1.2
	h0.4l-0.7-2.2l-2.9-3.5l-0.4-2.2l-1.5,0.5l-0.5-2.8l-0.8-8.6l-0.5-1.2l-0.4-10.1l0.4-2.3l0.6-2.2l0.8-2l-0.9-0.5l-0.1-1.5l0.1-1.5
	l-0.3-0.7l-0.6-0.5l-0.3-1.4l-0.2-2.7l-1,0.4l-0.6-0.3l-0.3-0.8v-1.1h0.5l0.5,0.4h0.4l0.5-0.4l-0.7-0.5l-0.3-0.6l-0.5-2.1l0.1-0.5
	l-0.5-0.5l-1.4-0.3l-0.4-0.2l-0.7-0.7l-0.5-0.7l-0.6-0.6l-0.9-0.3h-1l-0.7,0.2l-0.5,0.5l-0.1,0.7l-0.8-0.7h-0.8l-0.7,0.3h-0.5
	l-0.5-0.8l0.2-0.6l0.6-0.4l0.8-0.1l0.6-0.7l1.6-3.3l0.8-1.1l0.6-0.2l1.5-0.1l0.7-0.2l0.8-0.5l0.5-0.6l0.7-0.5l1-0.2l1.2,0.4l1,0.6
	l1.1,0.4l1.5-0.5l0.4-0.4l0.3-0.9l0.3-0.8l-0.1-0.8l0.4-0.4l0.8,0.1l0.5-1l0.7-0.5l0.9-0.6l0.6-0.5l0.5-0.6l0.3-0.8l0.4-1.6
	l-0.2-2.8l-1-2.4l-2.7-4.4l-0.7-0.6l-0.1-1.5l-2.6-7.3h-0.5v1.9h-0.5l-1-3l-1.8-2.6l-4.1-5.1l-0.7-1.2l-0.3-1l0.1-2.7l0.5-2.4v-1.1
	l-0.5-0.9l0.5-0.4l2.5,2.1l1.6,2l0.7-0.5l0.6-1.1l1-2.5l0.2-1.3l0.1-1.2l-0.1-1l-0.2-0.7l-1.2-1.7l0.1-0.6l1.6-0.5l0.2,0.4l0.7,0.5
	l0.2-1l-0.2-1l-0.6-0.7l-0.8-0.5v-0.5l1-1.7l0.3-1.1l0.1-1.4l0.8-1l0.3-1.5l-0.1-1.5l-0.5-1.1l-2.3-1.8l-1.2-1.4l-0.7-0.5v-0.7
	l0.4-1.4v-0.9l-0.2-0.8l-0.5-0.4l-0.6-0.2l-2.3-1.3l-1.6,0.4l-1.3,1l-0.8,1.1l0.5,0.9l-0.6,0.1l-0.9,0.4h-0.4v-1.7l0.1-0.8l0.3-0.8
	l-2.7-6l-1.4-1.8l-1.9-1.9l-1-0.7l-1.7-0.4l-0.6-0.5l-0.8,0.2l-0.2,0.4l-0.1,1.1l-0.6,0.3l-0.3-4.7l0.6-1.9l1.8-0.8l0.8-1.2
	l-0.8-2.6l-2.1-4h-0.5l0.5,0.8l0.5,0.5v0.5h-0.5l-1.2-1.6l-4.9-5.3l-0.7-0.4l-1.2-0.1l-0.7-0.4l-0.4-0.9l-0.5-0.8l-1-0.3l0.5-0.4
	l-0.9-0.3l-0.8-0.6l-1.1-1.5l-0.5-0.1l5.1-16.4l1.6,0.4l1.4-0.3l1.3-0.7l1-1.3l0.6-1.7l-0.2-1.5l-1.5-3l-0.6-2.1l-0.3-2.9l0.4-2.4
	l1.6-0.9l0.7,0.3l3.4,2.9l0.6,0.8l-0.3,0.7l0.2,0.5l0.8,0.2l1.8,2.6l0.5,0.9l0.9,3.4l0.7,0.7l1.5-0.1l1.7-1.4l3.1-3.1l9.4-5.9l2-1.8
	l-0.5-1.2l-1.3-1.3l-0.9-2l0.2-0.8l2-2.6l1.7-3.8l1.4-1.5l2.1-1.1l2.2-0.7l2-0.4h2.5l0.4-0.3l-0.5-1.1l-0.7-0.7l-0.7-0.5l-0.6-0.6
	l-0.5-1l-0.1-1.6l-1.4-5.3l-2-3.8l-2.4-3.5l-1.4-3.1l-0.5-0.7l-0.9-0.3l-0.9-0.1l-0.8-0.3l-0.8-1.2l-0.6-2.4l-0.5-4.7l-1-2.3
	l-1.1-1.9l-0.7-0.6l-1.1-0.4l-2.1,0.2l-0.6-0.4v-1.6l0.6-2l2.6-2.8l0.8-1.7v-1.2l-0.4-0.7l0.1-0.5l1.1-0.7l1.1-0.3l1.1-0.1l0.7-0.5
	l0.1-1.2l0.4-0.6l1.1,0.6l0.6,2.5l0.8,1.3l0.9,0.8l0.6,0.8l0.6,1l0.5,1.3l0.6,2.6l0.5,1.5l4.4,3l3.4,1.3l1,0.8l0.7,0.8l5.4,9
	l1.5,1.1l0.9,0.2h1.9L521.5,174.5L521.5,174.5z"/>
<path id="COL1416" class="st0" d="M751.3-31.7l0.2,1.9l-1.3,3.9l-0.3,0.6l-0.8,0.5l-0.9,1.2l-0.3,0.3l-1,0.3l-0.4,0.7l0.2,1v0.8
	l-0.1,0.8l-0.2,3.6l-0.4,1l-0.4,1.7v0.7l0.1,0.5l0.8,1.3l0.3,0.9l0.4,2.8l1.4,5l-0.1,0.8l-2.2,3.3l-0.4,1l0.6,0.3l1-0.1l1,0.1
	l1.2,0.3l1,0.5l0.7,0.8l0.2,0.9l-1,1.4l-0.7,0.7l-1.8,3.4l0.6,1.3l0.3,1l0.4,2.5v1.1l-0.2,1l0.2,0.6l0.3,0.3l0.7,0.4l0.5,0.6
	l0.1,0.6l-0.5,0.7l-1.6,0.7l-1.9,0.6l-0.5,0.2l-0.7,1.7l-0.5,0.4l-0.9,0.1l-0.8,0.1l-0.7,0.3l-0.9,1.1l-1.1,0.5l-0.9,0.2l-2.4,1.7
	l-2.6,0.8h-0.7l-1.1-0.3h-0.6l-0.9,0.3l-2.4,0.5l-0.9,0.3l-0.9,0.8l-1.3,1.3l-0.5,1.2l-0.7,1.8l-0.6,1l-2.1,2.2l-1,1.5l-0.7,0.7
	l-0.7,1.5l-1.2,1.6l-0.4,3.2l-0.6,2.2l-0.2,0.7v1l0.2,0.8l2.1,3.7l1.8,2.8l0.7,0.9l0.9,0.4l1,0.7l1.1,1l3.9,5.3l0.7,0.5l2.9,2.7
	l0.3,2.3l-0.4,1.1l1.7,3.2l2.2,6.5l-1.1,1.4l-0.8-1.2l-0.4-0.2l-0.5,0.1l-2.8,1.6l-0.5,0.3l-1.3-0.1h-2.5l-0.6-0.3l-0.9-0.7
	l-0.5-0.1l-1.1-0.1l-0.7-0.2l-1.1-0.2l-1.5,0.2l-1,0.4l-1.2,0.7l-3.2,3.8l-2,1.4l3.7,2.2l2.9,2.7l1.4,0.8l1.2,1.1l0.4,3.8l0.7,1.4
	l1.2,1l0.4,0.4l0.3,0.5l0.2,2.4l0.1,0.6v0.8l-0.7,1v1l0.5,0.9l0.9,0.4l2.6,0.5l1.1-0.1h0.5l0.3,0.4l0.1,1.3l0.3,1.4l0.9,1.4l2,2
	l1.7,2.3l-1.6,2.6l-0.7,2l-0.7,1.2l-1.8,5.6l-0.8-1.8l-0.1-2l0.8-2l-1.9-0.8l-5.6-0.3l-2.2-1.2l0.4-1.1l-0.6-0.8l-0.9-0.7l-0.7-0.7
	l-1.1,1.6l-2.1,0.2l-2.3-0.6l-1.9-0.8l0.8-0.6l-0.9-0.8l-2.8-1.6l-1-1.3l-1.8-2.8l-1.2-0.8l-2.6-0.1l-0.5-0.6l-0.1-1.9l-0.5-0.7
	l-1.3-0.7l-1.5-0.5l-1.3-0.1l-0.7,0.2l-0.6,0.4l-0.6,0.2l-0.9-0.4l-0.3-0.6l-0.5-1.8l-0.3-0.4l-2.2-0.2l-1.1,0.1l-1.1,0.6l-0.7,1
	l-0.4,0.4H687l-0.7-0.2l-0.6-0.5l-0.4-0.6l-0.6-2.2l-1.1-1.2l-2.1-1.4l-0.6-0.5l-0.4-0.6l-0.4-0.6l-0.1-0.9l-0.2-0.5l-0.5-0.5
	l-1.1-0.6l-0.3-0.1H677l-0.4-0.1l-0.3-0.4l-0.3-1l-0.3-0.5l-0.8-0.5H674l-0.9,0.3l-0.9,0.5l-1.3-1.8l-0.5-0.6l-2,0.3l-0.4-2.6l1-6.1
	l0.8-2.7l-0.2-1.1l-0.8-1.1l-1.8-1.6l-0.6-1l-0.2-1.4l0.3-1.3l0.5-1.5l0.3-1.4l-0.4-1.2l-2.3-2.1l-0.6-0.9l-0.6-1.3l-0.3-1.4v-3.2
	l0.1-1.5l0.4-0.9l0.7-0.5l2.4-1.2l0.8-0.6l0.4-1l0.2-1.8l-0.3-0.6l-0.9-0.5l-0.2-0.2l-0.9-2.1l-0.6-0.8l-0.8-0.7l-2-0.4l-0.5-0.2
	l-1.3-0.9l-1.1-0.4l-0.8-0.8l-0.3-1.9l0.2-1.5l0.9-2.2l0.5-2.4l0.5-0.9l3.5-7l1.1-1.3l0.8-1.2l0.4-1.5l0.4-3.1l1.2-2.5l3.9-2.7
	l1.3-2.3l0.2-1.5l-0.2-4.4l0.5-5.8V2.7l-0.2-0.6L672.3-1l-0.1-0.8l0.3-1.6l0.6-1.3l0.3-1.2l-0.3-1.3L672.5-8l-0.8-0.7l-0.6-0.9
	l-0.5-2.8l-0.5-1l-1.5-1.8l-2.8-2.6l-0.6-0.9l-0.2-1.1l0.4-0.5l1.7,0.9l5.1,1.7l6.5,2.7l5,1.7l3.3,0.8l3.4,0.5l4.6,0.4l4.5-0.2
	l2.6-0.4l-1,0.8l-3.3,0.6l-6.5-0.2l-1.5-0.3h-0.7l-0.8,0.3l-0.2,0.6l0.1,0.8v0.7l-0.6,0.3l-0.3,0.9l0.8,2l1.6,3.2l-1-0.6l-1-1
	l-0.9-0.7L686.1-4l-0.5-0.6H684l-1-0.5l-0.5,0.3L682-3.7l-0.4,1.4l-0.2,0.9v2.1l0.1,1l0.4,0.5l0.9-0.3l0.4-1.1l0.3-1.2l0.7-0.8v0.8
	l0.2,0.4l0.5,0.3h0.7L685.5,1l0.1,2.6l1,0.4h1.1l0.8-0.6l0.3-1.2l-0.7,0.4l-0.6-0.1l-0.4-0.7l-0.2-1l0.3-0.9l0.5-0.7l0.4-0.5
	l-0.2-0.8l1.3,0.3l0.9,0.9l0.4,1.3l0.3,3.3l0.6,0.8l1,0.2l2.7-0.2l0.5-0.1l0.6-0.3l1.3-1.3l0.3-0.2l0.1-0.6l2-3.6v-0.5V-4l0.7-1.5
	l0.4-0.9l0.9-1.1l0.2-0.4l0.5-2.6l0.7-1.5l4.2-6.2l0.2-0.5l-0.2-0.8l-1-1.2l-0.2-0.6v-0.8l0.4-1.1l0.1-0.7l-0.2-0.7l-0.6-1.2
	l-0.2-0.7l0.2-0.2l0.6-0.6l0.1-0.8l-0.4-0.4l0.1-0.8l0.4-0.6l0.9-1.3l0.9-0.9v-0.7l0.9-1.7h1.1l0.8,0.2l0.5-0.4l-0.1-1.6h0.5
	l0.1,0.4l0.4,1l0.7-1l0.1-0.4l0.5,0.4h0.5v-1.4l0.6,0.6l0.5,1l0.8,0.3l0.6-0.3l0.6-1.2l0.6,0.6h0.5l0.1-0.5l0.3-0.2l0.9-0.3l1.7,0.2
	l1.3,0.5l1.1,0.8l1.2,1.1l0.5,0.2l3.1,0.7l2.2,1.3l2.6,0.8l8.1,0.6l7.6-0.6L751.3-31.7L751.3-31.7z"/>
<path id="COL1417" class="st0" d="M598.8,69.5l0.5,0.1V70h-1.2l-0.7,0.1l-0.2-0.4l0.5-0.4L598.8,69.5L598.8,69.5z M668,172.9
	l0.1-3.8l-0.4-1.1l-0.8-0.9l-0.9-0.6l-1.5-1.5l-1.9-3.1l-2.5-1.9l-1.4-1.2h-0.9l-1.5,0.1l-3.7,1.3l-2.9,0.9l-7.1,3.5l-2.5-2.6
	l-2.2-1.5l-2.8-1.3l-0.7-0.7l-0.5-0.9l-0.4-1.2l-0.4-3.4v-2.9l-1.3-4.4l-0.2-1.4v-1l0.4-1.8l-1.3-4.2l0.2-2.7l0.5-0.6l1.3-1l1.3-1.4
	l1-0.7l0.7-0.3l1-0.1l3.4-0.9l0.7-0.5l0.3-3.3l0.5-0.8l-0.2-0.4l-1.2-1.8l-0.2-0.5l0.6-1.3l-2.9-2.1l-11.7-5.4l-1.9-2.9l-0.5-2.9
	l-1.1-0.7l-1.4-0.1l-0.3-0.1l-0.3-0.6l-2.5-0.6l-1.2-1.3l-0.9-1.3l-3.6-1.7l-2-0.5l-0.6-0.4l-1.8-0.7l0.1-4.2l1.7,0.4l0.9-0.6
	l2.6-2.3l1.6-3.1l1.3-4.4l0.1-4l-0.8-1.8l-0.8-1l-0.5-0.5l-0.7-1.3h-1.1l-0.9-0.7l-0.7-0.4h-1.4l-0.8,0.4l-0.8,0.6l-0.2-0.7l3.8-3.8
	l0.6-1.8l1.1-3.8v-1.6l0.4-1.4l0.9-1.9l0.7-2.3l0.3-1.4v-1.4l0.9-3.9l0.1-2.2l-0.5-1.2l6.5-3.5l-3.1,5.5l-0.4,1l0.2,0.7l0.7,0.3
	l0.9,0.1l1.2-0.4l1.1-0.1l0.1,2.3l0.1,0.9l0.6,1.2v0.7l-0.2,0.6l-1,1.4l-0.2,0.6l0.5,0.7l1.5,0.8l5.4,1.8l0.9,0.2l0.9-0.5l1.4,0.1
	l0.1,1l-0.5,1.1l-0.5,2.2l0.3,1.6l-0.2,1.1l-0.7,2.1l-0.3,1.3l-0.1,1.2l-0.1,1l-0.5,0.8l-0.7,3l1.3-1.1l1.4,0.5l1.1-1l0.5-0.5
	l0.9-0.4l1,0.1l1.2,0.4l2,1.4l0.9,0.1l0.8-0.2l0.8,0.1l1,0.4l2.7,2.2l1.4,1.8l2.9,2.5l0.8,0.6h1.9l2,0.6l-1.4,3.2l0.2,0.6l0.4,0.5
	l1.1,0.4l1.3,0.3l1.6-0.4l0.8-0.4h0.5l0.6,0.9l1.4,1l0.6,0.3l0.3,0.5l-0.3,0.4l-0.9,1.4l-1.4,3.2l-0.2,0.6l0.6,0.9l-0.3,1.3v0.8
	l0.3,1.3l0.9,1.9l0.7,2.9v0.9l0.2,1l0.3,0.6l0.7,0.6l0.6,0.3l1.2,1l1.3,2.5l1.2,2.5l2.9,1.8l1.9,0.8l6.4,4.9l3.2,3.5l3.4,5.2
	l0.9,0.9l0.4,0.7v0.5l-0.9,0.9l-0.9,1.6l-1.7,1.5l-0.6,1.4l1.2,7.9l0.7,2l0.8,0.8l-0.1,0.3v1.5l0.2,2l0.6,2.3l0.1,1.2l-0.2,0.8
	l-0.9,2.6l-0.5,0.8l-1.1-0.1l-0.6-0.2h-0.3l-0.2,0.6l-0.2,1.7l-0.7,1.6l-1,1.1l-1.4,1l-1.6,0.5l-1.8,0.1l-2.2-0.2l-0.7,0.2l-1.4,1.2
	l-0.6,0.4L668,172.9L668,172.9z"/>
<path id="COL1420" class="st0" d="M1029.1,319.1l-6.7,4.1l-2.7,0.5l-14.3-0.5l-2.1,0.5l-2,1.2l-0.6,0.7l-2.2-0.9l-1.1-1.4l-0.1-1.1
	l-0.2-0.7l-0.5-0.6l-1.6-1.3l-1.3-0.7l-4.5-1.7l-0.8-0.7l-0.6-1.5l-0.4-0.7l-0.5-0.5l-2-1.2l-0.5-0.5l-0.8-1.1l-0.6-0.5l-2.2-1
	l-0.9-0.2l-1.7-0.2l-2.4,0.1l-1.9,0.2h-1.8l-1-0.1l-2.1-0.7l-1.4-0.1l-1.7,0.2l-4.7,1.7l-2.8,1.4l-1.4,0.4l-2.5-0.1l-3.5,0.3
	l-5.2,0.9h-3.7l-0.4-0.3l-2.6-1.1l-1.2-0.2l-1.4,0.2l-1.4,0.3l-1.5,0.6h-0.7l-6.4-0.4l-4.9-1.8l-2.2-0.4l-3.6,0.1l-1.6-0.2l-2.1-0.8
	l-2.3-0.4l-1.3,0.9l-1.1-0.1l-1.1,0.2l-0.8-0.2l-0.8,0.2l-1.6,1l-2.4,1.1h-2.1l-1.3,0.2l-1,0.4l-1,0.4l-2.6,1l-1.7,0.2l-1.5-0.2
	h-1.2l-2,0.5l-1-0.2l-1.8-0.9l-0.7-0.2l-1,0.1l-1.5,0.6h-5.1l-1.7,0.4l-7.3,2.7l-2.1,0.1l-1.2-0.1h-1.4l-1.4,0.3l-3.8,1.8l-3.7,0.9
	l-3.8,2.8l-1.1-0.1l-1.7-0.3l-2.1-1.5l-2.7-1.3l-1.2-0.8l-0.9-0.8l-1.7-3.2l-2.6-2.7l-1.5-2.5l-0.3-1.7v-0.6l0.2-0.9l1.7-2.8
	l1.8-1.6l0.5-1.6v-0.9l0.4-0.7l0.6-0.6l0.6-0.4l0.6,0.1l0.7,0.6l0.6,0.1l0.5-0.4l0.7-0.7l0.6-0.9l0.6-0.5l0.8-0.2l0.9-0.1l1.2-0.5
	l0.8-1l0.6-1l0.7-2.4l1.6-12.8l0.5-1.2l1.5-0.7l1.3-1.7l0.8-2.9l1.4-2.5l2.5-6.5l0.7-1.4l0.6-1.9l5.5,1.3l2.2,0.2l1.1-0.2l0.7-0.4
	l0.7-0.6l0.8-0.5h0.8l0.7,0.1l0.4-0.2l-0.2-1.2l2-0.1l1.6-0.3l1.5-0.1l2,0.5l-0.3-1.1l0.4-0.5l0.9-0.1l2.3,0.1l0.5,0.4l0.4,0.5
	l0.8,0.6h0.4l0.5-0.1l0.9-0.6l0.6-0.1l0.3,0.3l0.4,0.6l1.3,0.1l0.1-0.2l1.2-0.3l1.5,0.4l1.3,1.1l0.8-0.3l1.8-0.8l1-0.2l1.1,0.1
	l2.2,0.6l1.1,0.1l2.8-0.5l1,0.1l0.6,0.4l0.2,1.7l0.3,0.7l0.9,0.4h3.3l0.8,0.4l0.5,0.5l0.7,0.1l1.2-0.3l0.8-0.6l0.6-0.7l0.6-0.4
	l4.8,0.6l3.6-0.5l3.4-1.2l2.8-2.1l0.7-0.9l0.3-0.7l0.6-0.3l1.4-0.1l2.5-0.8l3-0.3l4-0.9l2-0.1l0.4,0.3l1,0.8l0.6,0.2l2.3,0.5h1.1
	l1.9-0.6l1.1-0.2l0.5,0.4l3.4,4.4l0.6,0.4l1.1,0.2l0.7,0.1l1.6-0.3l0.6,0.1l0.3,0.2l0.6,0.8l1,0.3l7,3.4l2.1,0.1l3.8-2.2l2.5-0.6
	l2.5-0.1l1.9,0.5l2.2,1.9l21.5,27.3l5.1,6.5l17.3,21.8L1029.1,319.1L1029.1,319.1z"/>
<path id="COL1421" class="st0" d="M857,258.8h-2.7l-1.3-0.7l-1.3-0.5l-1.9-0.5l-5.5-0.1l-1.4,0.5l-0.4,0.4l-0.3,0.6l-0.2,1l-0.5,0.6
	l-0.6,0.6l-0.6,0.4l-0.7,0.2l-0.4-0.3l-0.5-1.3l-1.5-0.4l-1.2,2.4l-0.7,1.9l-0.7,1l-0.8,1l-1.8,1.7l-1.2,0.7l-1.2,0.2l-1.5-0.3
	l-3.8-2.1l-1.7-0.3l-0.5,0.9l-0.6,0.7l-0.4,0.3l-1.3,0.1l-0.3-1.8l0.3-2l-0.1-1.1l-0.2-1.6l-0.3-0.7l-0.3-0.6l-1.1-0.2l-0.9,0.1
	l-0.7,0.3l-1.9,0.4l-1.5-0.3l-0.3,0.1L812,261l-0.5,0.5l-0.2-0.2l-0.3-1l-0.3-0.7l-0.5-0.2l-0.9,0.1h-0.8l-0.4,0.1l-1.6,0.8
	l-1.8-1.5l-0.8-0.5l-0.7-0.8l-0.5-0.3l-1.7-0.4l-1.5-0.2l-1.8-0.8l-0.3-0.2l-0.4-1l2.5-3.9l0.8-1.2l0.5-0.9l-0.4-1.2l0.1-1l-0.2-0.9
	l-0.7-0.3l-0.4-0.3l-0.7-1l-1.2-1.7l2.5-3l0.1-3.8l-0.9-0.4l-0.1-0.6l-0.7-0.8l-2-3.1l-0.4-1.3l0.2-0.9l-0.2-1l-4.8-3.8l-0.6-1
	l-0.3-0.9l-0.5-2.2l0.1-0.7l0.2-0.7l-2.4-0.5l-1.3,0.4l-0.7,0.5l-1-0.3l-1.6-0.1l-0.7-0.3l-0.7-0.1H780l-2.1-0.3l-1.3,0.1l-1-0.4
	l-0.8-0.1l-0.5,0.1l-0.6,0.5l-1,1.6l-0.7,3.1l-0.2,0.5l-3.2-0.3l-2.2,0.1l-1.3-0.2l-0.7-0.2l-0.3-0.7l-1.2-0.7l-3.7-0.5l-1.3-0.3
	l-1-0.4l-1-0.6l-0.5-0.5l-0.8-1.3v-0.6l-0.2-0.4l-1.7-1.9l-1.6-1.4l-1.6-0.8l-1.2-1l-1-1.2l-0.7-0.7l2.5,0.5l0.7,0.3l0.5,0.3
	l0.8,0.9l0.5,0.5l1.3,0.3l0.5,0.3l1.3,1l0.7,0.3l0.6,0.1l0.8-0.2l2.1-1l1.3-0.9l1-0.9l0.7-0.9l0.8-0.8l0.6-1l1.5-2l0.3-0.6l0.2-0.7
	l0.1-1.4l-0.2-2.4l0.3-1.2l0.3-0.8l0.5-0.4l1.2-0.5l0.8-0.6l0.6-0.7l0.9-1.2l0.2-0.9l0.1-0.9l-0.2-0.9l-1.1-0.5l-0.9-1.2l-2.9-0.3
	l-0.9-1l-0.3-0.9l0.1-1.7l-0.1-1.1l-1-2.3l-0.9-0.6l-0.3-5.3l0.2-1.5l0.5-1.4l0.8-1.3l0.5-2l1.1-2.4l0.9-4.3l-0.2-3l-0.5-0.4
	l-0.7-0.5l-1.6-0.2l-0.9-0.1l-0.6,0.1l-0.3,0.8l0.3,1.1l0.5,1.1l0.4,2.6l-2,1.6l-1,1.5l-0.3,0.2l-0.7-0.6l-0.2-1.6l-1-0.7l-0.4-0.3
	l-1-0.4l-1.5-0.2l-0.1-0.3l0.1-0.5l1.6-1.8l0.8-2.9l-0.5-0.9l-0.4-0.2l-1.3-3.1l-1.9-2.7l-0.7-1.7v-1.4l0.2-0.9l0.4-0.8l0.9-1.4
	l1-0.9l2.4-1.9l0.7-0.7l0.2-0.5l-0.2-1.1l0.2-0.5l0.4-0.4l1.7-1.1l1-0.9l0.3-0.7l-0.1-0.7l-0.5-1.6l-0.9-3.4l0.5-1.9v-0.5l-0.3-2.7
	l0.9-9.4l-0.3-2.6l1.3-2.3l0.6-0.3l3-0.7l7.4-0.2l2.8-0.3l2.4-1.2l2.3-2.2l1.2-0.8l1.7-0.5l1.5-0.9l2.9-2.7l1.6-0.1l0.4,0.6l0.8,2.4
	l-0.3,0.9l0.3,0.6l0.8,0.9l0.2,1.7l-0.1,2.8l0.3,1.5l1.2,1.7l1.3,0.3l1.4-0.5l2.3-1.5l0.5-0.3l0.8-0.3l0.8,0.1l0.6,0.2h0.5l0.5-0.6
	l1.3,1.2l1.1,0.7l0.3,0.8l-0.9,1.6l1.1,1.3l4.2,16.1l3,11.7l1.4,2.3l6.5,7.1l6.9,7.4l0.8,0.7l1.3,0.4l0.6,0.4l0.8,0.8l0.7,1l0.4,1.2
	l0.2,1.1l-0.1,1.1l-0.6,2.2l-0.1,1.1l0.4,1.6l2.2,4.2l1.5,4.6l0.1,2.6L833,189h-1.1l-1.5-0.3l-1.2,0.2l-0.7,1.2l-0.3,1.3l-0.6,1.1
	l-0.8,0.9l-1,0.9l-1.4,0.6l-0.6,0.4l-0.3,0.8l0.3,0.6l1.4,1.7l0.5,0.7l0.3,1.2l0.2,2.9l-0.2,1.2l-1.3,4.2l-0.6,7.1l0.2,1.4l0.9,2.6
	l0.2,1.3l-0.3,1.5l-0.5,1.4l-0.5,1.4l0.3,1.6l1.8,3l2.5,1.8l2.9,1l3.3,0.6l5.5-0.1l2.3,0.6l2.3,3l0.4,0.3l0.1,0.3l-0.6,2.8l-0.1,0.6
	l0.2,2l0.5,1.9l0.7,2l3.7,7.1l1.2,1.4l0.8,0.5l1.8,0.8l0.9,0.6l1.6,1.3L857,258.8L857,258.8z"/>
<path id="COL1422" class="st0" d="M1000.7,325.6l-1.4,1.5l-1.5,2.3l-4.8,11l-1.1,1.9l-2.9,3l-0.3,0.9l-2.3,3.6l-1.6,1.6l-2.1,1.6
	l-2.2,1.4l-2,0.9l-2.8,0.6l-5.3,0.2l-2.5,0.5l-4.2,1.7l-1.5,0.2l-1.4,0.5l-4.3,3.2l-4.5,2.4l-1.4,1.1l-1.2,0.8l-2.9,1.2l-1.1,1
	l-0.4,1.2l-0.2,3.2l-0.6,0.7l-1.1,0.4l-11.8,10.3l-1.2,0.6l-2.6,0.7l-1.1,1.2l-4.5,10.7l-1.4,2l-0.8,0.7l-1.8,1.7l-0.9,0.4l-0.9,0.2
	l-1.1,0.5l-1.9,1.1l-3.2,2.6l-0.6,0.5l-4,0.6l-19.5,8.4l-5.3,3.7l-2.8,1.4l-6.1,1.8l-0.8,0.1h-0.7l-0.7,0.1l-0.7,0.5l-5.3,5.7
	l-5.1,4.3l-2.6,1.6l-2.5,0.7l-1.4-0.4l-0.7-1l-0.6-1l-2.5-1.6l-0.8-0.3h-0.7l-10.8,2.4l-0.9,0.4l-2.9,4.5l-1.5,0.4l-1.7-0.3
	l-1.3-0.9l-3.2,1.8l-1.6,0.5l-0.7-1.1l-0.4-0.4l-0.8-0.4l-1-0.3l-0.8-0.1l-0.4,0.4l-1.4,2.7l-0.6,0.2l-0.8-0.7l-0.5-0.3l-0.6,0.5
	h-0.5l-2.6-0.4l-0.6-0.1l-0.6,0.3l-0.9,0.8l-0.4,0.3l-0.7,0.1l-0.5-0.1l-1.5-0.9l-0.4-2.4l-0.5-0.2l-1.1,0.2l-0.5-0.1l0.2-1.4
	l-0.4-0.6l-0.1-0.4l-0.2-0.6l-1.1-1.3l-0.3-0.8l-0.6-0.3h-1l-6-6.4l-4.6-8.4l-3.1-3l-0.4-0.7l-0.4-2l0.2-1.2l-1.3-4l0.2-1.3l1.1-2.9
	l0.2-3.1l1.1-4.4l0.3-0.6l1-0.1l2.5,1.1l1.6-1.8l1.1-1l0.4-0.8l0.4-1.5l1-1.9l-0.5-0.9l-1.6-1.3l-0.7-1.2l-0.3-0.9v-1l0.3-1.5
	l0.4-0.9l0.5-0.6l-0.2-2.4l0.5-0.6l3.8-5.2l1.1-1.3l1-0.9l0.8-0.4l1.5-1.3l1.4,0.6l0.5,0.6l1.6,2.4l1.3,1l1.9,2.5l1.3,0.1l3.9-3.5
	l2.8-1.6l0.9-1.5l1.5-2.5l7.4-8l1.6-1.8l0.8-0.4h0.7l0.4,0.3l0.4,0.6l0.6,1.1l0.5,0.5l1.5,1.1l0.8,0.6l0.6,0.1l0.5-0.4l0.9-4.7
	l0.6-1.3l0.9-0.8l0.5-1.7l0.3-1.2l0.3-0.7l0.5-0.5l0.5-0.2l1-0.9l-1.6-1.3l-1.5-2.2l-1.4-1l-0.5-1.6l-2.7-2l-6.4-3.4v-1.4l0.4-0.5
	l0.6-0.6l1.1-0.4l1.5-0.3l0.3-0.5l1.5-5l0.6-3.4l0.9-1.8l0.2-1.3l-2-2.1l-0.4-0.8l-0.3-0.9l-0.4-0.9l-0.4-1.6l-0.4-0.5l-1-0.5
	l-0.2-0.5l0.1-0.7l1.3-4.3l2.8-4.5l2.2-1.2l-1.7,2.8l-0.2,0.9v0.6l0.3,1.7l1.5,2.5l2.6,2.7l1.7,3.2l0.9,0.8l1.2,0.8l2.7,1.3l2.1,1.5
	l1.7,0.3l1.1,0.1l3.8-2.8l3.7-0.9l3.8-1.8l1.4-0.3h1.4l1.2,0.1l2.1-0.1l7.3-2.7l1.7-0.4h5.1l1.5-0.6l1-0.1l0.7,0.2l1.8,0.9l1,0.2
	l2-0.5h1.2l1.5,0.2l1.7-0.2l2.6-1l1-0.4l1-0.4l1.3-0.2h2.1l2.4-1.1l1.6-1l0.8-0.2l0.8,0.2l1.1-0.2l1.1,0.1l1.3-0.9l2.3,0.4l2.1,0.8
	l1.6,0.2l3.6-0.1l2.2,0.4l4.9,1.8l6.4,0.4h0.7l1.5-0.6l1.4-0.3l1.4-0.2l1.2,0.2l2.6,1.1l0.4,0.3h3.7l5.2-0.9l3.5-0.3l2.5,0.1
	l1.4-0.4l2.8-1.4l4.7-1.7l1.7-0.2l1.4,0.1l2.1,0.7l1,0.1h1.8l1.9-0.2l2.4-0.1l1.7,0.2l0.9,0.2l2.2,1l0.6,0.5l0.8,1.1l0.5,0.5l2,1.2
	l0.5,0.5l0.4,0.7l0.6,1.5l0.8,0.7l4.5,1.7l1.3,0.7l1.6,1.3l0.5,0.6l0.2,0.7l0.1,1.1l1.1,1.4L1000.7,325.6L1000.7,325.6z"/>
<path id="COL1423" style="fill: #e4ae00" class="st0" d="M919.5,538.7l1.5-0.3l1.2,0.7l1.2,0.2l1.3,0.3l0.2,0.5l-0.2,1.4v0.6l0.4,0.3l0.4-0.2l0.3-0.6v-0.9
	l-0.2-1l0.2-0.8h0.5l1.2,0.8l0.8,1.3l0.6,0.4l0.4-0.4l-0.1-0.9l0.4-0.6l0.6-0.1l0.9,0.8l0.1,0.9l-0.1,0.7l0.1,0.4l1.7-0.8h1l1.1,0.7
	l0.8,1.4l0.6,0.3l1.1-0.2l1-0.5l0.9-0.6l0.8-0.2l0.5,0.1l0.3,0.5v0.8l0.2,0.7l0.4,0.1l2.8-2.2l0.4-0.6v-0.6l-0.2-0.8l-0.4-0.7
	l-0.1-0.6l0.2-0.4h0.7l0.6,0.5l1.7,2h0.5l0.8-0.9l1.4,0.1l1.1,0.2l6.3,3.8l-26.6,11.1l-0.9,0.6l-0.1,0.6l0.7,0.7l3.8,1.2l3.4,1.8
	l1.6,0.4l1.5,0.8l1.4,1.5l3.3,4.7l2.8,5.4l0.8,2l0.9,0.9l1.3,0.9l3.4,0.9l1.4,0.4l0.4,0.1l0.7,0.3l0.5,0.7l0.1,1.4l2.5-0.4l0.5-0.3
	l1.8-0.6h1l3.6,1.2h0.8l1.6,0.9l0.9,0.4l0.7-0.3l0.2-0.6l-0.1-0.6l0.1-0.4l0.4-0.2h1.2l1.2-0.4l0.8-0.1l0.9,0.7l0.7,0.2h1.6l2-0.6
	l0.7-0.1l0.5,0.1l0.4-0.1l0.3-0.7l0.8-0.2l2,0.1l1.1-0.3l0.8-0.6h0.7l1,0.7l1.1,1.9l1.4,1.5l0.3,0.5v0.4l-0.3,1l-1.7,1.1l-0.6,0.7
	l-2.6,1.6l-2.1,1.7l-0.1,1.4l-2.9,2.1l-1.6,1.5l-0.8,0.6l-1.2,0.6l-3.9,0.4l-3,0.8l-2.3,0.8l-1.4,0.1h-1.2l-0.7,0.3h-1.1l-2.7,0.4
	l-1.2,0.6l-1,1l-0.6,0.5l-0.9,0.4l-2.5,0.5l-1.4,0.6l-4.5,1l-2.1,1.1l-1.2,0.2l-1,0.1l-0.9-0.1l-0.8-0.3l-0.6-0.4l-1.5-0.4l-0.9,0.2
	l-2.5-0.3l-6.2,0.2l-1.1-0.2l-0.5,0.3l-1,1.4l-2.8,2.7l-1.7,1.2l-2.2,1.2l-3.5,1.2l-5.5,3l-3.2,2.3l-1.2,1.3l-1.4,1.2l-1.2,0.7
	l-1.2-0.2l-0.7-0.2l-1.3-1.4l-2.3-0.9l-1.9-1.5l-1.1,0.3l-0.3,5.6l-0.3,1.9l-0.4,1.5l-1.8,2.3l-0.6,1.1l-0.6,2.3l-1.4,3.3l-0.8,1.5
	l-0.4,1.7l-0.5,1.9l-3.1,7.3l-0.5,0.6l-0.2,1.3v1.5v0.9l1,1.7l0.2,0.6l0.8,1.3l0.5,1l0.6,0.7l0.3,0.9l-0.2,0.6l-0.7,0.2l-0.8-0.3
	l-0.5-0.6l-0.2-0.8l-0.3-1.4l-0.3-0.3l-0.4,0.1l-0.4,0.4l-0.1,0.9l0.1,0.7l-0.1,0.5l-1-0.2l-0.5,0.3l-0.2,0.6v1.5l-0.1,0.6l-0.8,1.7
	l-0.7,1l-1.3,0.9l-3,3.2l-0.8,0.2l-0.7-0.1l-0.9-0.3l-1-0.2l-1.3,0.3l-0.9,0.8l-1,1.5l-0.5,1.2l-0.5,0.9l-2.1,2.2l-2,1.6L854.1,687
	l-2.8-0.3l-0.6-0.4l-0.4-1.4l-0.4-0.6l-0.5-0.4l-3.1-1.1l-1.2-0.3l-4.6-0.3l-0.5-0.6l-1.2-2.7l-0.6-0.6l-1.9-0.6l-0.7-0.7l0.1-1.1
	l0.3-1.2l0.1-1l-0.5-1.4h-0.5l-0.5,0.5l-0.7,0.2l-0.7-0.3l-0.3-0.4l-0.2-2.1l-0.5-1.3l-0.9-0.3l-1.1-0.1l-0.7-0.5l-0.4-0.9l-0.2-1.1
	l-0.1-2.1l-0.3-1.2l-0.7-1.1l-3.1-2.9l-0.9-0.4l-2.2-0.3l-1.7-0.5l-5.5-3.6l-1.9-1.7l-1-0.6l-2.2-0.9l-2.4,0.5v0.6l-1.5,2.3l-1-0.8
	l-0.9-1.2l-1.1-0.7l-0.8-0.3l-0.5,0.2l-0.2,0.6l-0.3,0.3l-1.2,0.3l-0.5,0.2l-0.9,1.1l-0.2,0.7l-0.2,1.1l-0.5,1.2l-0.2,0.7l0.3,1.3
	v0.8l-0.3,0.9l-0.4,0.8l-0.9,0.6l-2.1,0.9l-1,0.9l-1.4,1.5l-1.5,1.2l-1,1.6l-1.5,1l-1,0.4l-1,0.1h-1.3l-3.6-1.1l-1.4-0.9l-1.3-0.9
	l-0.7-1l-0.4-1l-0.4-0.8l-0.8-0.5l-2.5-0.8l-1.8-2.3l-6.8-6l-3.4-3.9l-0.2-1.6l-0.1-1.5l-0.1-0.9l-0.8-2.2l-0.6-1.1l-1-1.2l-1-1.9
	l-1-1.1l-3.4-2.6l-1.1-1.1l-6.8-10l-0.1-0.9l-0.5-1.8l0.9-1.2l0.2-32.5l-0.1-8.6l0.3-2.7l0.5-0.6l0.6-1.2l0.9-1.3l0.1-0.6l-0.2-0.5
	v-0.7l0.6-0.6l0.8-0.5l0.5-0.3l0.4,0.1l0.1,1.1l0.4,0.5h0.5l0.8-0.2l2-1.2h0.4l0.3,0.3l0.7,1.3l0.3,0.4l2.2-0.3l0.6,0.2l0.5,0.4
	l0.4,0.1l0.3-0.5l0.4-2.1l0.8,1.5l-0.1,0.8v0.8l0.2,0.5l0.3,0.1l1-0.9h1.2l0.5,0.3l0.3,0.6l0.4,0.1l0.6-1.2l0.3-0.5h0.8l0.4,0.4
	l-0.1,0.9l0.2,0.4l0.5-0.1l0.7-0.9l0.6-0.2l1.7,0.6l1.1-0.3l1.7-0.1l0.6-0.4V573l-0.4-0.5v-0.4l2.2-1.1l1.1,0.5l1.7-0.3l0.4,0.2
	l0.4,1l0.5,0.4h0.6l0.7-0.3l0.3-0.5v-1.1l0.4-0.3l0.5,0.2l0.9,0.6l0.5-0.1l1-0.9l1.3-1.1l1.1-0.3h0.6l0.4,0.4l0.7,0.1l0.9-0.6
	l1.4-1.1l1.2-0.6l0.4-0.7l0.6-0.5l1.5-0.3l0.2-0.6l-0.3-0.7l-0.7-0.7l0.3-1.1l1.2-0.6l0.4-0.8l0.5-0.9l5.8-3.3l1.3-0.4l0.7,0.1
	l0.7,1l0.6,0.4l0.6,1l1.7,0.4l0.9-1.1l0.6-1.4l0.8-0.7l2.2-0.5l0.8,0.4l0.5,2.3l0.2,0.5l0.4,0.3l0.7-0.2l0.5-2.8l0.9-0.9l0.7,0.4
	l1.1,1.9l0.5,0.4v-1.9l0.2-1.4l0.8-0.8h1.7v-0.5l-0.8-0.5l-0.5-0.6l0.1-0.7h0.5l0.5,0.3l1.4,0.2l0.8,0.2l1.5-1.3l0.6-0.3l2.4-0.1
	l1.2-0.3l1.1-0.6l2.6-2.3l1.2-0.1l2.6,1.5l0.4-1.4l0.6-0.9l0.8-0.1l1,1l0.8,2.3l0.3,0.4l0.3-1.3l-0.1-1.4l-0.1-0.7l0.2-0.5l0.9-0.6
	l0.9-0.5l0.9-0.2l0.9,0.1l0.1-1.6l-0.2-1.2l-0.1-1.3l0.3-0.9l0.8-0.4l2.6-0.5l1.4-0.4l1,0.3l0.9,1.6l1,0.8l1.5,0.4l2.6,0.2l0.8,0.7
	l0.3-0.3l0.5,0.8l0.9,0.1l0.9-0.3l1.3-0.3l0.2-0.2l7.2-1.4l1.4-0.7l0.7-0.8l0.9-0.5l0.6,0.1l0.4,0.5l0.5,2l0.7,0.4l0.6-0.7l0.2-1.2
	v-2.1l0.3-0.4l0.6,0.1l2.5,2.4l0.9,0.3l0.8-0.4l1.1-1.1l0.4-0.1l0.2,0.4l-0.1,1.9l0.3,0.7l1.4,0.2l2.9-1.3l0.7-0.7l0.5-0.7l0.8-0.2
	h0.9l1.7-0.2l1.4,0.2l1.5,0.5l0.8-0.3l0.9-1.3h0.5l2.3,1.4l1.3,0.6l0.8-0.1l0.5-1.4l0.4-0.5l0.6,0.1l1.2,1.1l0.6-0.2l0.4-0.6
	l0.4-1.8l0.4-0.6h0.6l0.6,0.5l0.3,1l0.5,0.8l0.6,0.4h1.1l0.7,0.2l0.8,0.5h0.7l0.8-0.2l2.3-1.8l0.6,0.1l0.7,0.5l0.7,0.6l0.7,0.2
	l0.7-0.4l0.4-0.5l0.6,0.2l1.4,0.7L919.5,538.7L919.5,538.7z"/>
<path id="COL1424" class="st0" d="M1001.6,616.8l-2.4-1.3l-3-0.9l-3.2-0.2l-2-0.8l-3.4-1.7l-7.2-6l-0.4-1l0.1-1.2l2.9-7l0.7-3.5
	l0.2-2.9l0.1-1.4l2.1-1.7l2.6-1.6l0.6-0.7l1.7-1.1l0.3-1v-0.4l-0.3-0.5l-1.4-1.5l-1.1-1.9l-1-0.7h-0.7l-0.8,0.6l-1.1,0.3l-2-0.1
	l-0.8,0.2l-0.3,0.7l-0.4,0.1l-0.5-0.1l-0.7,0.1l-2,0.6h-1.6l-0.7-0.2l-0.9-0.7l-0.8,0.1l-1.2,0.4h-1.2l-0.4,0.2l-0.1,0.4l0.1,0.6
	l-0.2,0.6l-0.7,0.3l-0.9-0.4l-1.6-0.9h-0.8l-3.6-1.2h-1l-1.8,0.6l-0.5,0.3l-2.5,0.4l-0.1-1.4l-0.5-0.7l-0.7-0.3l-0.4-0.1l-1.4-0.4
	l-3.4-0.9L950,576l-0.9-0.9l-0.8-2l-2.8-5.4l-3.3-4.7l-1.4-1.5l-1.5-0.8l-1.6-0.4l-3.4-1.8l-3.8-1.2l-0.7-0.7l0.1-0.6l0.9-0.6
	l26.6-11.1l2.2-1.8l5.6-2.3l1.6-1l0.8-0.9l0.2-0.9l0.2-0.7l0.6-0.8l3.5-2.2l0.4-1.2l-0.1-1.6l-0.3-1.3l-0.6-1.2l-0.1-0.6l0.2-0.4
	l0.8-0.2l0.7-0.4l0.3-0.6l-0.1-0.6l-0.6-0.5l-0.7-0.2l-1.5-0.3l-0.3-0.4l0.3-0.4l1.2-0.9l1.1-2l1.5-1.8l0.9-0.8l1.6-0.9l0.2-0.5
	l0.6-0.3l0.9,0.9l0.6,0.1l0.8-0.3l0.2-0.8l-0.2-0.8l0.1-0.9l0.2-0.3l0.4,0.1l0.2,0.4l0.4,1.2l0.4,0.2l0.7-0.3l0.2-0.9l-0.1-0.9
	l-1.1-1.9l0.2-1.2l0.5-0.4l1-0.2l0.2-0.3l-0.2-0.6l-0.6-0.8l-0.9-0.7l-0.6-0.9l-0.1-0.9l1-1l0.4-0.8l0.3-0.8l0.4-0.3v-1.7h2.7
	l0.8-0.6l0.5-2.9l0.4-1.1l-1.5-2.1l-0.4-0.7l1.3-0.3l1.9-0.1l1.6,0.2l0.8,0.5l0.2,0.4l0.7,0.4l0.9,0.2l0.7,0.1l1.8-2.7l0.6-0.7
	l0.9-0.5l1.3-0.2l0.5,0.3l0.6,0.7l0.7,1.4l0.5-0.6l0.7-1.3l1.1-0.2l4.6,0.2l1.7-0.3l1.1-0.4l1.1,0.1l1.4,1l1.1,1l0.7,0.4l0.4-0.7
	l0.3-3.5l0.4-0.7h0.9l1.2-1l0.3-2.6l-0.1-0.7l-0.5-0.5l0.2-0.7l0.6-0.4l1.3-0.1l1.1,0.1l1.5-0.1l1.5-0.2l2-0.9l1.3-0.4l1.1,0.3
	l0.7,0.7l0.5,0.7l0.6,0.3l0.6-0.3l1.1-0.4l1.4-0.2l2.6-0.9l1.4,0.1l1.1,0.8h0.5l0.1-1l0.5-0.8l0.9-0.2l0.9,0.5l0.5,0.8l0.5,0.6h0.8
	l0.7-0.1l0.5,0.1l0.8,0.9l1.2,0.5l0.4,0.3l0.1,0.5l-0.1,0.9l0.1,0.2l0.6-0.1l1.5-1.2l0.9-0.2l0.6,0.3l1.2,0.9h0.5l-0.2,1.9l0.3,0.3
	l0.4,0.6l0.5,0.4l1.1-0.4l0.5-0.5l0.9-1.6l0.8-0.6l0.9,0.3l4.4,0.6l0.8-0.5l-0.1-2.7l0.5-1l0.8-0.3l1,0.3l0.1,0.8l0.6,0.2h0.9
	l2.3-1.2l0.8-0.2l0.6,0.4l0.8,1l1.5-0.1l-0.1-1.1l-0.3-1.4l0.9-0.7l0.7,0.1l1.3,0.3h0.7l0.9-0.3l0.2-0.7v-0.9l0.1-0.8l1.9-0.4
	l1.5-1.3l0.8,0.2l1.2,0.5l1.1,0.4l2.1-0.2l0.8-0.5l0.7-0.7l0.6-0.4l0.9,0.1l0.7,0.5l0.7,0.2l0.4-0.3l0.5-1.1l0.8-1l1.1-0.9l2.1-0.4
	l0.3-0.8l0.7-0.5l0.8-0.2h0.5l-0.7-1l-0.1-0.8l0.4-0.9l1.4-0.2l2.9-0.1l0.6-0.4l0.2-1.1l0.5-1.1l0.7-0.8l-0.3-0.8l-0.9-1l-0.1-1.2
	l1-0.5l1.5,0.1l2.9,0.4l1.5,0.7l0.4,1.4l0.1,1.6l0.5,1l2.7-1.5l1.6-0.5l0.8,0.8l-0.2,0.7l-0.4,0.7l-0.2,0.6l0.4,0.6l0.9,0.2l0.9-0.6
	l1.5-1.7l0.6-0.8l0.7-1.7l0.6-0.8l0.9-0.2l0.6,0.6l1,1.7l1.3,1l0.9-0.4l1.5-2.5l0.3,1.1l0.2,2.3l0.4,0.8l0.8,0.1l0.9-0.4l1.6-1.1
	l2.5,1.4l2.5,1l2.5-0.2l2.8-1.9l3.3-4.6l0.9-0.7l1.2-0.5l0.5,0.2l0.5,1.6l0.3,4.2l0.3,1.5l2.7,4.6l0.6,1.7l0.4,3.3l0.4,1.6l1.2,1.4
	l1.3,0.7h1.3l1.2-0.2l1.4-0.1l2.5,1.2l1.9,2.5l4.6,11.8l0.9,1.4l1,0.6l2.5,1l2.2,2.4l-0.3,2.8l-1.7,2.8l-4.1,5.1l-0.8,0.6l-0.7,0.2
	l-1.5,0.3l-0.8,0.4l-4.1,3.9l-21.9,20.2l-1.1,1.9v4.6l1-0.8l0.5-0.9l0.7-0.8l1.3-0.4l1.5,0.1l0.7-0.1l1.3-0.6l0.6,0.2l0.7,0.8
	l2.8,1.4l1.7,0.3l1.3-0.5l1.3-0.3l1.2,1l1,1.5l0.4,1.2l0.4,3.1l0.4,1.4l0.8,0.7h3l1.3,0.4l1,0.9l0.3,0.6l0.4,1.2l0.3,0.5l0.6,0.5
	l1.4,0.7l0.5,1l1.1,1.3l0.3,0.3l0.8,0.2l0.5,0.6l0.3,0.8l0.5,0.7l0.6,0.4l1.5,0.9l0.6,0.5l0.3,0.7l0.3,0.9l0.4,0.8l0.6,0.4l0.8,0.2
	l0.7,0.5l1.3,1.3l0.6,0.4l2.4,0.7l2.2,1.4l0.6,0.5l0.2,0.7v1.3l0.4,0.6l0.4,1.3l-0.9,1.4l-1.3,1.2l-0.7,0.9v1.2l1.1,2.6l0.4,2.1
	l1.2,2.9l0.5,0.9l1,0.5l1.3,0.4l1,0.5l0.4,1.1l0.2,3.7l-0.2,1.1l-0.3,0.5l-1.1,1.4l0.2,0.9l0.5,0.7l0.5,0.5l0.5,0.9l1.2,0.9l0.3,0.5
	l0.2,0.7l1.2,2.3l5.8,15.3l0.2,1.5v3l0.2,1.3l0.7,1.5l1.4,2.3l0.7,1.5l0.2,1.5l-0.4,2.7l0.2,1l0.7,0.7l0.7,0.6l0.7,0.7l0.7,1.3
	l0.5,1.7l0.1,1.6l-1.2,2.5l0.3,1.6l1.4,2.9l-2.6,0.5l-10.2,2.8l-1.4-0.2l-0.5-1.7l-0.3-3.5l1.7-19.4l-0.7-4.2l-2.3-7.1l-2.6-5.3
	l-7.3-9.7l-1.6-2.9l-2.1-5.2l-1.4-2.5l-1.7-1.7l-1.1-0.5l-2.8-1l-1.1-0.1l-0.6,0.3l-1.1,1.2l-0.6,0.3l-2.4,0.3l-1.1,0.8l-1.9,1.5
	l-2.6,1.3l-5.1,5.4l-8.1,10.9l-2.1,1.9l-2.6,1.5l-2.2,0.8l-2.4,0.6h-2.4l-2.3-0.6l-2.2-1.9l-1.9-2.6l-1.3-2.9l-1.5-4.3l-0.7-1.3
	l-1-0.9l-1.5-0.6l-1.4-0.3l-0.5-0.2l-0.6-0.6l-0.1-0.5v-1.3l-0.3-0.4l-0.6,0.4l-4,10.1l-1.3,1.9l0.4,0.3l1.7,0.2l0.6,0.8l-0.1,1.5
	l0.1,1.2l2.5,0.1l0.6,0.4l0.2,0.5l-0.1,0.9l0.2,0.4l0.6,0.4l1.1,0.6l-56.2,0.1h-23.7l-2.8-0.4l-5.1-2.1l-4.8-1.1l-2.6,0.2l-4.6,2.1
	l-2.8,0.3l-1.4-0.3h-1.2l-1.2,0.3l-2.9,1.5l-1.2,0.3L1001.6,616.8L1001.6,616.8z"/>
<path id="COL1425" style="fill: #e4ae00" class="st0" d="M919.5,538.7l-1.3,0.3l-1.4-0.7l-0.6-0.2l-0.4,0.5l-0.7,0.4l-0.7-0.2l-0.7-0.6l-0.7-0.5l-0.6-0.1
	l-2.3,1.8l-0.8,0.2h-0.7l-0.8-0.5l-0.7-0.2H906l-0.6-0.4l-0.5-0.8l-0.3-1l-0.6-0.5h-0.6l-0.4,0.6l-0.4,1.8l-0.4,0.6l-0.6,0.2
	l-1.2-1.1l-0.6-0.1l-0.4,0.5l-0.5,1.4l-0.8,0.1l-1.3-0.6l-2.3-1.4H894l-0.9,1.3l-0.8,0.3l-1.5-0.5l-1.4-0.2l-1.7,0.2h-0.9l-0.8,0.2
	l-0.5,0.7l-0.7,0.7l-2.9,1.3l-1.4-0.2l-0.3-0.7l0.1-1.9l-0.2-0.4l-0.4,0.1l-1.1,1.1l-0.8,0.4l-0.9-0.3l-2.5-2.4l-0.6-0.1l-0.3,0.4
	v2.1l-0.2,1.2l-0.6,0.7l-0.7-0.4l-0.5-2l-0.4-0.5l-0.6-0.1l-0.9,0.5l-0.7,0.8l-1.4,0.7l-7.2,1.4l-0.2,0.2l-1.3,0.3l-0.9,0.3
	l-0.9-0.1l-0.5-0.8l-0.3,0.3l-0.8-0.7l-2.6-0.2l-1.5-0.4l-1-0.8l-0.9-1.6l-1-0.3l-1.4,0.4l-2.6,0.5l-0.8,0.4l-0.3,0.9l0.1,1.3
	l0.2,1.2l-0.1,1.6l-0.9-0.1l-0.9,0.2l-0.9,0.5l-0.9,0.6l-0.2,0.5l0.1,0.7l0.1,1.4l-0.3,1.3l-0.3-0.4l-0.8-2.3l-1-1l-0.8,0.1
	l-0.6,0.9l-0.4,1.4l-2.6-1.5l-1.2,0.1l-2.6,2.3l-1.1,0.6l-1.2,0.3l-2.4,0.1l-0.6,0.3l-1.5,1.3l-0.8-0.2l-1.4-0.2l-0.5-0.3h-0.5
	l-0.1,0.7l0.5,0.6l0.8,0.5v0.5h-1.7l-0.8,0.8l-0.2,1.4v1.9l-0.5-0.4l-1.1-1.9l-0.7-0.4l-0.9,0.9l-0.5,2.8l-0.7,0.2L813,559l-0.2-0.5
	l-0.5-2.3l-0.8-0.4l-2.2,0.5l-0.8,0.7l-0.6,1.4l-0.9,1.1l-1.7-0.4l-0.6-1l-0.6-0.4l-0.7-1l-0.7-0.1l-1.3,0.4l-5.8,3.3l-0.5,0.9
	l-0.4,0.8l-1.2,0.6l-0.3,1.1l0.7,0.7l0.3,0.7l-0.2,0.6l-1.5,0.3l-0.6,0.5l-0.4,0.7l-1.2,0.6l-1.4,1.1l-0.9,0.6l-0.7-0.1l-0.4-0.4
	h-0.6l-1.1,0.3l-1.3,1.1l-1,0.9l-0.5,0.1l-0.9-0.6l-0.5-0.2l-0.4,0.3v1.1l-0.3,0.5l-0.7,0.3H779l-0.5-0.4l-0.4-1l-0.4-0.2l-1.7,0.3
	l-1.1-0.5l-2.2,1.1v0.4l0.4,0.5v0.6l-0.6,0.4l-1.7,0.1l-1.1,0.3l-1.7-0.6l-0.6,0.2l-0.7,0.9l-0.5,0.1l-0.2-0.4l0.1-0.9l-0.4-0.4
	h-0.8l-0.3,0.5L764,575l-0.4-0.1l-0.3-0.6l-0.5-0.3h-1.2l-1,0.9l-0.3-0.1l-0.2-0.5v-0.8l0.1-0.8l-0.8-1.5l-0.4,2.1l-0.3,0.5
	l-0.4-0.1l-0.5-0.4l-0.6-0.2l-2.2,0.3l-0.3-0.4l-0.7-1.3l-0.3-0.3h-0.4l-2,1.2l-0.8,0.2H750l-0.4-0.5l-0.1-1.1l-0.4-0.1l-0.5,0.3
	l-0.8,0.5l-0.6,0.6v0.7l0.2,0.5l-0.1,0.6l-0.9,1.3l-0.6,1.2l-0.5,0.6l-0.3,2.7l0.1,8.6l-0.2,32.5l-0.9,1.2l-5.6-0.9L732,622h-2.5
	l-1.9-0.3l-39.8-14l-2.7-1.9l-2.3-2.9l-1.5-3.2l-0.6-3.1v-2.3l0.7-2.1l1.3-1.7l1.5-1.6l1-1.4l0.4-1.2v-1.4l-0.7-1.4l-1-1.5l-4.1-4.6
	l-1.1-1.7l-0.6-1.9l-0.3-2.4l0.1-2.1l0.4-3.4l3.8-14.9l-0.1-2.4l-0.8-1.3l-1.3-1l-1.3-1.2l-1-1.5l-1.9-5l-0.6-1l-0.9-0.8l-1.2-0.7
	l-1.3-0.4l-3.2-0.4l-6.7-2.2l0.1-0.4l1.8-5.2l2.3-4l0.7-0.9l1.5-1.1l2-0.9l1.7-1.8l3.2-2.1l1.2-1l2-3.4l0.7-2.2l0.3-2.2l0.3-5.6
	l0.3-2.8l0.8-2.3l5-6.7l1.4-2.5l1.5-3.7l0.3-1.9l2,1.8l1.9,0.1l0.6-0.3l0.4-0.9l0.4-0.5l0.9-2l4.4-5.4l1.3-2.2l0.6-1.5l-0.1-1.4
	l0.6-0.8l1.3-1.3l1.7-2l0.9-1.5l1.3-2.7l1-0.7l3.6,0.9l2.1,0.1l3.3-3.2l2.4-1.6l1.1-1.2l1.1-0.6l1-0.2l1-0.1l1.1-0.3l0.6-0.8
	l0.7-1.3l1.5-0.8l1.2-0.2l4.5-2l0.6-0.6l0.7-0.5h1.5l0.8,0.2l1.9-0.1l-0.7-2.2l-0.1-0.8v-1l-0.5-1.1l-1.1-1l-0.2-1.4l0.2-1.3
	l-0.8-3.6l-0.9-0.9l0.1-1.4l0.5-0.7l0.7-0.9l0.5-0.4l1.6-0.7l1.5-0.9l0.4-0.8l1-1.6l0.6-0.6l0.9-0.2l0.7,0.2l0.7,0.4l0.7,0.9
	l0.7,0.6h1l0.6,0.1l0.6,0.3l0.8,1.4l0.8,0.9l0.9,1.3l0.3,0.6v0.9l0.4,1.9l1.4,3.2l0.1,0.8l0.3,0.5l0.6,0.5l0.8,0.4l1,0.4l0.8,0.4
	l0.9,0.2l1.1-0.2l1.1-0.5l1.7-1.3l4.3-0.5l8.2,2.1l1.5,0.6l0.8,0.6l0.4,0.8l0.3,0.3l0.8,0.4l1.8,1.2l1,0.5l0.5-0.3l0.3-0.6l0.2-1.6
	l2.2-14.6l2.3-16l0.7-1.2l0.4,2l0.4,0.7l3.1,3l4.6,8.4l6,6.4h1l0.6,0.3l0.3,0.8l1.1,1.3l0.2,0.6l0.1,0.4l0.4,0.6l-0.2,1.4l0.5,0.1
	l1.1-0.2l0.5,0.2l0.4,2.4l1.5,0.9l0.5,0.1l0.7-0.1l0.4-0.3l0.9-0.8l0.6-0.3l0.6,0.1l2.6,0.4h0.5l0.6-0.5l0.5,0.3l0.8,0.7l0.6-0.2
	l1.4-2.7l0.4-0.4l0.8,0.1l1,0.3l0.8,0.4l0.4,0.4l0.7,1.1l1.6-0.5l3.2-1.8l1.3,0.9l1.7,0.3l1.5-0.4l2.9-4.5l0.9-0.4l10.8-2.4h0.7
	l0.8,0.3l2.5,1.6l0.6,1l0.7,1l1.4,0.4l2.5-0.7l2.6-1.6l5.1-4.3l5.3-5.7l0.7-0.5l0.7-0.1h0.7l0.8-0.1l6.1-1.8l2.8-1.4l5.3-3.7
	l19.5-8.4l4-0.6l0.6-0.5l3.2-2.6l1.9-1.1l1.1-0.5l0.9-0.2l0.9-0.4l1.8-1.7l-0.2,105.1L919.5,538.7L919.5,538.7z"/>
<path id="COL1426" class="st0" d="M1001.6,616.8h-1l0.5,2.6v4.7l-0.2,36.3l1.5,0.2l2.8-1.8l1.7-0.5h0.9l0.9,0.2l0.5,0.4l0.1,1.4
	l0.8,0.2l6.4-1l1.6,0.1l2.9,1l0.7,0.1h2.2l2.1-0.3h0.7l0.6,0.3l0.8,0.9l1.3,0.8l0.7,0.1l3.2-2.3l1-0.3l1.1,0.2l3.4,1.8l0.9,0.6
	l1.2,1.5l1.1,0.7l0.5,0.5l0.2,0.6l0.1,0.8l0.2,0.7l1.4,0.9l-0.3,2.5l1,1l1.6,0.6l0.8,0.5l0.4,0.5v0.9l-0.5,0.4l-0.6,0.1l-0.4,0.2
	l-0.2,1.4l0.7,3v1.5l-0.5,0.8l-0.7,0.5l-0.4,0.6l0.2,0.9l0.5,0.5l1.5,0.7l0.5,0.5l0.7,1.5l0.2,1.2l-0.4,0.8l-1.2,0.4l-0.6-0.1
	l-1.3-0.4h-0.7l-0.5,0.3l-0.7,1l-0.5,0.3l-1.1,0.1l-2.5-0.4l-1.2,0.1l0.3-1.8l-0.6-0.8l-1.2,0.1l-1.5,0.4l-1.4,0.6l-0.4-0.2
	l-4.8-4.8l-1.2-0.9l-1.4-0.3l-1.7,0.2l-1.3,0.6l-2.2,1.4l-1.2,0.2l-1.4,0.5l-0.7,1.5l-0.9,1.1l-2.2-0.4l-1.9-0.9l-1,0.1l-2.6,2
	l-2.3,1.3l-2.5,0.9l-2.8,0.5l-4.6,0.3l-1.3,0.4l-1.3,0.2l-1.6-0.3H991l-1.4,0.7l-1.3,0.4l-1-1l-0.5,17.3l-0.2,7.4l-0.5,18.2
	l-0.1,5.1l0.4,2.4l0.8,1.4l2.6,3l3.4,3.1l1.5,2.2l0.7,0.6l1.3,0.5l2.7,0.6l1.1,0.8l0.4,0.6l0.7,1.5l0.5,0.7l0.6,0.4l1.6,0.8l0.7,0.5
	l2,2.1l1,0.9l5.4,2l1.1,0.6l1.2,1l0.8,1.2l0.6,1.3l0.3,1.5v2l0.1,0.7l0.4,0.7l0.8,1l0.2,0.9l-0.4,1.5l-2.1,3.2l-0.5,1.2l0.7,1.6
	l2.6,2.9l0.5,0.9l-0.2,1.7l0.2,0.7l0.6,1l0.4,0.4l1,0.6l0.4,0.7v0.8l-0.1,0.6l-0.1,0.7l0.5,0.9l0.5,0.5l1.5,0.6l0.6,0.4l1.5,2.2
	l0.4,0.3l1,0.2l0.5,0.8l-0.1,0.2l0.3,2.5l-0.1,0.8l-0.5,1.4l0.1,0.8l2.5,4l0.7,2.1l-1.4,3.8l-2.3-2.7l-0.3-0.9l-0.4-0.4l-1-0.4
	l-0.9-0.1l-4.8-2.4l-1-0.1l-3.4,2l-0.8,0.1l-0.5-0.4l-0.5-1.3l-0.2-1.3l0.3-1.1l0.5-1.1l0.3-1.2l-0.3-1.1l-0.9-1.1l-2.7-2.4l-1-0.6
	l-1-0.2l-1,0.4l-0.6,0.7l-0.5,1.8l-0.8,0.6h-1.4l-3-1.2h-1.6l-1.1,0.6l-1,0.9l-1.1,0.6l-1.3-0.1l-1.1-0.9v-0.9l0.9-2.1v-1.4l0.1-0.3
	l0.4-0.5l1.2-1l0.5-0.9l0.3-0.8l-0.4-0.6l-1.5,0.1l-1.1,0.4l-1,0.6l-1,0.2l-2-1l-0.7,0.5l-0.6,0.8l-0.9,0.5h-0.6l-0.6-0.2l-1.3-0.7
	h-0.8l-1.1,0.6l-1.7,2.1l1,1.6l1.7,1.3l0.8,1.8l-0.6,1.3l-1.2,0.7l-1.3,0.2l-1.3-0.3l-3.3-2.6l-0.6-0.7l0.1-0.9l0.8-1.8l0.2-0.9
	l-0.4-0.9l-0.9,0.4l-1.7,1.5l-1.2,0.3l-1.2-1l-0.9-1.4l-0.4-1.3l0.2-1.1l0.8-0.8l2-1.3l1.5-2.3l-1.4-2.1l-2.1-2.2l-0.6-2.4l0.7-0.9
	l1-0.6l0.9-0.7l0.1-1l-0.7-2.1l-0.2-1.1v-1.2l0.4-2.6v-1.3l-0.3-1.2l-1-0.9l-1.2,0.1l-1,0.4l-0.7-0.1l-0.1-1.5l1.4-1.9l4.2-3.9
	l0.6-0.8l-0.3-0.8l-1.5-0.9l-1.5-0.4h-1.3l-1.2,0.4l-1.4,0.7l-0.7,0.9l0.2,1.8l-0.5,0.7l-1.3,0.2l-3.5-0.7l-2.9,0.1l-0.3-0.6l0.2-1
	v-1.1l-0.5-1.2l-0.8-1.3l-1-1.2l-1.1-0.7l-1.1-0.3l-3.4,0.3l-0.9-0.4l-1.4-1.7l-0.9-0.5h-0.8l-1.5,0.3l-0.8-0.1l-0.7-0.3l-1.9-1.6
	l-1.2-0.6l-1.5-0.5l-1.3,0.1l-0.7,1.1l-0.3,1.1l-0.8,0.6l-1.1,0.2l-2.4-0.1l-0.6-0.2l-0.4-0.6l-1.6-3.5l-1.6-4.5l-2.5-3.2l-0.1-0.8
	l0.4-0.8l0.3-1.2v-1.2l-0.3-1l-0.5-1l-2-2.9l-0.9-1l-0.8-0.5h-0.9l-1.4,0.7l-0.8,0.1l-1.2-0.4l-2.6-1.3l-1.3-0.4l-1.5-0.6l-0.6-1.1
	l-0.6-2.8l-1-1.4h-1.4l-2.8,1.3h-1.1l-1.1-0.1l-1.1-0.4l-1-0.5l-1.5-1.5l-2.1-1.9l-2.3-0.8l-1.5-1l-0.8-0.2l-2.1,0.6l-0.7,0.1
	l-0.6-0.1l-1.2-0.4l-0.6-0.1l-1.1,0.4l-0.7,0.4h-0.8l-3.4-2.2l-6.8-3.2l-0.8-0.9l-1.4-2.4l-0.8-0.6l-1.5-0.5l-0.8-0.9l-0.5-1.2
	l-0.7-1.2l-1-0.2l-2.1,1.4h-1l-0.3-0.9l0.2-1.1l0.3-1.2l0.1-1l-1.5-1.3l-2.6-1.6l-2.2-1.7v-1.6l0.6-0.9l0.1-1.1l-0.4-1l-0.8-1
	l-1.1-0.7l-0.5,0.2l-0.3,0.6l-0.5,0.2l-1-0.8l-0.5-1.1l-0.4-2.7l-0.8-1.5l-1.1-0.6l12.7-13.2l2-1.6l2.1-2.2l0.5-0.9l0.5-1.2l1-1.5
	l0.9-0.8l1.3-0.3l1,0.2l0.9,0.3l0.7,0.1l0.8-0.2l3-3.2l1.3-0.9l0.7-1l0.8-1.7l0.1-0.6v-1.5l0.2-0.6l0.5-0.3l1,0.2l0.1-0.5l-0.1-0.7
	l0.1-0.9l0.4-0.4l0.4-0.1l0.3,0.3l0.3,1.4l0.2,0.8l0.5,0.6l0.8,0.3l0.7-0.2l0.2-0.6l-0.3-0.9l-0.6-0.7l-0.5-1l-0.8-1.3l-0.2-0.6
	l-1-1.7V649v-1.5l0.2-1.3l0.5-0.6l3.1-7.3l0.5-1.9l0.4-1.7l0.8-1.5l1.4-3.3l0.6-2.3l0.6-1.1l1.8-2.3l0.4-1.5l0.3-1.9l0.3-5.6
	l1.1-0.3l1.9,1.5l2.3,0.9l1.3,1.4l0.7,0.2l1.2,0.2l1.2-0.7l1.4-1.2l1.2-1.3l3.2-2.3l5.5-3l3.5-1.2l2.2-1.2l1.7-1.2l2.8-2.7l1-1.4
	l0.5-0.3l1.1,0.2l6.2-0.2l2.5,0.3l0.9-0.2l1.5,0.4l0.6,0.4l0.8,0.3l0.9,0.1l1-0.1l1.2-0.2l2.1-1.1l4.5-1l1.4-0.6l2.5-0.5l0.9-0.4
	l0.6-0.5l1-1l1.2-0.6l2.7-0.4h1.1l0.7-0.3h1.2l1.4-0.1l2.3-0.8l3-0.8l3.9-0.4l1.2-0.6l0.8-0.6l1.6-1.5l2.9-2.1l-0.2,2.9l-0.7,3.5
	l-2.9,7l-0.1,1.2l0.4,1l7.2,6l3.4,1.7l2,0.8l3.2,0.2l3,0.9L1001.6,616.8L1001.6,616.8z"/>
<path id="COL1427" class="st0" d="M1144.4,459.8l-1.2,0.5l-0.9,0.7l-3.3,4.6l-2.8,1.9l-2.5,0.2l-2.5-1l-2.5-1.4l-1.6,1.1l-0.9,0.4
	l-0.8-0.1l-0.4-0.8l-0.2-2.3l-0.3-1.1l-1.5,2.5l-0.9,0.4l-1.3-1l-1-1.7l-0.6-0.6l-0.9,0.2l-0.6,0.8l-0.7,1.7l-0.6,0.8l-1.5,1.7
	l-0.9,0.6l-0.9-0.2l-0.4-0.6l0.2-0.6l0.4-0.7l0.2-0.7l-0.8-0.8l-1.6,0.5l-2.7,1.5l-0.5-1l-0.1-1.6l-0.4-1.4l-1.5-0.7l-2.9-0.4
	l-1.5-0.1l-1,0.5l0.1,1.2l0.9,1l0.3,0.8l-0.7,0.8l-0.5,1.1l-0.2,1.1l-0.6,0.4l-2.9,0.1l-1.4,0.2l-0.4,0.9l0.1,0.8l0.7,1h-0.5
	l-0.8,0.2l-0.7,0.5l-0.3,0.8l-2.1,0.4l-1.1,0.9l-0.8,1l-0.5,1.1l-0.4,0.3l-0.7-0.2l-0.7-0.5l-0.9-0.1l-0.6,0.4l-0.7,0.7l-0.8,0.5
	l-2.1,0.2l-1.1-0.4l-1.2-0.5l-0.8-0.2l-1.5,1.3l-1.9,0.4l-0.1,0.8v0.9l-0.2,0.7l-0.9,0.3h-0.7l-1.3-0.3l-0.7-0.1l-0.9,0.7l0.3,1.4
	l0.1,1.1l-1.5,0.1l-0.8-1l-0.6-0.4l-0.8,0.2l-2.3,1.2h-0.9l-0.6-0.2l-0.1-0.8l-1-0.3l-0.8,0.3l-0.5,1l0.1,2.7l-0.8,0.5l-4.4-0.6
	l-0.9-0.3l-0.8,0.6l-0.9,1.6l-0.5,0.5l-1.1,0.4l-0.5-0.4l-0.4-0.6l-0.3-0.3l0.2-1.9h-0.5l-1.2-0.9l-0.6-0.3l-0.9,0.2l-1.5,1.2
	l-0.6,0.1l-0.1-0.2l0.1-0.9l-0.1-0.5l-0.4-0.3l-1.2-0.5l-0.8-0.9l-0.5-0.1l-0.7,0.1h-0.8l-0.5-0.6l-0.5-0.8l-0.9-0.5l-0.9,0.2
	l-0.5,0.8l-0.1,1h-0.5l-1.1-0.8l-1.4-0.1l-2.6,0.9l-1.4,0.2l-1.1,0.4l-0.6,0.3l-0.6-0.3l-0.5-0.7l-0.7-0.7l-1.1-0.3l-1.3,0.4l-2,0.9
	l-1.5,0.2l-1.5,0.1l-1.1-0.1l-1.3,0.1l-0.6,0.4l-0.2,0.7l0.5,0.5l0.1,0.7l-0.3,2.6l-1.2,1h-0.9l-0.4,0.7l-0.3,3.5l-0.4,0.7l-0.7-0.4
	l-1.1-1l-1.4-1l-1.1-0.1l-1.1,0.4l-1.7,0.3l-4.6-0.2l-1.1,0.2l-0.7,1.3l-0.5,0.6l-0.7-1.4l-0.6-0.7l-0.5-0.3l-1.3,0.2l-0.9,0.5
	l-0.6,0.7l-1.8,2.7l-0.7-0.1l-0.9-0.2l-0.7-0.4l-0.2-0.4l-0.8-0.5l-1.6-0.2l-1.9,0.1l-1.3,0.3l0.4,0.7l1.5,2.1l-0.4,1.1l-0.5,2.9
	l-0.8,0.6h-2.7v1.7l-0.4,0.3l-0.3,0.8l-0.4,0.8l-1,1l0.1,0.9l0.6,0.9l0.9,0.7l0.6,0.8l0.2,0.6l-0.2,0.3l-1,0.2l-0.5,0.4l-0.2,1.2
	l1.1,1.9l0.1,0.9l-0.2,0.9l-0.7,0.3l-0.4-0.2l-0.4-1.2l-0.2-0.4l-0.4-0.1l-0.2,0.3l-0.1,0.9l0.2,0.8l-0.2,0.8l-0.8,0.3l-0.6-0.1
	l-0.9-0.9l-0.6,0.3l-0.2,0.5l-1.6,0.9l-0.9,0.8l-1.5,1.8l-1.1,2l-1.2,0.9l-0.3,0.4l0.3,0.4l1.5,0.3l0.7,0.2l0.6,0.5l0.1,0.6
	l-0.3,0.6l-0.7,0.4l-0.8,0.2l-0.2,0.4l0.1,0.6l0.6,1.2l0.3,1.3l0.1,1.6l-0.4,1.2l-3.5,2.2l-0.6,0.8l-0.2,0.7l-0.2,0.9l-0.8,0.9
	l-1.6,1l-5.6,2.3l-2.2,1.8l-6.3-3.8l-1.1-0.2l-1.4-0.1l-0.8,0.9h-0.5l-1.7-2l-0.6-0.5h-0.7l-0.2,0.4l0.1,0.6l0.4,0.7l0.2,0.8v0.6
	l-0.4,0.6l-2.8,2.2l-0.4-0.1l-0.2-0.7v-0.8l-0.3-0.5l-0.5-0.1l-0.8,0.2l-0.9,0.6l-1,0.5l-1.1,0.2l-0.6-0.3l-0.8-1.4l-1.1-0.7h-1
	l-1.7,0.8l-0.1-0.4l0.1-0.7l-0.1-0.9l-0.9-0.8l-0.6,0.1l-0.4,0.6l0.1,0.9l-0.4,0.4l-0.6-0.4l-0.8-1.3l-1.2-0.8h-0.5l-0.2,0.8l0.2,1
	v0.9l-0.3,0.6l-0.4,0.2l-0.4-0.3v-0.6l0.2-1.4l-0.2-0.5l-1.3-0.3l-1.2-0.2l-1.2-0.7l-1.5,0.3v-33.2l0.2-105.1l0.8-0.7l1.4-2
	l4.5-10.7l1.1-1.2l2.6-0.7l1.2-0.6l11.8-10.3l1.1-0.4l0.6-0.7l0.2-3.2l0.4-1.2l1.1-1l2.9-1.2l1.2-0.8l1.4-1.1l4.5-2.4l4.3-3.2
	l1.4-0.5l1.5-0.2l4.2-1.7l2.5-0.5l5.3-0.2l2.8-0.6l2-0.9l2.2-1.4l2.1-1.6l1.6-1.6l2.3-3.6l0.3-0.9l2.9-3l1.1-1.9l4.8-11l1.5-2.3
	l1.4-1.5l0.6-0.7l2-1.2l2.1-0.5l14.3,0.5l2.7-0.5l6.7-4.1l1.8-0.4l3.2-1.5l1.8-0.4l1.4,0.7l2.8,3.3l1.5,1.2l3.9-2.2l3.9-3.9l1.5-0.8
	l1.9-1.9l1.3-0.5l1.6-0.1l1.4,0.3l2.5,1.2l1.2-0.4l1.5,0.4l1.6,0.5l1.5,0.3l4.3-0.2l1.4,0.2l4.3,1.4l1.5,0.1l1.4,0.3l2.8,1.3
	l1.6,0.2l0.9-0.4l1.8-1.5l0.7-0.4l4.2-0.2l4.9-1.5l1.5-0.1l1.4,0.1l4.4,1.2h2.4l7.7-2.7l2.9-0.4l8.6,0.8l2.8-0.4l2.3-0.8l1.3-0.4
	l0.5-0.5l0.4-0.7l0.1-0.7l0.3-0.8l0.8-0.2h0.9l0.8-0.1l0.7-0.6l1.2-1.3l0.8-0.4h0.6l1.2,0.3l4.7,0.4l10.5,2.5l2,1.2l1.8,1.8l1.8,1.4
	l2.8,0.2l-1.8,1.3l-0.7,0.8l-0.3,1v2.6l2.5,3.9l1.7,1.2l0.5,1.4l0.2,1.5l-0.3,1.2l-0.8,0.7l-2.4,1l-1,0.6l-3.2,3.5l-0.6,1l-4,3.8
	l-1.6,2.5l-1.1,2.7l-0.5,2.9v3.1l0.7,3.9l0.2,1.4l1.2,1.3l0.2,0.3l-0.2,0.8l-0.4,0.5l-0.8,1l-0.8,2.4l-0.4,0.4l-0.8,0.2l-0.7,0.5
	l-1.2,1.4l-0.6,0.4l-2,0.7l-0.3,0.3l-0.7,0.8l-0.7,0.4l-1-0.1l-2.5,2.1l-1.7,2.7l-0.6,2.8l0.6,2.6l0.7,1.1l0.4,1l0.2,1.2l0.1,1.6
	l-0.1,0.6l-0.6,1.6l-0.2,0.8v0.8l0.2,1.3l0.2,0.7l0.4,0.6l1.3,1.4l0.2,0.5l-0.1,0.7l-0.7,0.8l-0.1,0.4l0.1,3l-0.1,1.3l-0.9,2.6
	l-0.4,2.6l-0.1,1.5l0.1,0.5l0.8,1.6v0.9l-0.3,0.8l0.3,0.6l-0.4,1.3l-0.2,3l-0.5,1.1l-0.7,1.1l-0.3,1.4l-0.2,3.8l-0.5,1.8l0.1,2.1
	l-0.1,0.7l-0.3,0.5l-0.5,0.3l-0.4,0.5l-0.1,0.9l0.2,0.8l0.5,0.6l1.1,1v-0.5l1.3,0.9l0.5,0.9l0.5,2.3l0.3,0.3l0.8,0.3l0.3,0.4v0.6
	l-0.4,0.9l-0.1,0.5l0.3,0.9l0.9,1.5l0.2,0.9l-0.2,0.8l-1.2,2.2l-0.3,2.5l0.4,2.3l0.6,2.1l0.3,2.1l0.5,1.3l1.3,1l1.3,1.3l0.5,2.2
	l0.8,0.8l0.4,1.2L1144.4,459.8L1144.4,459.8z"/>
<circle id="_x30_" class="st0" cx="727.4" cy="486.2" r="0"/>
<circle id="_x31_" class="st0" cx="726.8" cy="486.1" r="0"/>
<circle id="_x32_" class="st0" cx="639.3" cy="693.8" r="0"/>
</svg>
